<?xml version="1.0" encoding="UTF-8"?>
<svg version="1.1" xmlns="http://www.w3.org/2000/svg" width="512" height="512">
<path d="M0 0 C2.22481597 1.72820192 4.18765604 3.64473394 6.16096973 5.65201855 C7.01427778 6.49570716 7.01427778 6.49570716 7.88482437 7.35643998 C9.78138012 9.23644307 11.66344835 11.13029536 13.54585266 13.02445984 C14.91921244 14.39177609 16.29343837 15.75822281 17.66845292 17.12387496 C21.43895013 20.87380145 25.19687816 24.63610654 28.95282042 28.40060365 C33.00767161 32.46038726 37.07397777 36.50866988 41.13877869 40.55848694 C49.09768449 48.49189 57.04559397 56.43622183 64.98941646 64.38472524 C71.44530026 70.84417426 77.90470428 77.30008254 84.36662865 83.75348854 C85.28609849 84.67176801 86.20556833 85.59004747 87.1529009 86.53615359 C89.02075305 88.40158226 90.88860759 90.26700853 92.7564645 92.13243244 C105.29749954 104.65789298 117.83466194 117.18721733 130.36388874 129.72449017 C130.85369456 130.21460874 131.34350039 130.70472732 131.84814881 131.20969797 C134.33060468 133.69376538 136.81302053 136.17787277 139.29542039 138.66199615 C139.78842404 139.15534198 140.2814277 139.64868782 140.78937087 140.15698352 C141.78634232 141.15464829 142.7833119 142.15231493 143.78027961 143.14998344 C159.29698306 158.67740389 174.82692438 174.19147289 190.36743164 189.69506836 C207.83125523 207.11746032 225.28502322 224.54983485 242.72415608 241.99694377 C251.95673414 251.23334968 261.19368255 260.46528174 270.44228554 269.68564415 C278.31436918 277.53393335 286.17591203 285.39259611 294.02397213 293.26491108 C298.02893927 297.28167823 302.03859612 301.29344952 306.06141281 305.29234695 C309.74364511 308.95293851 313.41175672 312.62708758 317.06909194 316.31254945 C318.39475124 317.64352385 319.72550016 318.96945223 321.06177882 320.28976461 C334.90027029 333.97431835 334.90027029 333.97431835 335.03477174 343.44957274 C334.78028794 349.30447195 332.76181013 353.33217817 328.5078125 357.44140625 C324.13853487 361.25637254 320.93930011 362.17532144 315.25 362.3125 C314.24453125 362.34988281 313.2390625 362.38726562 312.203125 362.42578125 C303.74696316 361.30173047 298.60510963 354.89073051 293.01596451 348.9969368 C291.54457023 347.44948968 290.06013696 345.91573014 288.5710144 344.38534546 C284.34203517 340.03794909 280.12357669 335.68126104 275.94775391 331.28271484 C273.3828523 328.58297813 270.79172607 325.9109666 268.18169785 323.25486374 C267.19629103 322.24166856 266.22104823 321.21848105 265.25662613 320.18529129 C260.28116792 314.40195364 260.28116792 314.40195364 253.51499939 311.80172729 C251.17276341 312.30232855 249.18177766 313.02283304 247 314 C246.08130127 314.2357373 245.16260254 314.47147461 244.21606445 314.71435547 C243.439646 314.92979004 242.66322754 315.14522461 241.86328125 315.3671875 C166.21870447 335.98019852 89.32474829 325.25967654 21.1171875 286.96484375 C14.16154817 282.98013539 7.5206821 278.65763007 1 274 C-0.10722412 273.21520264 -0.10722412 273.21520264 -1.23681641 272.41455078 C-12.34638667 264.50523068 -22.92148423 256.18686477 -33 247 C-34.03181396 246.06075684 -34.03181396 246.06075684 -35.08447266 245.10253906 C-37.23106438 243.13941256 -39.36791039 241.16636188 -41.5 239.1875 C-42.14670654 238.58945557 -42.79341309 237.99141113 -43.4597168 237.37524414 C-47.36660313 233.70529222 -50.95955965 229.8688588 -54.45019531 225.80151367 C-56.28576065 223.667828 -58.20416695 221.61942446 -60.125 219.5625 C-70.01284514 208.59475369 -79.03201306 196.43280721 -87 184 C-87.474375 183.27296875 -87.94875 182.5459375 -88.4375 181.796875 C-92.69840217 174.04440022 -92.15818925 163.62220346 -90.41015625 155.13671875 C-87.7618627 147.68000281 -82.67774547 141.30293847 -78 135 C-77.22398438 133.94683594 -76.44796875 132.89367187 -75.6484375 131.80859375 C-66.90529921 120.20328804 -57.48509003 109.07120489 -47 99 C-44.40349776 96.42063639 -41.82825898 93.82383013 -39.2734375 91.203125 C-29.53612028 81.24461937 -18.85893091 72.80451283 -7.74926758 64.42797852 C-7.04825928 63.89744873 -6.34725098 63.36691895 -5.625 62.8203125 C-4.99851562 62.34867676 -4.37203125 61.87704102 -3.7265625 61.39111328 C-2.02737435 60.02205586 -0.52993228 58.55297384 1 57 C0.10692139 56.13310547 -0.78615723 55.26621094 -1.70629883 54.37304688 C-5.0345582 51.13568171 -8.34591954 47.88147354 -11.65258789 44.62207031 C-13.08264335 43.21706951 -14.51716603 41.81659994 -15.95629883 40.42089844 C-18.03113242 38.40711049 -20.08904375 36.37725862 -22.14453125 34.34375 C-22.78526077 33.7288269 -23.4259903 33.11390381 -24.08613586 32.48034668 C-28.83380505 27.73566383 -31.67133245 23.16511416 -32.21484375 16.27734375 C-31.46121416 9.91925746 -30.29262865 4.94805124 -25.3203125 0.49609375 C-16.98156005 -5.78481206 -8.67663925 -5.28748429 0 0 Z M67 123 C55.81541236 145.76862484 54.50029981 173.94159053 62.25390625 198.00390625 C68.44144364 216.06048253 78.40743907 233.41318947 93 246 C93.87398437 246.75410156 94.74796875 247.50820313 95.6484375 248.28515625 C108.90206337 259.2706669 124.33101819 266.85537803 141 271 C141.92941406 271.24363281 142.85882813 271.48726562 143.81640625 271.73828125 C165.02243625 276.27581605 187.12443632 272.85705877 207 265 C207 257.70889667 196.30177137 249.5318974 191.37963867 244.50170898 C184.80600635 238.06096486 179.60926124 233.45080139 169.9699707 233.31323242 C165.85748131 233.63789427 161.79036817 234.11077528 157.71044922 234.71923828 C144.85031369 236.05135464 130.41002984 228.26164337 120.640625 220.38671875 C108.15859381 209.71425792 98.49308619 194.614817 96.07470703 178.12744141 C95.98341919 175.52782636 96.38024663 173.17068893 96.80859375 170.60546875 C98.41372774 159.4649769 98.41372774 159.4649769 94.77783203 149.08740234 C87.28124612 139.25745821 77.57910291 130.75791442 68 123 C67.67 123 67.34 123 67 123 Z " fill="#000000" transform="translate(91,90)"/>
<path d="M0 0 C0.88026855 0.21495117 1.76053711 0.42990234 2.66748047 0.65136719 C51.81761817 12.9549938 99.7875988 40.40779382 135.42871094 76.44018555 C137.20865132 78.20712761 139.07025217 79.83630837 141 81.4375 C144.35510997 84.3362636 147.24898599 87.41856451 150.109375 90.80078125 C152.21327602 93.2480876 154.41714264 95.58363917 156.625 97.9375 C163.26525748 105.22460143 169.14758386 113.07485315 175 121 C175.45890625 121.61762207 175.9178125 122.23524414 176.390625 122.87158203 C185.39425345 135.07190537 189.48021323 144.74601309 188 160 C186.14644616 168.77676156 180.24755241 175.92928611 175 183 C173.83597656 184.57974609 173.83597656 184.57974609 172.6484375 186.19140625 C168.07275585 192.2649902 163.27955738 198.11727401 158.3125 203.875 C157.79010742 204.48134277 157.26771484 205.08768555 156.72949219 205.71240234 C153.46169093 209.4556882 150.05515747 213.00490358 146.49853516 216.47509766 C144.8487911 218.09433935 144.8487911 218.09433935 143.0625 220.5 C140.74468092 223.30947767 138.20577212 225.51500921 135.4375 227.87109375 C133.1196995 229.89545476 130.88801523 231.99376065 128.65869141 234.11450195 C120.5988054 241.74168377 111.89530245 248.38429142 103 255 C101.49559601 256.12694002 99.99167426 257.25452414 98.48828125 258.3828125 C97.81966064 258.88441895 97.15104004 259.38602539 96.4621582 259.90283203 C95.979646 260.26489746 95.49713379 260.62696289 95 261 C90.8547844 259.35847729 88.03509789 256.35203629 84.93041992 253.26855469 C84.33326172 252.68293259 83.73610352 252.09731049 83.12084961 251.49394226 C81.15164188 249.55898712 79.190369 247.61625471 77.23046875 245.671875 C76.22461951 244.67638012 76.22461951 244.67638012 75.19845009 243.66077423 C71.65367771 240.15180333 68.1150651 236.63675239 64.58129883 233.11669922 C60.92649867 229.47849051 57.25122484 225.86171761 53.57085705 222.24940109 C50.74628021 219.46952182 47.93734546 216.67423355 45.13247108 213.87448883 C43.7838527 212.53378018 42.42934634 211.19896774 41.06896019 209.87020111 C39.17001396 208.0125312 37.29425377 206.13414028 35.42260742 204.24902344 C34.85490128 203.70334213 34.28719513 203.15766083 33.70228577 202.59544373 C32.16862488 201.02386475 32.16862488 201.02386475 30 198 C30.09101868 194.83843994 30.09101868 194.83843994 31 192 C31.36996094 190.79085937 31.73992187 189.58171875 32.12109375 188.3359375 C32.55942194 187.0154676 32.99824341 185.69516136 33.4375 184.375 C42.38349785 156.13189266 38.58919832 128.20695642 26.1875 101.75 C22.82543199 95.28852554 18.58722666 89.63814648 14 84 C13.31164062 83.14535156 12.62328125 82.29070312 11.9140625 81.41015625 C-4.76001877 61.79176695 -30.24757419 48.16549665 -56 46 C-74.05511322 44.88165162 -91.00835723 46.11634154 -107.73828125 53.36328125 C-110.62519751 54.17600552 -112.12816948 53.86521666 -115 53 C-117.27168274 51.22279358 -117.27168274 51.22279358 -119.60668945 48.87915039 C-120.48722488 48.00476822 -121.36776031 47.13038605 -122.27497864 46.22950745 C-123.22144396 45.26924946 -124.16753614 44.30862357 -125.11328125 43.34765625 C-126.09189556 42.36665672 -127.07125145 41.38639646 -128.05131531 40.40684509 C-130.09915351 38.35588372 -132.14011114 36.29839277 -134.17602539 34.2355957 C-136.78984779 31.58770436 -139.41673437 28.95326093 -142.04839802 26.32311344 C-144.06924126 24.30172739 -146.08483808 22.27517931 -148.09868431 20.24682426 C-149.06596499 19.27316804 -150.03447167 18.30072824 -151.0042057 17.32951546 C-152.35462142 15.97478004 -153.69764744 14.61269043 -155.0402832 13.25024414 C-155.80685745 12.4760463 -156.5734317 11.70184845 -157.36323547 10.90419006 C-159 9 -159 9 -159 7 C-107.28970225 -9.98642416 -53.03888128 -13.05658673 0 0 Z " fill="#000000" transform="translate(324,104)"/>
<path d="M0 0 C14.55945838 10.89328658 24.82044307 26.38265875 28.5390625 44.25390625 C29.66873196 53.434864 30.29652741 63.9620534 28 73 C24.94858607 71.63554199 22.84202098 70.09295263 20.48187256 67.73583984 C19.46392609 66.72635284 19.46392609 66.72635284 18.42541504 65.69647217 C17.69173706 64.95874573 16.95805908 64.22101929 16.20214844 63.4609375 C15.42127869 62.68357239 14.64040894 61.90620728 13.83587646 61.10528564 C11.25531995 58.53353454 8.68215078 55.95453325 6.109375 53.375 C4.32176507 51.58873678 2.53385829 49.80277058 0.7456665 48.01708984 C-2.99996874 44.27440402 -6.74205426 40.52821778 -10.48144531 36.77929688 C-14.80847416 32.4413683 -19.14268249 28.11071321 -23.48065972 23.78373528 C-27.65204637 19.62250355 -31.81781312 15.45568125 -35.98119354 11.28643799 C-37.75482922 9.51146411 -39.52996285 7.73798581 -41.30658722 5.96600342 C-43.78249268 3.49514974 -46.25194188 1.01802322 -48.71972656 -1.4609375 C-49.46150146 -2.19866394 -50.20327637 -2.93639038 -50.9675293 -3.69647217 C-51.63488098 -4.3694635 -52.30223267 -5.04245483 -52.98980713 -5.73583984 C-53.57455936 -6.32134613 -54.1593116 -6.90685242 -54.7617836 -7.51010132 C-56 -9 -56 -9 -56 -11 C-37.02032791 -15.75458181 -15.9246324 -10.87449053 0 0 Z " fill="#000000" transform="translate(297,198)"/>
</svg>
