<svg width="138" height="79" viewBox="0 0 138 79" fill="none" xmlns="http://www.w3.org/2000/svg">
<path d="M6.768 48.384C5.776 48.384 5.008 48.112 4.464 47.568C3.952 46.992 3.696 46.208 3.696 45.216V16.944C3.696 15.92 3.952 15.136 4.464 14.592C5.008 14.048 5.776 13.776 6.768 13.776C7.76 13.776 8.512 14.048 9.024 14.592C9.568 15.136 9.84 15.92 9.84 16.944V28.272H27.264V16.944C27.264 15.92 27.52 15.136 28.032 14.592C28.576 14.048 29.344 13.776 30.336 13.776C31.328 13.776 32.08 14.048 32.592 14.592C33.136 15.136 33.408 15.92 33.408 16.944V45.216C33.408 46.208 33.136 46.992 32.592 47.568C32.08 48.112 31.328 48.384 30.336 48.384C29.344 48.384 28.576 48.112 28.032 47.568C27.52 46.992 27.264 46.208 27.264 45.216V33.408H9.84V45.216C9.84 46.208 9.584 46.992 9.072 47.568C8.56 48.112 7.792 48.384 6.768 48.384ZM47.973 48.48C46.277 48.48 44.757 48.16 43.413 47.52C42.101 46.848 41.061 45.952 40.293 44.832C39.557 43.712 39.189 42.448 39.189 41.04C39.189 39.312 39.637 37.952 40.533 36.96C41.429 35.936 42.885 35.2 44.901 34.752C46.917 34.304 49.621 34.08 53.013 34.08H55.413V37.536H53.061C51.077 37.536 49.493 37.632 48.309 37.824C47.125 38.016 46.277 38.352 45.765 38.832C45.285 39.28 45.045 39.92 45.045 40.752C45.045 41.808 45.413 42.672 46.149 43.344C46.885 44.016 47.909 44.352 49.221 44.352C50.277 44.352 51.205 44.112 52.005 43.632C52.837 43.12 53.493 42.432 53.973 41.568C54.453 40.704 54.693 39.712 54.693 38.592V33.072C54.693 31.472 54.341 30.32 53.637 29.616C52.933 28.912 51.749 28.56 50.085 28.56C49.157 28.56 48.149 28.672 47.061 28.896C46.005 29.12 44.885 29.504 43.701 30.048C43.093 30.336 42.549 30.416 42.069 30.288C41.621 30.16 41.269 29.904 41.013 29.52C40.757 29.104 40.629 28.656 40.629 28.176C40.629 27.696 40.757 27.232 41.013 26.784C41.269 26.304 41.701 25.952 42.309 25.728C43.781 25.12 45.189 24.688 46.533 24.432C47.909 24.176 49.157 24.048 50.277 24.048C52.581 24.048 54.469 24.4 55.941 25.104C57.445 25.808 58.565 26.88 59.301 28.32C60.037 29.728 60.405 31.552 60.405 33.792V45.312C60.405 46.304 60.165 47.072 59.685 47.616C59.205 48.128 58.517 48.384 57.621 48.384C56.725 48.384 56.021 48.128 55.509 47.616C55.029 47.072 54.789 46.304 54.789 45.312V43.008H55.173C54.949 44.128 54.501 45.104 53.829 45.936C53.189 46.736 52.373 47.36 51.381 47.808C50.389 48.256 49.253 48.48 47.973 48.48ZM69.567 48.384C68.575 48.384 67.807 48.128 67.263 47.616C66.751 47.072 66.495 46.304 66.495 45.312V27.168C66.495 26.176 66.751 25.424 67.263 24.912C67.775 24.4 68.495 24.144 69.423 24.144C70.351 24.144 71.071 24.4 71.583 24.912C72.095 25.424 72.351 26.176 72.351 27.168V30.192H71.871C72.319 28.272 73.199 26.816 74.511 25.824C75.823 24.832 77.567 24.24 79.743 24.048C80.415 23.984 80.943 24.16 81.327 24.576C81.743 24.96 81.983 25.568 82.047 26.4C82.111 27.2 81.919 27.856 81.471 28.368C81.055 28.848 80.415 29.136 79.551 29.232L78.495 29.328C76.543 29.52 75.071 30.128 74.079 31.152C73.087 32.144 72.591 33.552 72.591 35.376V45.312C72.591 46.304 72.335 47.072 71.823 47.616C71.311 48.128 70.559 48.384 69.567 48.384Z" fill="#0A68FF"/>
<path d="M98.8279 48.48C96.8439 48.48 95.0999 47.984 93.5959 46.992C92.1239 46 91.1479 44.672 90.6679 43.008L91.1959 41.808V45.312C91.1959 46.304 90.9399 47.072 90.4279 47.616C89.9159 48.128 89.1959 48.384 88.2679 48.384C87.3079 48.384 86.5719 48.128 86.0599 47.616C85.5479 47.072 85.2919 46.304 85.2919 45.312V16.8C85.2919 15.808 85.5479 15.056 86.0599 14.544C86.5719 14.032 87.3079 13.776 88.2679 13.776C89.2279 13.776 89.9639 14.032 90.4759 14.544C91.0199 15.056 91.2919 15.808 91.2919 16.8V29.28H90.7159C91.2279 27.712 92.2199 26.448 93.6919 25.488C95.1639 24.528 96.8759 24.048 98.8279 24.048C100.908 24.048 102.716 24.544 104.252 25.536C105.788 26.528 106.988 27.936 107.852 29.76C108.716 31.552 109.148 33.712 109.148 36.24C109.148 38.736 108.716 40.912 107.852 42.768C106.988 44.592 105.772 46 104.204 46.992C102.668 47.984 100.876 48.48 98.8279 48.48ZM97.1479 43.92C98.3319 43.92 99.3719 43.632 100.268 43.056C101.164 42.48 101.852 41.632 102.332 40.512C102.844 39.36 103.1 37.936 103.1 36.24C103.1 33.68 102.556 31.776 101.468 30.528C100.38 29.248 98.9399 28.608 97.1479 28.608C95.9639 28.608 94.9239 28.896 94.0279 29.472C93.1319 30.016 92.4279 30.864 91.9159 32.016C91.4359 33.136 91.1959 34.544 91.1959 36.24C91.1959 38.768 91.7399 40.688 92.8279 42C93.9159 43.28 95.3559 43.92 97.1479 43.92ZM125.641 48.48C122.985 48.48 120.697 47.984 118.777 46.992C116.857 46 115.369 44.592 114.313 42.768C113.289 40.944 112.777 38.784 112.777 36.288C112.777 33.856 113.273 31.728 114.265 29.904C115.289 28.08 116.681 26.656 118.441 25.632C120.233 24.576 122.265 24.048 124.537 24.048C126.201 24.048 127.689 24.32 129.001 24.864C130.345 25.408 131.481 26.192 132.409 27.216C133.369 28.24 134.089 29.488 134.569 30.96C135.081 32.4 135.337 34.032 135.337 35.856C135.337 36.432 135.129 36.88 134.713 37.2C134.329 37.488 133.769 37.632 133.033 37.632H117.625V34.176H131.113L130.345 34.896C130.345 33.424 130.121 32.192 129.673 31.2C129.257 30.208 128.633 29.456 127.801 28.944C127.001 28.4 125.993 28.128 124.777 28.128C123.433 28.128 122.281 28.448 121.321 29.088C120.393 29.696 119.673 30.576 119.161 31.728C118.681 32.848 118.441 34.192 118.441 35.76V36.096C118.441 38.72 119.049 40.688 120.265 42C121.513 43.28 123.337 43.92 125.737 43.92C126.569 43.92 127.497 43.824 128.521 43.632C129.577 43.408 130.569 43.04 131.497 42.528C132.169 42.144 132.761 41.984 133.273 42.048C133.785 42.08 134.185 42.256 134.473 42.576C134.793 42.896 134.985 43.296 135.049 43.776C135.113 44.224 135.017 44.688 134.761 45.168C134.537 45.648 134.137 46.064 133.561 46.416C132.441 47.12 131.145 47.648 129.673 48C128.233 48.32 126.889 48.48 125.641 48.48Z" fill="#EAB308"/>
<path d="M26.0786 73.128C25.7479 73.128 25.4919 73.0373 25.3106 72.856C25.1399 72.664 25.0546 72.4027 25.0546 72.072V63.432H21.9346C21.6573 63.432 21.4386 63.3573 21.2786 63.208C21.1293 63.048 21.0546 62.8347 21.0546 62.568C21.0546 62.2907 21.1293 62.0827 21.2786 61.944C21.4386 61.7947 21.6573 61.72 21.9346 61.72H30.2226C30.4999 61.72 30.7133 61.7947 30.8626 61.944C31.0226 62.0827 31.1026 62.2907 31.1026 62.568C31.1026 62.8347 31.0226 63.048 30.8626 63.208C30.7133 63.3573 30.4999 63.432 30.2226 63.432H27.1026V72.072C27.1026 72.4027 27.0173 72.664 26.8466 72.856C26.6759 73.0373 26.4199 73.128 26.0786 73.128ZM34.3981 73.16C33.5874 73.16 32.8834 72.9947 32.2861 72.664C31.6888 72.3333 31.2248 71.864 30.8941 71.256C30.5634 70.6373 30.3981 69.912 30.3981 69.08C30.3981 68.4507 30.4888 67.8907 30.6701 67.4C30.8621 66.8987 31.1341 66.472 31.4861 66.12C31.8381 65.7573 32.2594 65.4853 32.7501 65.304C33.2408 65.112 33.7901 65.016 34.3981 65.016C35.2088 65.016 35.9128 65.1813 36.5101 65.512C37.1074 65.8427 37.5714 66.312 37.9021 66.92C38.2328 67.528 38.3981 68.248 38.3981 69.08C38.3981 69.7093 38.3021 70.2747 38.1101 70.776C37.9288 71.2773 37.6621 71.7093 37.3101 72.072C36.9581 72.424 36.5368 72.696 36.0461 72.888C35.5554 73.0693 35.0061 73.16 34.3981 73.16ZM34.3981 71.64C34.7928 71.64 35.1394 71.544 35.4381 71.352C35.7368 71.16 35.9661 70.8773 36.1261 70.504C36.2968 70.12 36.3821 69.6453 36.3821 69.08C36.3821 68.2267 36.2008 67.592 35.8381 67.176C35.4754 66.7493 34.9954 66.536 34.3981 66.536C34.0034 66.536 33.6568 66.632 33.3581 66.824C33.0594 67.0053 32.8248 67.288 32.6541 67.672C32.4941 68.0453 32.4141 68.5147 32.4141 69.08C32.4141 69.9227 32.5954 70.5627 32.9581 71C33.3208 71.4267 33.8008 71.64 34.3981 71.64ZM33.1021 64.072C32.9741 64.2107 32.8354 64.2907 32.6861 64.312C32.5474 64.3333 32.4194 64.3067 32.3021 64.232C32.1954 64.1573 32.1261 64.056 32.0941 63.928C32.0621 63.7893 32.0994 63.64 32.2061 63.48L33.2461 61.928C33.4061 61.6933 33.5768 61.5333 33.7581 61.448C33.9501 61.352 34.1634 61.304 34.3981 61.304C34.5581 61.304 34.7074 61.3253 34.8461 61.368C34.9848 61.4 35.1128 61.464 35.2301 61.56C35.3474 61.6453 35.4541 61.768 35.5501 61.928L36.5901 63.48C36.6968 63.64 36.7341 63.7893 36.7021 63.928C36.6808 64.056 36.6168 64.1573 36.5101 64.232C36.4034 64.3067 36.2754 64.3333 36.1261 64.312C35.9768 64.2907 35.8381 64.2107 35.7101 64.072L34.3981 62.616L33.1021 64.072ZM37.1981 62.536C37.1021 62.664 36.9901 62.7387 36.8621 62.76C36.7341 62.7707 36.6168 62.744 36.5101 62.68C36.4141 62.616 36.3501 62.5253 36.3181 62.408C36.2861 62.28 36.3128 62.136 36.3981 61.976L37.3901 60.216C37.4861 60.0453 37.6034 59.9387 37.7421 59.896C37.8808 59.8427 38.0194 59.8373 38.1581 59.88C38.2968 59.912 38.4088 59.9813 38.4941 60.088C38.5901 60.184 38.6434 60.3067 38.6541 60.456C38.6648 60.5947 38.6114 60.7387 38.4941 60.888L37.1981 62.536ZM43.5547 73.16C42.8614 73.16 42.2801 73.0427 41.8107 72.808C41.3521 72.5733 41.0107 72.232 40.7867 71.784C40.5627 71.3253 40.4507 70.76 40.4507 70.088V66.68H39.6187C39.3627 66.68 39.1654 66.616 39.0267 66.488C38.8881 66.3493 38.8187 66.1627 38.8187 65.928C38.8187 65.6827 38.8881 65.496 39.0267 65.368C39.1654 65.24 39.3627 65.176 39.6187 65.176H40.4507V63.72C40.4507 63.3893 40.5361 63.1387 40.7067 62.968C40.8881 62.7973 41.1387 62.712 41.4587 62.712C41.7787 62.712 42.0241 62.7973 42.1947 62.968C42.3654 63.1387 42.4507 63.3893 42.4507 63.72V65.176H44.1467C44.4027 65.176 44.6001 65.24 44.7387 65.368C44.8774 65.496 44.9467 65.6827 44.9467 65.928C44.9467 66.1627 44.8774 66.3493 44.7387 66.488C44.6001 66.616 44.4027 66.68 44.1467 66.68H42.4507V69.976C42.4507 70.488 42.5627 70.872 42.7867 71.128C43.0107 71.384 43.3734 71.512 43.8747 71.512C44.0561 71.512 44.2161 71.496 44.3547 71.464C44.4934 71.432 44.6161 71.4107 44.7227 71.4C44.8507 71.3893 44.9574 71.432 45.0427 71.528C45.1281 71.6133 45.1707 71.7947 45.1707 72.072C45.1707 72.2853 45.1334 72.4773 45.0587 72.648C44.9947 72.808 44.8721 72.92 44.6907 72.984C44.5521 73.0267 44.3707 73.064 44.1467 73.096C43.9227 73.1387 43.7254 73.16 43.5547 73.16ZM54.2311 73.16C53.4311 73.16 52.7378 73.032 52.1511 72.776C51.5644 72.52 51.1111 72.168 50.7911 71.72C50.4818 71.2613 50.3271 70.728 50.3271 70.12C50.3271 69.7573 50.3751 69.4213 50.4711 69.112C50.5778 68.792 50.7271 68.4987 50.9191 68.232C51.1218 67.9547 51.3618 67.6987 51.6391 67.464C51.9271 67.2187 52.2524 66.9893 52.6151 66.776L53.1591 66.456L52.8711 66.888C52.4018 66.4187 52.0604 65.976 51.8471 65.56C51.6444 65.1333 51.5431 64.696 51.5431 64.248C51.5431 63.7147 51.6711 63.2453 51.9271 62.84C52.1831 62.4347 52.5458 62.12 53.0151 61.896C53.4844 61.672 54.0338 61.56 54.6631 61.56C55.5378 61.56 56.2311 61.784 56.7431 62.232C57.2551 62.6693 57.5111 63.2667 57.5111 64.024C57.5111 64.4293 57.4311 64.8133 57.2711 65.176C57.1111 65.5387 56.8551 65.8853 56.5031 66.216C56.1511 66.5467 55.6818 66.872 55.0951 67.192L55.1111 66.712L57.8311 69.608H57.3991C57.5378 69.3733 57.6604 69.1173 57.7671 68.84C57.8738 68.552 57.9644 68.248 58.0391 67.928C58.1244 67.5973 58.1884 67.256 58.2311 66.904C58.2738 66.6373 58.3644 66.44 58.5031 66.312C58.6418 66.1733 58.8391 66.104 59.0951 66.104C59.3724 66.104 59.5804 66.184 59.7191 66.344C59.8578 66.4933 59.9111 66.712 59.8791 67C59.8258 67.5013 59.7351 67.9813 59.6071 68.44C59.4898 68.888 59.3404 69.3093 59.1591 69.704C58.9778 70.088 58.7751 70.4453 58.5511 70.776L58.5351 70.28L60.0551 71.816C60.2578 72.0187 60.3591 72.2213 60.3591 72.424C60.3591 72.6267 60.2791 72.7973 60.1191 72.936C59.9698 73.064 59.7618 73.128 59.4951 73.128C59.2604 73.128 59.0684 73.0853 58.9191 73C58.7698 72.904 58.6044 72.7653 58.4231 72.584L57.4311 71.544H57.8951C57.4258 72.0453 56.8711 72.44 56.2311 72.728C55.6018 73.016 54.9351 73.16 54.2311 73.16ZM54.3431 71.576C54.8551 71.576 55.3084 71.48 55.7031 71.288C56.1084 71.0853 56.4764 70.7867 56.8071 70.392L56.7591 70.904L53.4631 67.496L54.2951 67.576L53.8311 67.848C53.4684 68.0613 53.1751 68.2747 52.9511 68.488C52.7271 68.6907 52.5618 68.9147 52.4551 69.16C52.3591 69.3947 52.3111 69.6613 52.3111 69.96C52.3111 70.4613 52.4871 70.856 52.8391 71.144C53.1911 71.432 53.6924 71.576 54.3431 71.576ZM54.6631 62.984C54.2791 62.984 53.9698 63.096 53.7351 63.32C53.5004 63.5333 53.3831 63.8267 53.3831 64.2C53.3831 64.4027 53.4151 64.5947 53.4791 64.776C53.5431 64.9467 53.6551 65.1387 53.8151 65.352C53.9751 65.5547 54.1938 65.8053 54.4711 66.104L54.0231 66.072C54.4711 65.816 54.8231 65.5867 55.0791 65.384C55.3458 65.1813 55.5378 64.9787 55.6551 64.776C55.7724 64.5733 55.8311 64.3493 55.8311 64.104C55.8311 63.7413 55.7244 63.464 55.5111 63.272C55.2978 63.08 55.0151 62.984 54.6631 62.984ZM67.5602 73.128C67.2509 73.128 67.0109 73.0427 66.8402 72.872C66.6802 72.7013 66.6002 72.456 66.6002 72.136V62.616C66.6002 62.2853 66.6802 62.0347 66.8402 61.864C67.0109 61.6827 67.2296 61.592 67.4962 61.592C67.7416 61.592 67.9229 61.64 68.0402 61.736C68.1682 61.8213 68.3176 61.9707 68.4882 62.184L74.6162 70.136H74.2002V62.568C74.2002 62.2587 74.2802 62.0187 74.4402 61.848C74.6109 61.6773 74.8509 61.592 75.1602 61.592C75.4696 61.592 75.7042 61.6773 75.8642 61.848C76.0242 62.0187 76.1042 62.2587 76.1042 62.568V72.168C76.1042 72.4667 76.0296 72.7013 75.8802 72.872C75.7309 73.0427 75.5282 73.128 75.2722 73.128C75.0269 73.128 74.8296 73.08 74.6802 72.984C74.5416 72.888 74.3869 72.7333 74.2162 72.52L68.1042 64.568H68.5042V72.136C68.5042 72.456 68.4242 72.7013 68.2642 72.872C68.1042 73.0427 67.8696 73.128 67.5602 73.128ZM79.369 73.128C79.049 73.128 78.8036 73.0427 78.633 72.872C78.4623 72.6907 78.377 72.4347 78.377 72.104V62.6C78.377 62.2693 78.4623 62.0187 78.633 61.848C78.8036 61.6773 79.049 61.592 79.369 61.592C79.689 61.592 79.9343 61.6773 80.105 61.848C80.2863 62.0187 80.377 62.2693 80.377 62.6V66.744H80.153C80.3876 66.1787 80.7503 65.752 81.241 65.464C81.7423 65.1653 82.3076 65.016 82.937 65.016C83.5663 65.016 84.0836 65.1333 84.489 65.368C84.8943 65.6027 85.1983 65.96 85.401 66.44C85.6036 66.9093 85.705 67.5067 85.705 68.232V72.104C85.705 72.4347 85.6196 72.6907 85.449 72.872C85.2783 73.0427 85.033 73.128 84.713 73.128C84.393 73.128 84.1423 73.0427 83.961 72.872C83.7903 72.6907 83.705 72.4347 83.705 72.104V68.328C83.705 67.72 83.5876 67.2773 83.353 67C83.129 66.7227 82.777 66.584 82.297 66.584C81.7103 66.584 81.241 66.7707 80.889 67.144C80.5476 67.5067 80.377 67.992 80.377 68.6V72.104C80.377 72.7867 80.041 73.128 79.369 73.128ZM90.3124 73.16C89.747 73.16 89.2404 73.0533 88.7924 72.84C88.355 72.616 88.0084 72.3173 87.7524 71.944C87.507 71.5707 87.3844 71.1493 87.3844 70.68C87.3844 70.104 87.5337 69.6507 87.8324 69.32C88.131 68.9787 88.6164 68.7333 89.2884 68.584C89.9604 68.4347 90.8617 68.36 91.9924 68.36H92.7924V69.512H92.0084C91.347 69.512 90.819 69.544 90.4244 69.608C90.0297 69.672 89.747 69.784 89.5764 69.944C89.4164 70.0933 89.3364 70.3067 89.3364 70.584C89.3364 70.936 89.459 71.224 89.7044 71.448C89.9497 71.672 90.291 71.784 90.7284 71.784C91.0804 71.784 91.3897 71.704 91.6564 71.544C91.9337 71.3733 92.1524 71.144 92.3124 70.856C92.4724 70.568 92.5524 70.2373 92.5524 69.864V68.024C92.5524 67.4907 92.435 67.1067 92.2004 66.872C91.9657 66.6373 91.571 66.52 91.0164 66.52C90.707 66.52 90.371 66.5573 90.0084 66.632C89.6564 66.7067 89.283 66.8347 88.8884 67.016C88.6857 67.112 88.5044 67.1387 88.3444 67.096C88.195 67.0533 88.0777 66.968 87.9924 66.84C87.907 66.7013 87.8644 66.552 87.8644 66.392C87.8644 66.232 87.907 66.0773 87.9924 65.928C88.0777 65.768 88.2217 65.6507 88.4244 65.576C88.915 65.3733 89.3844 65.2293 89.8324 65.144C90.291 65.0587 90.707 65.016 91.0804 65.016C91.8484 65.016 92.4777 65.1333 92.9684 65.368C93.4697 65.6027 93.843 65.96 94.0884 66.44C94.3337 66.9093 94.4564 67.5173 94.4564 68.264V72.104C94.4564 72.4347 94.3764 72.6907 94.2164 72.872C94.0564 73.0427 93.827 73.128 93.5284 73.128C93.2297 73.128 92.995 73.0427 92.8244 72.872C92.6644 72.6907 92.5844 72.4347 92.5844 72.104V71.336H92.7124C92.6377 71.7093 92.4884 72.0347 92.2644 72.312C92.051 72.5787 91.779 72.7867 91.4484 72.936C91.1177 73.0853 90.739 73.16 90.3124 73.16ZM97.4784 73.128C97.1584 73.128 96.913 73.0427 96.7424 72.872C96.5717 72.6907 96.4864 72.4347 96.4864 72.104V66.056C96.4864 65.7253 96.5717 65.4747 96.7424 65.304C96.913 65.1333 97.153 65.048 97.4624 65.048C97.7717 65.048 98.0117 65.1333 98.1824 65.304C98.353 65.4747 98.4384 65.7253 98.4384 66.056V67.144L98.2624 66.744C98.497 66.1787 98.8597 65.752 99.3504 65.464C99.8517 65.1653 100.417 65.016 101.046 65.016C101.676 65.016 102.193 65.1333 102.598 65.368C103.004 65.6027 103.308 65.96 103.51 66.44C103.713 66.9093 103.814 67.5067 103.814 68.232V72.104C103.814 72.4347 103.729 72.6907 103.558 72.872C103.388 73.0427 103.142 73.128 102.822 73.128C102.502 73.128 102.252 73.0427 102.07 72.872C101.9 72.6907 101.814 72.4347 101.814 72.104V68.328C101.814 67.72 101.697 67.2773 101.462 67C101.238 66.7227 100.886 66.584 100.406 66.584C99.8197 66.584 99.3504 66.7707 98.9984 67.144C98.657 67.5067 98.4864 67.992 98.4864 68.6V72.104C98.4864 72.7867 98.1504 73.128 97.4784 73.128ZM106.838 73.128C106.518 73.128 106.272 73.0427 106.102 72.872C105.931 72.6907 105.846 72.4347 105.846 72.104V62.6C105.846 62.2693 105.931 62.0187 106.102 61.848C106.272 61.6773 106.518 61.592 106.838 61.592C107.158 61.592 107.403 61.6773 107.574 61.848C107.755 62.0187 107.846 62.2693 107.846 62.6V66.744H107.622C107.856 66.1787 108.219 65.752 108.71 65.464C109.211 65.1653 109.776 65.016 110.406 65.016C111.035 65.016 111.552 65.1333 111.958 65.368C112.363 65.6027 112.667 65.96 112.87 66.44C113.072 66.9093 113.174 67.5067 113.174 68.232V72.104C113.174 72.4347 113.088 72.6907 112.918 72.872C112.747 73.0427 112.502 73.128 112.182 73.128C111.862 73.128 111.611 73.0427 111.43 72.872C111.259 72.6907 111.174 72.4347 111.174 72.104V68.328C111.174 67.72 111.056 67.2773 110.822 67C110.598 66.7227 110.246 66.584 109.766 66.584C109.179 66.584 108.71 66.7707 108.358 67.144C108.016 67.5067 107.846 67.992 107.846 68.6V72.104C107.846 72.7867 107.51 73.128 106.838 73.128Z" fill="#0A68FF"/>
</svg>
