<svg width="14" height="14" viewBox="0 0 14 14" fill="none" xmlns="http://www.w3.org/2000/svg">
<g clip-path="url(#clip0_14_577)">
<path d="M7.58444 0.444541C7.79472 0.596287 7.91204 0.792792 8.02397 1.02218C8.03759 1.04955 8.05121 1.07692 8.06525 1.10512C8.10861 1.19242 8.15158 1.2799 8.19455 1.36739C8.22285 1.42444 8.25117 1.48148 8.27952 1.5385C8.42839 1.83866 8.57431 2.14015 8.71843 2.44261C8.85249 2.72358 8.9892 3.00321 9.12756 3.28209C9.15654 3.34064 9.18537 3.39925 9.21408 3.45793C9.25638 3.54435 9.2991 3.63055 9.34192 3.71671C9.35462 3.74288 9.36733 3.76906 9.38042 3.79602C9.39258 3.82026 9.40474 3.8445 9.41726 3.86947C9.42771 3.89065 9.43816 3.91183 9.44892 3.93364C9.51813 4.03702 9.59041 4.09155 9.7098 4.12685C9.759 4.135 9.759 4.135 9.80919 4.14332C9.82794 4.1465 9.8467 4.14969 9.86602 4.15297C9.93142 4.16383 9.99691 4.17389 10.0625 4.1838C10.0871 4.18756 10.1117 4.19132 10.137 4.1952C10.3098 4.22142 10.4827 4.24639 10.6557 4.27099C10.7537 4.28493 10.8517 4.299 10.9497 4.31311C11.2279 4.35316 11.5062 4.39299 11.7845 4.4327C11.9556 4.45711 12.1266 4.4817 12.2977 4.50638C12.3624 4.51569 12.4272 4.52493 12.4919 4.53411C12.5826 4.54696 12.6732 4.56002 12.7639 4.57313C12.7901 4.57679 12.8164 4.58046 12.8434 4.58424C13.2176 4.63897 13.5746 4.71245 13.8212 5.02334C14.02 5.32002 14.0516 5.64353 13.9837 5.98913C13.8714 6.31876 13.5167 6.5854 13.2758 6.8256C13.2189 6.88237 13.1621 6.93927 13.1054 6.9962C13.0686 7.03297 13.0318 7.06973 12.995 7.10648C12.9783 7.12318 12.9617 7.13987 12.9446 7.15707C12.8612 7.23995 12.7765 7.31967 12.6875 7.39651C12.5798 7.48971 12.479 7.5884 12.379 7.68978C12.361 7.70787 12.343 7.72596 12.3245 7.7446C12.2677 7.80174 12.211 7.85897 12.1543 7.91622C12.0794 7.99178 12.0045 8.06725 11.9295 8.14266C11.9044 8.16809 11.9044 8.16809 11.8788 8.19403C11.7763 8.29712 11.6704 8.3946 11.5602 8.48942C11.4933 8.54736 11.4296 8.60795 11.3664 8.66988C11.344 8.69163 11.3215 8.71338 11.2984 8.73578C11.1648 8.8893 11.1445 9.01639 11.1562 9.21505C11.1691 9.32193 11.1873 9.42763 11.206 9.53363C11.2139 9.58002 11.2139 9.58002 11.222 9.62736C11.2394 9.729 11.2572 9.83059 11.2749 9.93218C11.2871 10.0031 11.2993 10.074 11.3115 10.1449C11.3402 10.3123 11.3692 10.4795 11.3982 10.6468C11.4408 10.8921 11.4831 11.1375 11.5254 11.3828C11.5557 11.5589 11.5861 11.735 11.6166 11.9111C11.6222 11.9435 11.6278 11.9759 11.6336 12.0093C11.644 12.0696 11.6545 12.1299 11.665 12.1902C11.7337 12.5875 11.7866 12.9242 11.5579 13.2795C11.3763 13.5325 11.1345 13.6733 10.8281 13.7268C10.486 13.7694 10.165 13.5967 9.87277 13.4397C9.8402 13.4224 9.80762 13.4053 9.77503 13.3881C9.56012 13.2745 9.34701 13.1577 9.13423 13.0402C8.86387 12.892 8.58889 12.7528 8.31427 12.6127C8.02518 12.4652 7.73777 12.3158 7.45509 12.1563C7.19254 12.0024 7.19254 12.0024 6.8966 11.9854C6.76233 12.0268 6.64106 12.0962 6.51804 12.163C6.48777 12.1791 6.45751 12.1952 6.42633 12.2118C6.21569 12.3241 6.00651 12.4391 5.79744 12.5543C5.5149 12.709 5.22781 12.8549 4.9411 13.0017C4.90022 13.0227 4.85934 13.0436 4.81845 13.0645C4.79869 13.0747 4.77892 13.0848 4.75856 13.0952C4.60561 13.1736 4.45334 13.2532 4.30148 13.3337C4.24414 13.3639 4.18678 13.3941 4.1294 13.4243C4.09118 13.4444 4.05299 13.4645 4.01481 13.4847C3.65322 13.6749 3.37506 13.781 2.96121 13.6817C2.69196 13.5894 2.48971 13.3845 2.35474 13.1382C2.24224 12.8889 2.25853 12.6359 2.30455 12.3726C2.30829 12.3504 2.31202 12.3282 2.31587 12.3053C2.32823 12.232 2.34084 12.1588 2.35345 12.0856C2.36227 12.0337 2.37108 11.9817 2.37986 11.9297C2.40311 11.7926 2.42657 11.6554 2.45007 11.5183C2.47333 11.3824 2.49637 11.2465 2.51944 11.1106C2.53759 11.0038 2.55575 10.897 2.57391 10.7902C2.57838 10.7639 2.58285 10.7377 2.58746 10.7106C2.63023 10.4593 2.67312 10.2081 2.71755 9.95716C2.7332 9.86873 2.74872 9.78028 2.76423 9.69182C2.77478 9.63208 2.78556 9.57238 2.79634 9.51269C2.87198 9.15743 2.87198 9.15743 2.77018 8.82348C2.70318 8.7376 2.62804 8.66171 2.54977 8.58614C2.53384 8.57035 2.51791 8.55456 2.5015 8.53829C2.41958 8.45781 2.33581 8.38052 2.24865 8.30576C2.13687 8.20828 2.03185 8.10547 1.9277 7.99996C1.90911 7.98126 1.89052 7.96257 1.87136 7.9433C1.79284 7.86434 1.71448 7.78521 1.63611 7.7061C1.57842 7.64791 1.52064 7.5898 1.46286 7.5317C1.44554 7.51415 1.42821 7.4966 1.41036 7.47851C1.30832 7.37592 1.20291 7.27936 1.09342 7.1848C0.941567 7.05113 0.799796 6.90606 0.6562 6.76366C0.616335 6.72425 0.576325 6.68499 0.53617 6.64588C0.477472 6.58869 0.419247 6.53105 0.361099 6.4733C0.343352 6.45618 0.325604 6.43905 0.307319 6.4214C0.0735119 6.18651 -0.00945776 5.93467 -0.010498 5.60883C-0.00507815 5.32539 0.0928706 5.09802 0.291458 4.89388C0.668253 4.57685 1.24863 4.57288 1.71683 4.50593C1.81515 4.49187 1.91346 4.47769 2.01176 4.46348C2.25554 4.42827 2.49936 4.39326 2.74317 4.35824C2.95014 4.3285 3.1571 4.29869 3.36405 4.26878C3.46056 4.25486 3.55709 4.24105 3.65363 4.22725C3.71301 4.21868 3.77239 4.2101 3.83177 4.20152C3.8716 4.19587 3.8716 4.19587 3.91224 4.19011C3.98458 4.17959 4.05674 4.16835 4.12888 4.15645C4.15141 4.15279 4.17394 4.14912 4.19715 4.14534C4.32858 4.12058 4.41701 4.09277 4.51169 3.99239C4.55033 3.92967 4.58339 3.87011 4.61531 3.80421C4.62471 3.78547 4.63412 3.76673 4.64381 3.74742C4.67478 3.6855 4.70528 3.62335 4.73578 3.56119C4.75752 3.51748 4.77929 3.47377 4.80108 3.43008C4.85853 3.31472 4.91557 3.19916 4.97254 3.08355C5.02944 2.96829 5.08675 2.85324 5.14401 2.73816C5.37472 2.274 5.60259 1.80863 5.82419 1.34005C5.87554 1.23157 5.92726 1.1233 5.97971 1.01534C5.99086 0.991549 6.00202 0.967757 6.01351 0.943244C6.13352 0.698084 6.30665 0.468145 6.56247 0.355674C6.9157 0.23777 7.2639 0.229716 7.58444 0.444541Z" fill="#FDE047"/>
</g>
<defs>
<clipPath id="clip0_14_577">
<rect width="14" height="14" fill="white"/>
</clipPath>
</defs>
</svg>
