<svg width="24" height="24" viewBox="0 0 24 24" fill="none" xmlns="http://www.w3.org/2000/svg">
<g clip-path="url(#clip0_3_14)">
<path d="M11.9824 -0.0146443C12.0301 -0.0145432 12.0778 -0.0144422 12.127 -0.0143381C12.8118 -0.0120098 13.4836 -0.000249043 14.1562 0.140629C14.2019 0.149942 14.2476 0.159255 14.2947 0.16885C16.1255 0.551825 17.8335 1.28428 19.3125 2.4375C19.3539 2.46905 19.3954 2.50059 19.4381 2.53309C20.1687 3.10032 20.8543 3.77055 21.4219 4.5C21.4582 4.54496 21.4946 4.58992 21.5321 4.63623C23.1508 6.67113 24.0206 9.25537 24.0148 11.8466C24.0146 11.9844 24.0157 12.1221 24.0169 12.2599C24.019 12.8868 23.9625 13.4913 23.8594 14.1094C23.8461 14.1893 23.8461 14.1893 23.8326 14.2709C23.5033 16.1042 22.7073 17.8472 21.5625 19.3125C21.5269 19.3581 21.4913 19.4036 21.4546 19.4506C20.8765 20.1715 20.2296 20.8536 19.5 21.4219C19.4561 21.4577 19.4123 21.4935 19.3671 21.5305C17.8693 22.7298 16.0334 23.5037 14.1562 23.8594C14.1183 23.8671 14.0804 23.8747 14.0413 23.8826C12.6331 24.1578 11.0092 24.1065 9.60937 23.8125C9.53798 23.7978 9.53798 23.7978 9.46515 23.7828C7.72404 23.4129 6.08979 22.658 4.6875 21.5625C4.64194 21.5269 4.59638 21.4913 4.54944 21.4547C3.82852 20.8765 3.14636 20.2296 2.57812 19.5C2.52437 19.4342 2.52437 19.4342 2.46954 19.3671C1.27016 17.8693 0.496263 16.0334 0.140623 14.1563C0.132949 14.1183 0.125275 14.0804 0.117368 14.0413C-0.139019 12.7294 -0.133351 11.1518 0.140623 9.84375C0.149936 9.79806 0.159249 9.75236 0.168844 9.70528C0.64167 7.44492 1.67465 5.35431 3.29146 3.69512C3.37462 3.60976 3.45702 3.52371 3.53943 3.43763C3.87219 3.0937 4.2196 2.78577 4.60345 2.5001C4.68956 2.43597 4.77496 2.37095 4.86035 2.30585C5.25535 2.00744 5.66292 1.74349 6.09375 1.5C6.1233 1.48299 6.15284 1.46597 6.18329 1.44844C7.95274 0.435471 9.95753 -0.0223547 11.9824 -0.0146443ZM4.6875 4.5C4.66418 4.52204 4.64086 4.54408 4.61684 4.56679C4.24156 4.92291 3.9184 5.30435 3.60937 5.71875C3.58944 5.74496 3.56951 5.77117 3.54897 5.79818C3.20884 6.24619 2.93069 6.7198 2.67187 7.21875C2.65356 7.25385 2.63524 7.28895 2.61637 7.32512C1.87281 8.76824 1.52554 10.3507 1.52929 11.9678C1.52934 12.0111 1.52938 12.0543 1.52942 12.0989C1.53802 14.8567 2.64693 17.3814 4.54687 19.3594C4.587 19.4014 4.62712 19.4435 4.66846 19.4868C4.93879 19.764 5.22381 20.0149 5.53125 20.25C5.56147 20.2732 5.59169 20.2963 5.62282 20.3202C6.13059 20.7058 6.6514 21.0376 7.21875 21.3281C7.25358 21.3462 7.2884 21.3644 7.32429 21.383C9.76454 22.6408 12.6379 22.8064 15.24 21.982C16.8091 21.4652 18.1737 20.592 19.3594 19.4531C19.4225 19.3929 19.4225 19.3929 19.4868 19.3315C19.7642 19.061 20.0127 18.775 20.25 18.4688C20.2699 18.4433 20.2897 18.4179 20.3102 18.3917C21.7329 16.5605 22.4762 14.3174 22.4707 12.0059C22.4707 11.9638 22.4706 11.9218 22.4706 11.8784C22.4618 9.12886 21.3436 6.61264 19.4531 4.64063C19.4112 4.59622 19.3693 4.55181 19.326 4.50605C19.0024 4.1715 18.653 3.88743 18.2812 3.60938C18.255 3.58938 18.2287 3.56938 18.2016 3.54877C17.7537 3.20873 17.2801 2.93064 16.7812 2.67188C16.7461 2.65356 16.711 2.63525 16.6749 2.61638C12.7656 0.60212 7.90906 1.42359 4.6875 4.5Z" fill="#6B7280"/>
<path d="M6.60937 14.5313C6.86335 14.6367 6.98072 14.8322 7.12902 15.054C7.99551 16.3431 9.21665 17.2768 10.7515 17.6016C12.2912 17.8972 13.9121 17.6597 15.227 16.7696C15.4082 16.6407 15.5795 16.502 15.75 16.3594C15.7873 16.3297 15.8247 16.3 15.8632 16.2695C16.3208 15.8903 16.664 15.3851 16.9757 14.8839C17.0896 14.7286 17.2182 14.6175 17.3906 14.5313C17.6499 14.5076 17.8786 14.4967 18.1172 14.6074C18.3291 14.8087 18.4342 14.9602 18.46 15.2549C18.4396 15.8405 17.9465 16.3648 17.5781 16.7813C17.5391 16.8265 17.5002 16.8716 17.46 16.9182C16.2421 18.3083 14.4658 19.1638 12.6253 19.3057C10.5869 19.432 8.66241 18.8427 7.11749 17.4972C6.56534 17.0068 5.66944 16.1943 5.5578 15.4219C5.55742 15.1346 5.55799 14.9373 5.76562 14.7188C6.01354 14.4832 6.28556 14.4893 6.60937 14.5313Z" fill="#6B7280"/>
<path d="M8.06817 7.86364C8.36823 8.14443 8.55749 8.45019 8.58929 8.86413C8.60024 9.38411 8.5144 9.75258 8.15295 10.1365C7.77314 10.4817 7.39336 10.5742 6.89153 10.5613C6.5174 10.5403 6.21709 10.3889 5.94488 10.1343C5.62185 9.7449 5.49278 9.30826 5.53124 8.81249C5.61451 8.34394 5.84697 8.01686 6.234 7.74608C6.80323 7.3917 7.54923 7.43358 8.06817 7.86364Z" fill="#6B7280"/>
<path d="M17.9531 7.875C18.2489 8.14206 18.4368 8.51846 18.4799 8.91522C18.4936 9.35421 18.3605 9.746 18.0829 10.0882C17.7587 10.4152 17.3973 10.5595 16.9394 10.5703C16.486 10.5712 16.1322 10.4158 15.7969 10.1074C15.4671 9.74473 15.4041 9.3649 15.409 8.88794C15.441 8.46565 15.634 8.16132 15.9375 7.875C16.5285 7.37011 17.3503 7.40022 17.9531 7.875Z" fill="#6B7280"/>
</g>
<defs>
<clipPath id="clip0_3_14">
<rect width="24" height="24" fill="white"/>
</clipPath>
</defs>
</svg>
