<?xml version="1.0" encoding="UTF-8"?>
<svg version="1.1" xmlns="http://www.w3.org/2000/svg" width="512" height="512">
<path d="M0 0 C1.78142934 -0.00627366 3.56285739 -0.01292124 5.34428406 -0.01991272 C11.16563018 -0.04083265 16.98697622 -0.05129767 22.80834961 -0.0612793 C24.81813508 -0.06533013 26.82792041 -0.06944715 28.83770561 -0.07362938 C38.27447317 -0.09264749 47.71123303 -0.10689055 57.14801604 -0.11524135 C68.0256248 -0.12502816 78.90303087 -0.15139947 89.78056818 -0.19174224 C98.20288739 -0.2219043 106.62514842 -0.23670995 115.04752058 -0.24002236 C120.07236633 -0.24237091 125.09699467 -0.25130764 130.1217823 -0.27648354 C134.84559741 -0.29977359 139.56905196 -0.30399375 144.29290962 -0.29372215 C146.02306824 -0.29322706 147.75324471 -0.29953957 149.48334885 -0.3132782 C165.77370935 -0.43537443 165.77370935 -0.43537443 172.39819336 4.17700195 C177.0412529 9.05816711 177.75547349 13.14400802 177.67944336 19.6730957 C177.12294606 24.62746751 174.37525745 27.31625501 170.77319336 30.48950195 C166.8415182 33.28306062 164.01626708 33.3201261 159.32469177 33.30830383 C158.58768746 33.31041955 157.85068315 33.31253526 157.09134537 33.31471509 C154.60824548 33.32073221 152.12519617 33.31971367 149.64208984 33.31884766 C147.86644402 33.32187834 146.09079898 33.32539954 144.31515503 33.32937622 C140.48193207 33.33727778 136.64871848 33.3424151 132.81548882 33.34566689 C126.74073824 33.35157746 120.66604628 33.36812229 114.59132385 33.38700867 C112.51031784 33.39334685 110.42931179 33.39967246 108.3483057 33.40598583 C106.78447358 33.41073455 106.78447358 33.41073455 105.18904889 33.4155792 C91.04498864 33.45760139 76.90095437 33.49057868 62.75683594 33.50292969 C53.22094796 33.5113423 43.68520388 33.53395786 34.1493879 33.57228535 C29.10797652 33.59195248 24.06677983 33.60448219 19.02532768 33.59945107 C14.26869021 33.59476278 9.51245738 33.60883524 4.75590134 33.63646317 C3.02310451 33.64330757 1.29026523 33.64357562 -0.44252968 33.63626289 C-21.51325765 33.55642291 -40.92138802 37.84458118 -56.46899414 52.98168945 C-57.17282227 53.70614258 -57.87665039 54.4305957 -58.60180664 55.17700195 C-59.22313477 55.77770508 -59.84446289 56.3784082 -60.48461914 56.99731445 C-72.97816681 69.93906114 -77.78473051 87.62136713 -77.72206116 105.18101501 C-77.72334279 106.50693211 -77.72334279 106.50693211 -77.72465032 107.85963541 C-77.72629192 110.80911377 -77.72080542 113.75853473 -77.71533203 116.70800781 C-77.71504985 118.82723998 -77.7152085 120.94647224 -77.71577454 123.06570435 C-77.7160613 128.81098295 -77.71018411 134.55624064 -77.70320058 140.30151439 C-77.69694691 146.30863892 -77.69636165 152.31576395 -77.69517517 158.32289124 C-77.6920678 169.69472983 -77.6838624 181.06655881 -77.67382568 192.43839318 C-77.66264611 205.38631271 -77.65714944 218.33423271 -77.65213025 231.28215587 C-77.64167931 257.91377656 -77.62409135 284.54538872 -77.60180664 311.17700195 C-76.19286456 309.45571974 -74.78403215 307.73434776 -73.37524414 306.01293945 C-72.59068848 305.05436035 -71.80613281 304.09578125 -70.99780273 303.1081543 C-68.73706008 300.34246484 -66.48123247 297.57284101 -64.22680664 294.80200195 C-60.43206146 290.16104182 -56.56985952 285.5815464 -52.68823242 281.01342773 C-49.78960825 277.59679464 -46.93040085 274.15213198 -44.10180664 270.67700195 C-43.37864258 269.7952832 -42.65547852 268.91356445 -41.91040039 268.00512695 C-40.70238943 266.52526243 -39.49588162 265.04406704 -38.30541992 263.55004883 C-27.29888316 249.74134373 -14.62992733 240.43960207 3.27319336 237.55200195 C4.64661747 237.41073547 6.02182194 237.28586749 7.39819336 237.17700195 C8.37852539 237.09579102 8.37852539 237.09579102 9.37866211 237.01293945 C24.48233553 236.38952329 39.34656079 241.58096044 50.71069336 251.48950195 C56.67740415 257.26185734 62.2421116 263.3383496 67.30053711 269.9230957 C67.79432861 270.56480713 68.28812012 271.20651855 68.796875 271.86767578 C69.76801808 273.14010287 70.72976641 274.419765 71.68115234 275.70703125 C72.85223969 277.2509808 74.11885311 278.72149026 75.39819336 280.17700195 C78.57862771 280.51933007 78.57862771 280.51933007 80.78100586 277.9387207 C81.70422178 276.92221992 82.61769824 275.89681976 83.52319336 274.86450195 C84.01182861 274.31979248 84.50046387 273.77508301 85.00390625 273.21386719 C88.81639511 268.92970462 92.42532208 264.49300471 96.01928711 260.0246582 C99.19547906 256.22261562 102.57090158 252.62796443 105.95654297 249.01318359 C109.07373281 245.66600869 112.03393134 242.24695172 114.89819336 238.67700195 C118.76716187 233.85837754 122.87298446 229.32379326 127.09082031 224.81298828 C129.82827862 221.88498356 132.49760345 218.92697493 135.08569336 215.86450195 C145.19846909 204.34851811 158.93994623 195.25390103 174.5949707 194.0012207 C192.48374911 192.99884769 208.43379467 196.17203505 222.33569336 208.23950195 C230.91798299 216.34499771 238.67340824 225.16495094 246.05444336 234.36450195 C248.73027507 237.5755 251.54177612 240.62729332 254.39819336 243.67700195 C258.8365201 248.4156666 262.98961586 253.29819521 267.05444336 258.36450195 C269.73027614 261.57550129 272.54179043 264.62727831 275.39819336 267.67700195 C279.8569378 272.43789189 284.03617166 277.34168016 288.12084961 282.4309082 C291.05332214 285.96697714 294.16794621 289.31902452 297.29711914 292.67919922 C301.20291043 296.89935236 304.84356017 301.30277111 308.42553711 305.80200195 C310.30784076 308.06822101 312.30281074 310.10969588 314.39819336 312.17700195 C314.40177589 311.18805089 314.40177589 311.18805089 314.40543079 310.17912102 C314.46459391 294.12908037 314.54015227 278.07921303 314.63390827 262.02934074 C314.67885376 254.26770257 314.71827127 246.50611015 314.74462891 238.74438477 C314.76761913 231.97843125 314.80102851 225.21262268 314.84689492 218.44678414 C314.87081348 214.86505307 314.88955114 211.28346543 314.89580727 207.70165634 C314.90299055 203.70088024 314.93343713 199.70060268 314.96582031 195.69995117 C314.96438522 194.51527756 314.96295013 193.33060394 314.96147156 192.11003113 C315.03623789 185.58833517 315.29851643 180.57534567 319.89819336 175.5324707 C324.63379011 171.84511802 328.09296298 170.76211759 333.98022461 170.8293457 C339.26861155 171.58971152 343.17323488 174.55689558 346.33569336 178.73950195 C348.3448735 183.34879758 348.52535274 187.27055686 348.53190613 192.30792236 C348.53417168 193.02692333 348.53643724 193.7459243 348.53877145 194.48671317 C348.54510295 196.89683877 348.54428259 199.30690801 348.54345703 201.71704102 C348.54644931 203.44534376 348.549852 205.17364583 348.55363464 206.90194702 C348.56247827 211.60098528 348.56481309 216.30000532 348.56545043 220.99905109 C348.56616147 223.93999991 348.56829697 226.88094411 348.57094765 229.82189178 C348.58020683 240.09781691 348.58428239 250.37372905 348.58349609 260.6496582 C348.58289723 270.19928898 348.59340978 279.74886291 348.60923976 289.29847932 C348.62236914 297.51445601 348.62767764 305.73041427 348.62704068 313.94640136 C348.626787 318.84519048 348.62956529 323.74392923 348.64021873 328.64270782 C348.6499892 333.26216837 348.64991839 337.8815314 348.6427021 342.50099564 C348.64166682 344.1842399 348.64395522 345.86749052 348.65006256 347.55072403 C348.74748707 376.29596848 342.87066221 401.60725618 324.39819336 424.17700195 C323.89803711 424.82926758 323.39788086 425.4815332 322.88256836 426.15356445 C307.10685052 446.00920932 281.29185387 456.95159618 256.75218701 459.96336424 C252.24290958 460.37260566 247.72869924 460.31754725 243.20419312 460.31071472 C241.54266754 460.31411306 241.54266754 460.31411306 239.84757578 460.31758004 C236.1461759 460.32389607 232.44481287 460.32309221 228.7434082 460.32226562 C226.08517318 460.32525865 223.42694101 460.3286334 220.76870728 460.33244324 C214.30272642 460.34073257 207.83675468 460.34349732 201.37076895 460.34405562 C196.11078094 460.34453169 190.85079593 460.34659099 185.59080887 460.34975624 C170.65718409 460.35855892 155.72356648 460.36317634 140.78993909 460.36242577 C139.98567765 460.36238581 139.1814162 460.36234585 138.3527832 460.36230469 C137.54753234 460.36226381 136.74228148 460.36222293 135.91262908 460.36218081 C122.87313278 460.36177467 109.8336654 460.37133698 96.79417746 460.38544305 C83.38512739 460.39983368 69.97609139 460.40671173 56.56703341 460.40584928 C49.04707087 460.40551819 41.52713863 460.4082265 34.00718307 460.41902733 C27.60241656 460.42816786 21.19769409 460.43027866 14.79292385 460.42351791 C11.53041925 460.42027024 8.26801578 460.42123561 5.00551605 460.42887115 C-29.38389956 460.50411157 -57.16856447 453.97840062 -82.90649414 429.92700195 C-102.88465605 409.54348604 -111.7782271 383.06348421 -111.73551941 354.86274719 C-111.73778497 353.75420905 -111.74005052 352.6456709 -111.74238473 351.50354069 C-111.74869265 347.80524687 -111.74789743 344.10699 -111.74707031 340.40869141 C-111.75006382 337.75030888 -111.75343875 335.09192921 -111.75724792 332.43354797 C-111.76553204 325.97104633 -111.76830176 319.50855382 -111.7688603 313.04604731 C-111.76933657 307.78894363 -111.77139682 302.53184295 -111.77456093 297.27474022 C-111.78336172 282.34702359 -111.78798125 267.41931413 -111.78723045 252.49159489 C-111.7871905 251.68789885 -111.78715054 250.88420281 -111.78710938 250.05615234 C-111.78704805 248.84912431 -111.78704805 248.84912431 -111.78698549 247.61771186 C-111.78657928 234.58474566 -111.79614411 221.55180838 -111.81024774 208.51885054 C-111.82463822 195.11428886 -111.83151644 181.70974126 -111.83065397 168.30517167 C-111.8303229 160.78857748 -111.83303023 153.27201361 -111.84383202 145.75542641 C-111.85297229 139.35434391 -111.8550835 132.95330547 -111.84832259 126.55221925 C-111.84507497 123.29173294 -111.84604021 120.03134782 -111.85367584 116.77086639 C-111.92895182 82.3870882 -105.39878321 54.60551194 -81.35180664 28.87231445 C-58.79461551 6.76370383 -30.76307542 0.04773465 0 0 Z M157.08569336 239.73950195 C156.51665283 240.36010498 155.9476123 240.98070801 155.36132812 241.62011719 C151.30437097 246.08042103 147.47414526 250.69218866 143.70678711 255.3996582 C141.04539878 258.60142995 138.2435709 261.63935113 135.39819336 264.67700195 C131.74930887 268.57276477 128.24120898 272.5103448 124.89819336 276.67700195 C121.07696364 281.43969407 117.00622504 285.89298313 112.83520508 290.34545898 C109.75825722 293.64895457 106.84154266 297.02120748 104.02319336 300.55200195 C100.25716657 305.19448588 96.38794908 309.72627419 92.39819336 314.17700195 C91.84083496 314.82459473 91.28347656 315.4721875 90.70922852 316.1394043 C86.51889202 320.73748857 82.53533872 322.99969581 76.39819336 324.17700195 C71.8325334 324.23040148 68.37928775 322.96666329 64.83569336 320.11450195 C63.62913086 318.66043945 63.62913086 318.66043945 62.39819336 317.17700195 C61.14943422 315.80087492 59.89929403 314.42600053 58.64819336 313.05200195 C54.92739056 308.83741037 51.36762786 304.50561904 47.82397461 300.1418457 C44.25729929 295.78257587 40.62347962 291.48245032 36.96459961 287.20043945 C35.42893188 285.39129665 33.90974882 283.5676553 32.42553711 281.71606445 C27.84774271 276.10592006 23.21396362 273.44892537 16.39819336 271.17700195 C6.92298929 270.22948155 -0.04979399 272.10135287 -7.47680664 278.05200195 C-12.12063477 282.35626162 -15.84263915 287.42180301 -19.67993164 292.4309082 C-22.52780483 296.12681901 -25.53815553 299.65934825 -28.60180664 303.17700195 C-32.57076746 307.74641167 -36.39545615 312.39213686 -40.10180664 317.17700195 C-44.3322055 322.63585238 -48.73725605 327.90892335 -53.25537109 333.13134766 C-57.80855554 338.39654661 -62.21508108 343.77249294 -66.60180664 349.17700195 C-68.98501981 352.07358022 -71.36859133 354.96985534 -73.75415039 357.86450195 C-77.30724064 362.31149863 -77.94166253 364.48888759 -77.60180664 370.17700195 C-74.55420584 386.11538627 -66.89507582 398.00207542 -55.60180664 409.17700195 C-55.02946289 409.77125977 -54.45711914 410.36551758 -53.86743164 410.9777832 C-40.63825307 423.62733282 -22.33005513 427.33257366 -4.72460938 427.31744385 C-3.63890341 427.32041497 -2.55319744 427.32338609 -1.43459129 427.32644725 C2.19848019 427.33510925 5.83151862 427.3366404 9.46459961 427.33813477 C12.07180349 427.34276477 14.67900669 427.34778967 17.28620911 427.35317993 C24.36715273 427.36673282 31.44809067 427.37278348 38.5290451 427.37719059 C42.9563153 427.3799587 47.38358332 427.38419713 51.81085205 427.38869476 C64.08502057 427.40088446 76.35918737 427.41118371 88.63336182 427.41456985 C89.81061121 427.4148992 89.81061121 427.4148992 91.01164341 427.41523521 C92.19160719 427.41556262 92.19160719 427.41556262 93.39540863 427.41589665 C94.98927307 427.41634011 96.58313751 427.41678667 98.17700195 427.41723633 C99.36290342 427.41756847 99.36290342 427.41756847 100.57276249 427.41790733 C113.369166 427.42185119 126.16551243 427.43929395 138.96189392 427.46259585 C152.12118462 427.48636375 165.28044675 427.49877421 178.43975925 427.49993777 C185.81950047 427.50085159 193.19916732 427.5065294 200.57888794 427.52475739 C207.52611669 427.54185739 214.47320269 427.5433705 221.4204464 427.53461838 C223.96199611 427.5338505 226.50355353 427.53815761 229.045084 427.54807663 C252.66078709 427.88460024 252.66078709 427.88460024 274.77319336 420.42700195 C275.43963867 420.07702148 276.10608398 419.72704102 276.79272461 419.36645508 C282.11906714 416.49562913 286.90520097 413.24510371 291.39819336 409.17700195 C292.06979492 408.59692383 292.74139648 408.0168457 293.43334961 407.41918945 C305.02257454 396.74549096 312.25173622 381.34602292 313.72241211 365.7355957 C313.31688051 361.28451999 312.09745026 360.03988703 308.96069336 356.92700195 C305.48345363 353.36619541 302.17950998 349.76915156 299.08569336 345.86450195 C295.01070891 340.80863629 290.64587342 336.09512972 286.19799805 331.37133789 C282.15903591 327.05854782 278.40886759 322.57879684 274.71459961 317.96606445 C271.03832839 313.53966033 267.09392964 309.36899083 263.17163086 305.16137695 C258.86713822 300.54346434 254.7550693 295.76938589 250.65991211 290.96606445 C249.63536244 289.76538154 248.6106169 288.56486574 247.58569336 287.36450195 C247.06837646 286.75832031 246.55105957 286.15213867 246.01806641 285.52758789 C242.81317106 281.78629375 239.54610058 278.11584812 236.21069336 274.48950195 C233.03988594 271.03684499 230.01784305 267.52169229 227.08569336 263.86450195 C222.96201049 258.75201413 218.56196778 253.95616445 214.06616211 249.17358398 C211.16417714 246.08594727 208.32507276 242.97410097 205.58569336 239.73950195 C198.44871994 231.58795879 192.27921234 227.14202469 181.33569336 225.80200195 C171.00729378 227.12052105 163.92828899 232.17131703 157.08569336 239.73950195 Z " fill="#2462EB" transform="translate(137.601806640625,25.822998046875)"/>
<path d="M0 0 C3.68807589 2.6217409 5.39998447 6.08667215 6.796875 10.27734375 C6.88442298 11.94955346 6.91453495 13.62506574 6.91040039 15.29956055 C6.91028709 16.83080818 6.91028709 16.83080818 6.91017151 18.39299011 C6.90501022 19.493069 6.89984894 20.59314789 6.89453125 21.7265625 C6.8931163 22.85431595 6.89170135 23.9820694 6.89024353 25.14399719 C6.8846397 28.75097287 6.87208653 32.35788679 6.859375 35.96484375 C6.85436049 38.40820223 6.8497975 40.85156168 6.84570312 43.29492188 C6.83466903 49.28908362 6.81792715 55.28320927 6.796875 61.27734375 C7.41804199 61.2684613 8.03920898 61.25957886 8.67919922 61.25042725 C15.16836304 61.16165032 21.65735316 61.10148375 28.14697266 61.05761719 C30.5659893 61.0375531 32.98495776 61.01029532 35.40380859 60.97558594 C38.88911868 60.92684034 42.37378516 60.90432211 45.859375 60.88671875 C46.93364746 60.86607361 48.00791992 60.84542847 49.11474609 60.82415771 C55.46489188 60.82227764 60.57892652 61.41688226 65.796875 65.27734375 C69.96602157 70.51550226 71.34414924 74.60059797 70.796875 81.27734375 C68.98694888 86.54973722 66.56235118 90.22255132 61.796875 93.27734375 C58.79320986 94.27856546 56.81947907 94.39846386 53.68286133 94.39086914 C52.64200882 94.39079361 51.60115631 94.39071808 50.52876282 94.39064026 C49.40681015 94.38547897 48.28485748 94.38031769 47.12890625 94.375 C45.97895676 94.37358505 44.82900726 94.3721701 43.64421082 94.37071228 C39.96590592 94.36510804 36.28766155 94.35255479 32.609375 94.33984375 C30.11783942 94.3348293 27.62630289 94.3302663 25.13476562 94.32617188 C19.02211471 94.31513722 12.90949918 94.29839493 6.796875 94.27734375 C6.80575745 94.89851074 6.81463989 95.51967773 6.8237915 96.15966797 C6.91256843 102.64883179 6.972735 109.13782191 7.01660156 115.62744141 C7.03666565 118.04645805 7.06392343 120.46542651 7.09863281 122.88427734 C7.14737841 126.36958743 7.16989664 129.85425391 7.1875 133.33984375 C7.20814514 134.41411621 7.22879028 135.48838867 7.25006104 136.59521484 C7.25196081 143.0119087 6.56854963 147.95545306 2.796875 153.27734375 C-2.08429015 157.92040329 -6.17013106 158.63462388 -12.69921875 158.55859375 C-17.65359055 158.00209645 -20.34237806 155.25440784 -23.515625 151.65234375 C-25.98804153 148.17264641 -26.3266713 146.4138817 -26.31665039 142.18505859 C-26.31657486 141.1241098 -26.31649933 140.06316101 -26.31642151 138.97006226 C-26.31126022 137.82107452 -26.30609894 136.67208679 -26.30078125 135.48828125 C-26.2993663 134.31472076 -26.29795135 133.14116028 -26.29649353 131.93203735 C-26.29088189 128.1721139 -26.27832738 124.4122493 -26.265625 120.65234375 C-26.2606115 118.10807377 -26.25604833 115.56380287 -26.25195312 113.01953125 C-26.24090868 106.77211522 -26.22415918 100.52473369 -26.203125 94.27734375 C-27.17912155 94.29066742 -27.17912155 94.29066742 -28.17483521 94.30426025 C-34.95566002 94.39285209 -41.73632004 94.45312748 -48.51757812 94.49707031 C-51.04726847 94.5171678 -53.57691246 94.54445043 -56.10644531 94.57910156 C-59.74555917 94.62769931 -63.384058 94.65033187 -67.0234375 94.66796875 C-68.15178009 94.68861389 -69.28012268 94.70925903 -70.44265747 94.73052979 C-76.69383855 94.73231043 -80.47781147 94.5195736 -85.203125 90.27734375 C-89.6328622 85.24899342 -90.50329088 82.39569084 -90.41796875 75.81640625 C-90.01447316 71.04782203 -88.24358396 68.26304172 -84.828125 65.02734375 C-80.5650288 62.18527962 -77.07523472 61.0248767 -71.95385742 61.05029297 C-70.93317673 61.05044403 -69.91249603 61.05059509 -68.86088562 61.05075073 C-67.22625114 61.06623459 -67.22625114 61.06623459 -65.55859375 61.08203125 C-64.4336702 61.08486115 -63.30874664 61.08769104 -62.1497345 61.09060669 C-58.56325564 61.10178539 -54.97702815 61.12688612 -51.390625 61.15234375 C-48.95638382 61.16237652 -46.52213872 61.17150185 -44.08789062 61.1796875 C-38.12621658 61.20171719 -32.16468875 61.23517201 -26.203125 61.27734375 C-26.20978683 60.63920746 -26.21644867 60.00107117 -26.22331238 59.34359741 C-26.28976349 52.69249518 -26.33496634 46.04148751 -26.36791992 39.39013672 C-26.38299162 36.90897795 -26.40345246 34.42784576 -26.42944336 31.94677734 C-26.46589667 28.37721186 -26.48286792 24.80799914 -26.49609375 21.23828125 C-26.51157761 20.13181244 -26.52706146 19.02534363 -26.54301453 17.88534546 C-26.5442358 12.27667439 -26.47044684 8.07385246 -23.203125 3.27734375 C-16.17208437 -3.38364211 -8.55607859 -4.65941489 0 0 Z " fill="#2462EB" transform="translate(415.203125,28.72265625)"/>
<path d="M0 0 C3.61217922 2.76282897 6.83421441 5.74023933 10 9 C10.56074219 9.54011719 11.12148437 10.08023438 11.69921875 10.63671875 C21.53882965 20.88954166 25.39894188 34.85627522 25.375 48.6875 C25.37338867 49.65703613 25.37177734 50.62657227 25.37011719 51.62548828 C25.2377841 59.39811096 24.10057933 65.81180571 21 73 C20.69964844 73.73992187 20.39929688 74.47984375 20.08984375 75.2421875 C14.42041213 87.85728643 2.95953891 98.84199786 -9.76953125 104.15625 C-23.75331637 109.39782943 -40.95167077 110.62749846 -55.125 105.3125 C-70.48773494 98.29907753 -82.39829373 87.70987786 -89 72 C-95.16036324 55.17027031 -94.25433047 37.96650414 -86.8125 21.6875 C-78.64052258 6.90839191 -65.90130478 -3.04508827 -49.83984375 -7.96875 C-32.23103979 -12.50212504 -15.46511871 -9.58245394 0 0 Z M-54.3359375 32.78515625 C-58.98246402 39.75494603 -61.16599289 46.71980069 -59.60546875 55.125 C-57.62015415 62.50268524 -53.15733235 68.07650731 -46.93359375 72.453125 C-39.93001553 76.11613828 -31.6520449 76.44417877 -24.15625 74.1171875 C-16.99537001 70.86028124 -11.29612604 65.6473351 -8.47265625 58.140625 C-6.84609732 50.77406058 -7.01308171 42.82291948 -10.546875 36.06640625 C-15.40571851 29.15692179 -21.66629593 24.53830021 -30 23 C-39.05903057 21.99344105 -48.742833 25.31132948 -54.3359375 32.78515625 Z " fill="#2462EB" transform="translate(183,100)"/>
</svg>
