<?xml version="1.0" encoding="UTF-8"?>
<svg version="1.1" xmlns="http://www.w3.org/2000/svg" width="512" height="512">
<path d="M0 0 C1.16469315 -0.00860046 2.32938629 -0.01720093 3.52937317 -0.02606201 C4.80367187 -0.03032196 6.07797058 -0.03458191 7.3908844 -0.03897095 C8.74967659 -0.04687698 10.1084667 -0.05514624 11.46725464 -0.06375122 C15.92818714 -0.08992738 20.38912877 -0.10528082 24.85011292 -0.11953735 C26.3901781 -0.12490005 27.93024323 -0.13027756 29.4703083 -0.13566971 C35.88275942 -0.15729765 42.29520808 -0.1760292 48.70768642 -0.1872921 C57.87118401 -0.20349649 67.03425527 -0.23658924 76.1975922 -0.29369295 C82.65387343 -0.33254137 89.11004139 -0.35194268 95.56643635 -0.35721266 C99.41510522 -0.36084766 103.26331894 -0.37266802 107.11186028 -0.4053154 C110.74081177 -0.43565766 114.36903904 -0.44161652 117.99809074 -0.42993164 C119.94343279 -0.42960987 121.88873191 -0.45390365 123.83390808 -0.47930908 C137.59798741 -0.38309954 148.06824542 4.3725313 157.96339417 13.7359314 C164.94704279 21.1335592 169.4409649 30.86253701 169.38917542 41.01327515 C169.38595276 42.12831421 169.3827301 43.24335327 169.37940979 44.3921814 C169.37103088 45.55104858 169.36265198 46.70991577 169.35401917 47.90390015 C169.34950745 49.07823608 169.34499573 50.25257202 169.34034729 51.4624939 C169.32857011 54.35968087 169.31212243 57.25676468 169.29151917 60.15390015 C170.84554695 60.13724556 170.84554695 60.13724556 172.43096924 60.12025452 C182.2424897 60.01845318 192.0539016 59.94373201 201.86583233 59.89483929 C206.90907666 59.868857 211.95189123 59.83366908 216.99488831 59.77670288 C221.87084937 59.72197453 226.74639968 59.69239435 231.62264442 59.67951393 C233.47362029 59.67034675 235.32457624 59.65244725 237.17537498 59.62524986 C253.67397662 59.39266776 265.58541492 62.02312393 277.96339417 73.7359314 C287.90449147 84.26632056 289.86113754 96.21810373 289.63136292 110.01327515 C289.08508674 122.38949063 282.86313881 132.14689483 273.97901917 140.40390015 C269.86621055 143.75023079 263.736187 148.15390015 258.29151917 148.15390015 C258.3027364 148.86640944 258.31395364 149.57891873 258.3255108 150.31301922 C258.39351297 158.06198234 257.97554525 165.68683657 257.324646 173.40562439 C257.22059033 174.68626815 257.11653467 175.96691192 257.0093258 177.28636307 C256.72309269 180.80707981 256.43078798 184.32726891 256.13737857 187.84739387 C255.82091638 191.65695642 255.51013111 195.46698295 255.19854736 199.27694702 C254.58829871 206.72700136 253.9725956 214.176595 253.35467192 221.62601633 C252.85227114 227.68292141 252.3514042 233.73995136 251.85160255 239.79707146 C250.43261383 256.99148025 249.00939117 274.18553123 247.5808663 291.3791504 C247.50399259 292.30440522 247.42711887 293.22966004 247.34791565 294.18295288 C247.23246207 295.57253937 247.23246207 295.57253937 247.1146761 296.99019831 C245.8667936 312.012764 244.62912307 327.03615143 243.39603695 342.0599382 C242.12807506 357.50716348 240.85236224 372.95373192 239.56864148 388.39965576 C238.84877527 397.06314988 238.13210096 405.72688049 237.42380333 414.39132881 C236.82095655 421.76511593 236.21090833 429.13826375 235.59160873 436.51068801 C235.27614281 440.26859843 234.96396975 444.02670308 234.6608963 447.78563499 C234.33165985 451.86780619 233.98624654 455.94845172 233.63934326 460.02915955 C233.54691713 461.20679967 233.454491 462.38443979 233.35926408 463.59776598 C231.97739284 479.41166894 227.83454487 491.03977524 216.29151917 502.15390015 C207.08545188 509.80654578 196.83652318 512.76858643 185.02027893 512.66183472 C183.94058366 512.66807468 182.86088839 512.67431464 181.74847507 512.68074369 C178.15973101 512.69659558 174.57167354 512.68409955 170.98292542 512.67147827 C168.39819444 512.67690283 165.81346656 512.68402735 163.22874451 512.69271851 C156.95462385 512.71044232 150.68069532 512.70669133 144.40656734 512.69506794 C139.30441009 512.68600958 134.20230643 512.68481997 129.10014343 512.68916321 C128.37211441 512.68977614 127.64408538 512.69038907 126.89399487 512.69102058 C125.41470677 512.69229957 123.93541869 512.69359642 122.45613062 512.69491094 C108.60673469 512.70629875 94.75744491 512.69323137 80.90806639 512.67170948 C69.04201575 512.65384011 57.17612167 512.65694472 45.31007385 512.67538452 C31.50796274 512.69682312 17.70594452 512.70520028 3.90381908 512.69293547 C2.4301777 512.69166136 0.95653631 512.69040388 -0.5171051 512.68916321 C-1.24203752 512.68854611 -1.96696993 512.687929 -2.71386999 512.6872932 C-7.80591762 512.68384925 -12.897906 512.68964796 -17.98994446 512.69908142 C-24.85191995 512.71151523 -31.71359586 512.70257775 -38.57554245 512.67950439 C-41.08974087 512.67422787 -43.60396421 512.67571289 -46.11815262 512.68455505 C-49.5581805 512.69553534 -52.99727188 512.68171558 -56.4372406 512.66183472 C-57.42490638 512.6707576 -58.41257215 512.67968049 -59.4301672 512.68887377 C-71.97135536 512.54892277 -82.43870707 507.31269472 -91.45848083 498.77890015 C-107.19080705 482.17255581 -105.29546865 456.30012868 -107.05418682 434.94077587 C-107.35713301 431.27051779 -107.6639588 427.60058358 -107.97024536 423.93060303 C-108.56775899 416.76344105 -109.16165009 409.59598349 -109.75413014 402.42840382 C-110.23593548 396.60023284 -110.71894307 390.77216267 -111.20278549 384.94416046 C-111.27189854 384.11163388 -111.34101159 383.2791073 -111.41221898 382.42135264 C-111.55266002 380.72963189 -111.69310195 379.03791121 -111.83354478 377.3461906 C-113.14691676 361.52367577 -114.45595313 345.70080446 -115.76364653 329.87781945 C-116.95857307 315.42094937 -118.15894853 300.96453777 -119.36188705 286.50833234 C-120.59968648 271.63259538 -121.83381881 256.75655834 -123.06399763 241.88018918 C-123.75366942 233.54086725 -124.44476948 225.20166975 -125.13971329 216.86278534 C-125.73085435 209.76897721 -126.31851491 202.67489109 -126.90175201 195.58042857 C-127.19902666 191.96554339 -127.4978493 188.35080479 -127.80101204 184.73640823 C-128.13033651 180.80950058 -128.45193416 176.88198106 -128.77284241 172.95437622 C-128.86875188 171.82517785 -128.96466134 170.69597948 -129.06347716 169.53256297 C-129.63864897 162.39070224 -129.81682604 155.3178912 -129.70848083 148.15390015 C-130.3069281 147.99574829 -130.90537537 147.83759644 -131.5219574 147.6746521 C-140.70812945 145.15215037 -148.3892735 139.02985355 -153.70848083 131.15390015 C-160.87973775 118.36010846 -163.08864888 105.78460585 -159.83738708 91.26327515 C-154.76870396 77.23714873 -145.57952897 68.76092112 -132.47801208 62.3531189 C-127.42745432 60.16620601 -122.90939565 60.01523211 -117.4516449 60.04037476 C-116.20718849 60.04015572 -116.20718849 60.04015572 -114.93759155 60.03993225 C-112.19973624 60.04062803 -109.46194924 60.04840476 -106.72410583 60.0562439 C-104.82410214 60.05810927 -102.92409797 60.05953261 -101.02409363 60.06053162 C-96.02639943 60.06434742 -91.02873434 60.07416973 -86.03105164 60.0852356 C-80.93004246 60.09546984 -75.82902857 60.10003355 -70.72801208 60.10507202 C-60.72148888 60.11579282 -50.71498728 60.13285803 -40.70848083 60.15390015 C-40.71928177 59.43585205 -40.7300827 58.71780396 -40.74121094 57.97799683 C-40.78435115 54.69291984 -40.81099997 51.4079027 -40.83738708 48.12265015 C-40.85466858 46.99310913 -40.87195007 45.86356812 -40.88975525 44.69979858 C-40.97325071 30.83449217 -36.65249751 21.5490585 -27.12644958 11.48202515 C-19.78113322 4.54776055 -10.08067818 0.05551546 0 0 Z M-5.52098083 34.59140015 C-12.43782306 42.69398675 -10.70848083 48.88277316 -10.70848083 60.15390015 C38.79151917 60.15390015 88.29151917 60.15390015 139.29151917 60.15390015 C140.20676163 46.73058763 140.20676163 46.73058763 134.85401917 35.34140015 C129.70821577 30.94864115 125.80967635 30.03293671 119.1816864 30.02018738 C118.17523071 30.01592239 117.16877502 30.01165741 116.13182068 30.00726318 C115.03870575 30.00771637 113.94559082 30.00816956 112.8193512 30.00863647 C111.65943665 30.00527786 110.49952209 30.00191925 109.30445862 29.99845886 C105.46940541 29.98895855 101.63439591 29.98700624 97.79933167 29.9859314 C95.80682581 29.98353047 93.81431995 29.9811278 91.82181442 29.97847098 C85.55764376 29.97033682 79.29348747 29.9678858 73.02931213 29.96859741 C66.5781133 29.969198 60.12699814 29.95864756 53.67582047 29.94285375 C48.12745686 29.92975673 42.57912052 29.92441442 37.03074157 29.92505282 C33.72123144 29.92530717 30.41181226 29.92156478 27.102314 29.91187477 C23.40896416 29.90207303 19.71582952 29.9049538 16.0224762 29.91098022 C14.93340973 29.90536072 13.84434326 29.89974121 12.72227478 29.89395142 C2.86267708 29.89784261 2.86267708 29.89784261 -5.52098083 34.59140015 Z M-125.52098083 94.59140015 C-129.45926947 99.20482397 -130.15393964 101.74408427 -130.02488708 107.64608765 C-129.55806066 111.34611928 -128.18284503 113.41203712 -125.70848083 116.15390015 C-120.61212537 119.9434978 -115.69578457 120.27851665 -109.49054146 120.2825346 C-107.60105032 120.28737127 -107.60105032 120.28737127 -105.67338765 120.29230565 C-104.27803165 120.29083455 -102.88267574 120.28926684 -101.48731995 120.28761292 C-100.0030648 120.28948119 -98.51881014 120.29178196 -97.03455627 120.29447824 C-92.95479512 120.30060052 -88.87505445 120.30046214 -84.79528975 120.29928386 C-80.39574476 120.29907997 -75.99620636 120.30459754 -71.59666443 120.30934143 C-62.97693604 120.31765076 -54.3572145 120.32039639 -45.73748244 120.32095381 C-38.73203458 120.32142881 -31.72658897 120.32348276 -24.72114182 120.32665443 C-4.86463083 120.33546157 14.99187475 120.34007369 34.8483877 120.33932396 C35.91904003 120.339284 36.98969236 120.33924405 38.0927887 120.33920288 C39.70072515 120.33914156 39.70072515 120.33914156 41.34114517 120.339079 C58.71813076 120.33867245 76.09509469 120.34824406 93.47207402 120.36234125 C111.3095134 120.37669796 129.14694221 120.38361183 146.98438752 120.38274747 C157.00083526 120.38241527 167.0172603 120.38517247 177.03370285 120.39592552 C185.56104544 120.40502122 194.08835502 120.40721341 202.61570035 120.4004161 C206.96689794 120.39714627 211.31803218 120.39711091 215.66922379 120.40576935 C219.65277317 120.41361475 223.63620874 120.41222303 227.61975528 120.40348522 C229.06050196 120.40194591 230.50125705 120.40378258 231.94199382 120.40934529 C243.85741598 120.84508171 243.85741598 120.84508171 254.10401917 115.71640015 C258.0423078 111.10297632 258.73697797 108.56371602 258.60792542 102.66171265 C258.14109899 98.96168101 256.76588336 96.89576317 254.29151917 94.15390015 C249.1951637 90.3643025 244.2788229 90.02928364 238.07357979 90.02526569 C236.81391903 90.02204125 235.55425827 90.0188168 234.25642598 90.01549464 C232.86106998 90.01696574 231.46571407 90.01853345 230.07035828 90.02018738 C228.58610313 90.0183191 227.10184847 90.01601833 225.6175946 90.01332206 C221.53783345 90.00719977 217.45809278 90.00733815 213.37832808 90.00851643 C208.97878309 90.00872033 204.57924469 90.00320275 200.17970276 89.99845886 C191.55997437 89.99014954 182.94025283 89.9874039 174.32052077 89.98684648 C167.31507291 89.98637148 160.3096273 89.98431753 153.30418015 89.98114586 C133.44766916 89.97233873 113.59116358 89.96772661 93.73465063 89.96847633 C92.6639983 89.96851629 91.59334597 89.96855625 90.49024963 89.96859741 C88.88231318 89.96865873 88.88231318 89.96865873 87.24189316 89.96872129 C69.86490757 89.96912784 52.48794364 89.95955624 35.11096431 89.94545905 C17.27352493 89.93110233 -0.56390388 89.92418846 -18.40134919 89.92505282 C-28.41779693 89.92538502 -38.43422197 89.92262782 -48.45066452 89.91187477 C-56.97800711 89.90277907 -65.50531669 89.90058688 -74.03266202 89.90738419 C-78.38385961 89.91065403 -82.73499385 89.91068938 -87.08618546 89.90203094 C-91.06973484 89.89418554 -95.05317041 89.89557726 -99.03671695 89.90431508 C-100.47746363 89.90585439 -101.91821872 89.90401771 -103.35895549 89.898455 C-115.27437765 89.46271858 -115.27437765 89.46271858 -125.52098083 94.59140015 Z M-98.70848083 150.15390015 C-97.88715044 166.8366591 -97.88715044 166.8366591 -96.69055176 183.48103333 C-96.59310321 184.67317965 -96.49565466 185.86532598 -96.39525312 187.09359795 C-96.13005376 190.32996642 -95.86204342 193.56608616 -95.59270155 196.80211198 C-95.30063029 200.31991352 -95.0123381 203.83802528 -94.72351074 207.35609436 C-94.15959866 214.21737196 -93.59220045 221.07835676 -93.02342875 227.93923306 C-92.56092749 233.5187433 -92.09961239 239.09835043 -91.63911247 244.6780262 C-91.57321674 245.47641776 -91.507321 246.27480933 -91.43942843 247.09739457 C-91.30551232 248.71993929 -91.17159732 250.34248411 -91.03768342 251.96502901 C-89.78660683 267.12143798 -88.53136555 282.27749986 -87.27480256 297.43345482 C-86.12739735 311.27435204 -84.98514508 325.11566886 -83.84532113 338.95719229 C-82.67131317 353.21328553 -81.49389322 367.46909318 -80.31277841 381.72459942 C-79.65114849 389.71086338 -78.99083111 397.69723041 -78.33407784 405.68389702 C-77.77555453 412.4755224 -77.2137804 419.26686953 -76.6478954 426.05788564 C-76.35977455 429.51658051 -76.07308476 432.97537719 -75.79044342 436.43452454 C-75.48235548 440.19526861 -75.16856394 443.95549624 -74.85339355 447.71565247 C-74.7665186 448.79251814 -74.67964364 449.86938381 -74.59013611 450.97888178 C-74.19454537 464.52186637 -74.19454537 464.52186637 -69.64598083 476.77890015 C-63.0791025 482.08829114 -55.60164091 482.59453135 -47.42356873 482.53485107 C-45.92697896 482.54187103 -45.92697896 482.54187103 -44.40015507 482.54903281 C-41.07701143 482.56094132 -37.75428335 482.55154163 -34.43113708 482.54208374 C-32.04049948 482.54615127 -29.64986375 482.55149417 -27.25923157 482.55801392 C-21.45209116 482.57025486 -15.64508146 482.56848881 -9.83793712 482.55977599 C-5.11615594 482.55298637 -0.39440734 482.55208824 4.32737732 482.55534744 C5.00074755 482.55580714 5.67411777 482.55626684 6.36789316 482.55674047 C7.73605578 482.5576997 9.10421839 482.55867234 10.472381 482.55965824 C23.28587973 482.56820215 36.09931395 482.55839373 48.9128021 482.54225715 C59.89486768 482.52885486 70.87683811 482.53118323 81.85890198 482.54501343 C94.62818879 482.56108694 107.39741915 482.56737827 120.16671467 482.55817664 C121.52969677 482.55722104 122.89267889 482.55627793 124.25566101 482.55534744 C124.92618262 482.55488462 125.59670422 482.55442179 126.28754467 482.55394494 C131.00078724 482.55136036 135.71399384 482.55571454 140.42723083 482.5627861 C146.77696622 482.57146302 153.12652221 482.56542032 159.47623825 482.54810333 C161.80422035 482.54414241 164.13221759 482.54526576 166.46019363 482.55189133 C169.64253407 482.56011224 172.82430284 482.54977811 176.00660706 482.53485107 C176.92364379 482.54154324 177.84068052 482.5482354 178.78550625 482.55513036 C186.03085053 482.48939811 192.48994136 481.41900561 198.22901917 476.77890015 C203.63484916 469.29212845 202.76021606 456.10116009 203.48112488 447.17933655 C203.63682137 445.32129283 203.63682137 445.32129283 203.79566324 443.42571288 C204.07949121 440.0275105 204.35926186 436.62902054 204.63722515 433.23033655 C204.93925718 429.54980167 205.24662147 425.86971138 205.55328369 422.18955994 C206.15175401 414.99733725 206.74533249 407.80471901 207.33716847 400.61194768 C208.02716246 392.2281624 208.72181549 383.84476506 209.41658311 375.46137426 C210.65609234 360.50267328 211.89103751 345.54359897 213.12355042 330.58432007 C214.31859881 316.07976844 215.51743386 301.57553596 216.7202301 287.07162476 C218.03175256 271.25657852 219.34120381 255.4413634 220.64703596 239.62584621 C220.78630508 237.93912519 220.9255751 236.25240424 221.06484604 234.56568336 C221.13335882 233.7358826 221.2018716 232.90608184 221.27246053 232.0511356 C221.75476667 226.21118394 222.23850014 220.37135153 222.72275162 214.5315609 C223.31271398 207.41624255 223.90026887 200.30073011 224.48479034 193.18496265 C224.78290348 189.55649059 225.0820497 185.92811184 225.38405037 182.29996109 C225.71156856 178.36478011 226.03397574 174.42918987 226.35588074 170.49354553 C226.45179021 169.35064943 226.54769967 168.20775334 226.64651549 167.03022403 C226.73236698 165.97032726 226.81821847 164.91043049 226.90667152 163.81841564 C226.98153144 162.91109603 227.05639137 162.00377642 227.13351977 161.06896228 C227.33045394 157.43556017 227.29151917 153.79263535 227.29151917 150.15390015 C119.71151917 150.15390015 12.13151917 150.15390015 -98.70848083 150.15390015 Z " fill="#EE4C2C" transform="translate(191.70848083496094,-0.153900146484375)"/>
<path d="M0 0 C4.57848169 2.16875448 6.91859935 4.41855628 9 9 C9.40874074 12.45887383 9.33942563 15.88147989 9.26583862 19.35961914 C9.25427416 20.37788568 9.24270969 21.39615221 9.23079479 22.44527531 C9.06222372 33.39699182 8.43875078 44.31724186 7.74658203 55.24609375 C7.61131817 57.46466607 7.47665236 59.68327492 7.3425293 61.9019165 C6.98122972 67.84753531 6.61113501 73.79257427 6.23885584 79.7375145 C5.9278262 84.71842053 5.62135362 89.69960282 5.3148793 94.6807909 C4.55127513 107.09141352 3.77929691 119.50150063 3.00313316 131.91134322 C2.37238278 141.99970681 1.7495605 152.08853527 1.13232422 162.17773438 C0.41248752 173.94398477 -0.31263372 185.70989478 -1.04536164 197.47535038 C-1.43214046 203.68624051 -1.8167689 209.89724368 -2.19579697 216.10861206 C-2.55156278 221.93361787 -2.91492735 227.75810084 -3.28416443 233.58226776 C-3.41827495 235.7174288 -3.54973223 237.85275841 -3.67833328 239.98825836 C-3.85433632 242.90373037 -4.03995425 245.81843761 -4.22799683 248.7331543 C-4.30096822 249.9980678 -4.30096822 249.9980678 -4.37541378 251.28853512 C-4.78987198 257.4720639 -5.24536458 262.97542067 -9.4375 267.8125 C-14.509547 272.14229622 -17.54298274 272.43423039 -24.046875 272.31640625 C-28.97090343 271.78883177 -31.57378104 269.74126524 -34.63572884 266.00294495 C-36.65374875 261.56101077 -36.36782162 257.46067586 -36.26583862 252.64038086 C-36.25427416 251.62211432 -36.24270969 250.60384779 -36.23079479 249.55472469 C-36.06222372 238.60300818 -35.43875078 227.68275814 -34.74658203 216.75390625 C-34.61131817 214.53533393 -34.47665236 212.31672508 -34.3425293 210.0980835 C-33.98122972 204.15246469 -33.61113501 198.20742573 -33.23885584 192.2624855 C-32.9278262 187.28157947 -32.62135362 182.30039718 -32.3148793 177.3192091 C-31.55127513 164.90858648 -30.77929691 152.49849937 -30.00313316 140.08865678 C-29.37238278 130.00029319 -28.7495605 119.91146473 -28.13232422 109.82226562 C-27.41248752 98.05601523 -26.68736628 86.29010522 -25.95463836 74.52464962 C-25.56785954 68.31375949 -25.1832311 62.10275632 -24.80420303 55.89138794 C-24.44843722 50.06638213 -24.08507265 44.24189916 -23.71583557 38.41773224 C-23.58172505 36.2825712 -23.45026777 34.14724159 -23.32166672 32.01174164 C-23.14566368 29.09626963 -22.96004575 26.18156239 -22.77200317 23.2668457 C-22.72335558 22.42357003 -22.67470799 21.58029436 -22.62458622 20.71146488 C-22.21012802 14.5279361 -21.75463542 9.02457933 -17.5625 4.1875 C-11.82360961 -0.71155278 -7.34932676 -0.78742787 0 0 Z " fill="#EE4C2C" transform="translate(352,180)"/>
<path d="M0 0 C4.52488127 2.14336481 6.89879323 4.46581697 9 9 C10.17471595 13.61534835 10.36424572 18.29171532 10.65174866 23.02633667 C10.70977282 23.93726361 10.76779697 24.84819056 10.82757944 25.78672135 C11.02122756 28.84052716 11.20995599 31.89461678 11.39868164 34.94873047 C11.53648388 37.13874003 11.67456764 39.32873189 11.81291199 41.51870728 C12.18812479 47.47410271 12.55885285 53.42976923 12.92840123 59.38551855 C13.15998136 63.11437149 13.39252981 66.84316274 13.62542534 70.57193375 C14.397405 82.93196891 15.16648994 95.29218009 15.93187708 107.65262507 C15.97312962 108.31881641 16.01438215 108.98500776 16.05688477 109.67138672 C16.09818787 110.33840501 16.13949098 111.0054233 16.18204569 111.69265427 C16.84876745 122.45686077 17.52247281 133.22061706 18.19941122 143.98418544 C18.89643218 155.06841194 19.58790881 166.15297292 20.27420896 177.23786843 C20.65877186 183.44771089 21.04548306 189.65740002 21.43782234 195.86675644 C21.80779657 201.72521082 22.17075198 207.5840613 22.52867317 213.44326401 C22.66004125 215.57523736 22.793756 217.70706787 22.93020248 219.83872223 C23.6268728 230.745578 24.15630183 241.65105514 24.32933044 252.5798645 C24.35807914 253.53698487 24.38682783 254.49410524 24.4164477 255.48022926 C24.45688052 261.33190559 23.86134309 264.52877882 20 269 C14.77740143 273.05630398 9.34659858 272.77397544 3 272 C-1.52488127 269.85663519 -3.89879323 267.53418303 -6 263 C-7.17471595 258.38465165 -7.36424572 253.70828468 -7.65174866 248.97366333 C-7.70977282 248.06273639 -7.76779697 247.15180944 -7.82757944 246.21327865 C-8.02122756 243.15947284 -8.20995599 240.10538322 -8.39868164 237.05126953 C-8.53648388 234.86125997 -8.67456764 232.67126811 -8.81291199 230.48129272 C-9.18812479 224.52589729 -9.55885285 218.57023077 -9.92840123 212.61448145 C-10.15998136 208.88562851 -10.39252981 205.15683726 -10.62542534 201.42806625 C-11.397405 189.06803109 -12.16648994 176.70781991 -12.93187708 164.34737493 C-12.97312962 163.68118359 -13.01438215 163.01499224 -13.05688477 162.32861328 C-13.09818787 161.66159499 -13.13949098 160.9945767 -13.18204569 160.30734573 C-13.84876745 149.54313923 -14.52247281 138.77938294 -15.19941122 128.01581456 C-15.89643218 116.93158806 -16.58790881 105.84702708 -17.27420896 94.76213157 C-17.65877186 88.55228911 -18.04548306 82.34259998 -18.43782234 76.13324356 C-18.80779657 70.27478918 -19.17075198 64.4159387 -19.52867317 58.55673599 C-19.66004125 56.42476264 -19.793756 54.29293213 -19.93020248 52.16127777 C-20.6268728 41.254422 -21.15630183 30.34894486 -21.32933044 19.4201355 C-21.35807914 18.46301513 -21.38682783 17.50589476 -21.4164477 16.51977074 C-21.45688052 10.66809441 -20.86134309 7.47122118 -17 3 C-11.77740143 -1.05630398 -6.34659858 -0.77397544 0 0 Z " fill="#EE4C2C" transform="translate(172,180)"/>
<path d="M0 0 C4.58282699 2.17081278 6.9024962 4.42363589 9 9 C9.44242745 12.40094562 9.40891275 15.77809549 9.38768005 19.20372009 C9.39306559 20.24098112 9.39845113 21.27824215 9.40399987 22.34693533 C9.41832398 25.82768318 9.41116457 29.30805312 9.40405273 32.78881836 C9.40975395 35.28225511 9.41671724 37.77568926 9.42485046 40.26911926 C9.4409568 46.34184135 9.44287696 52.41441458 9.43763756 58.48714345 C9.43359602 63.42310125 9.43503922 68.35902848 9.44038582 73.29498482 C9.44113424 73.99751679 9.44188266 74.70004875 9.44265376 75.42386957 C9.44418524 76.85106552 9.44572359 78.27826146 9.44726873 79.7054574 C9.46099646 93.08920649 9.45555417 106.47289712 9.44408352 119.85664488 C9.43415074 132.09993286 9.44709203 144.34306973 9.47101771 156.5863344 C9.49540203 169.15905537 9.50501824 181.73170595 9.49836498 194.30445009 C9.49487128 201.36257195 9.49711474 208.42057758 9.51461601 215.47868156 C9.53086691 222.11481692 9.52616675 228.75071029 9.50731087 235.38685417 C9.50361571 237.8241368 9.50676027 240.26144068 9.51719666 242.69870377 C9.53034419 246.0225706 9.51891337 249.34547142 9.50120544 252.66929626 C9.51081045 253.63670948 9.52041546 254.6041227 9.53031152 255.60085148 C9.46683041 261.3811572 8.79736705 264.57052663 5 269 C-0.22259857 273.05630398 -5.65340142 272.77397544 -12 272 C-16.58282699 269.82918722 -18.9024962 267.57636411 -21 263 C-21.44242745 259.59905438 -21.40891275 256.22190451 -21.38768005 252.79627991 C-21.39306559 251.75901888 -21.39845113 250.72175785 -21.40399987 249.65306467 C-21.41832398 246.17231682 -21.41116457 242.69194688 -21.40405273 239.21118164 C-21.40975395 236.71774489 -21.41671724 234.22431074 -21.42485046 231.73088074 C-21.4409568 225.65815865 -21.44287696 219.58558542 -21.43763756 213.51285655 C-21.43359602 208.57689875 -21.43503922 203.64097152 -21.44038582 198.70501518 C-21.44113424 198.00248321 -21.44188266 197.29995125 -21.44265376 196.57613043 C-21.44418524 195.14893448 -21.44572359 193.72173854 -21.44726873 192.2945426 C-21.46099646 178.91079351 -21.45555417 165.52710288 -21.44408352 152.14335512 C-21.43415074 139.90006714 -21.44709203 127.65693027 -21.47101771 115.4136656 C-21.49540203 102.84094463 -21.50501824 90.26829405 -21.49836498 77.69554991 C-21.49487128 70.63742805 -21.49711474 63.57942242 -21.51461601 56.52131844 C-21.53086691 49.88518308 -21.52616675 43.24928971 -21.50731087 36.61314583 C-21.50361571 34.1758632 -21.50676027 31.73855932 -21.51719666 29.30129623 C-21.53034419 25.9774294 -21.51891337 22.65452858 -21.50120544 19.33070374 C-21.51081045 18.36329052 -21.52041546 17.3958773 -21.53031152 16.39914852 C-21.46683041 10.6188428 -20.79736705 7.42947337 -17 3 C-11.77740143 -1.05630398 -6.34659858 -0.77397544 0 0 Z " fill="#EE4D2C" transform="translate(262,180)"/>
</svg>
