<?xml version="1.0" encoding="UTF-8"?>
<svg version="1.1" xmlns="http://www.w3.org/2000/svg" width="512" height="512">
<path d="M0 0 C1.49395798 -0.00744736 1.49395798 -0.00744736 3.01809692 -0.01504517 C6.30422668 -0.02961661 9.59030812 -0.03646123 12.87646484 -0.04199219 C15.17084758 -0.04774873 17.46523031 -0.0535064 19.75961304 -0.05926514 C24.569562 -0.06976154 29.37949432 -0.07561279 34.18945312 -0.07910156 C40.32904967 -0.08457665 46.46842338 -0.10858957 52.60795021 -0.13707352 C57.34883245 -0.15577245 62.08966186 -0.1609094 66.83057785 -0.16243744 C69.09261668 -0.16544924 71.35465491 -0.17342751 73.61665726 -0.18662262 C96.16457901 -0.30874158 96.16457901 -0.30874158 105.96240234 3.16113281 C106.8471524 3.4509906 107.73190247 3.74084839 108.64346313 4.03948975 C123.51592314 9.09271464 135.03522386 21.06482386 142.23583984 34.65332031 C147.26442444 44.86976593 149.10997973 53.89643843 149.12353516 65.19873047 C149.12850006 66.19470245 149.13346497 67.19067444 149.13858032 68.21682739 C149.15315177 71.50295715 149.15999638 74.78903859 149.16552734 78.07519531 C149.17128389 80.36957805 149.17704155 82.66396078 149.18280029 84.95834351 C149.1932967 89.76829247 149.19914795 94.57822479 149.20263672 99.38818359 C149.2081118 105.52778014 149.23212473 111.66715385 149.26060867 117.80668068 C149.2793076 122.54756292 149.28444456 127.28839233 149.2859726 132.02930832 C149.28898439 134.29134715 149.29696267 136.55338538 149.31015778 138.81538773 C149.43103411 161.13387298 146.25143434 179.37786292 130.39990234 196.34863281 C117.74166485 208.43062277 101.3990283 214.28812779 84.0859375 214.33813477 C83.09493042 214.34470596 82.10392334 214.35127716 81.08288574 214.35804749 C77.80574459 214.37774142 74.52864931 214.38943808 71.25146484 214.39941406 C69.56534655 214.40552735 69.56534655 214.40552735 67.84516525 214.41176414 C61.8886407 214.43261412 55.93213907 214.4469172 49.97558594 214.45629883 C43.85524538 214.46732556 37.73527215 214.5016856 31.61506081 214.54147053 C26.88263322 214.56776058 22.15029126 214.57600191 17.41779709 214.57958031 C15.16380728 214.58441889 12.90982059 214.59595385 10.65590286 214.6146183 C-11.10023228 214.78349597 -29.44206812 212.12740025 -45.89306641 196.34082031 C-46.60076172 195.62152344 -47.30845703 194.90222656 -48.03759766 194.16113281 C-48.61123047 193.58621094 -49.18486328 193.01128906 -49.77587891 192.41894531 C-60.81940929 180.49079105 -65.17972722 164.96813759 -65.19873047 149.12353516 C-65.20369537 148.12756317 -65.20866028 147.13159119 -65.21377563 146.10543823 C-65.22834708 142.81930848 -65.2351917 139.53322703 -65.24072266 136.24707031 C-65.2464792 133.95268758 -65.25223687 131.65830485 -65.25799561 129.36392212 C-65.26849201 124.55397315 -65.27434326 119.74404083 -65.27783203 114.93408203 C-65.28330711 108.79448549 -65.30732004 102.65511178 -65.33580399 96.51558495 C-65.35450291 91.7747027 -65.35963987 87.0338733 -65.36116791 82.29295731 C-65.3641797 80.03091848 -65.37215798 77.76888025 -65.38535309 75.5068779 C-65.50627721 53.17957021 -62.37310623 34.73708543 -46.28759766 17.91113281 C-33.20201005 5.47588315 -17.84850022 0.02140663 0 0 Z M-17.28759766 51.66113281 C-22.0603788 58.47939159 -22.18783048 65.34238813 -22.18286133 73.52392578 C-22.18621994 74.32979126 -22.18957855 75.13565674 -22.19303894 75.96594238 C-22.20248432 78.611751 -22.20448874 81.25749592 -22.20556641 83.90332031 C-22.20878318 85.755056 -22.21214757 87.60679144 -22.21565247 89.45852661 C-22.22162751 93.33352243 -22.22349401 97.208496 -22.22290039 101.08349609 C-22.2227988 106.03169512 -22.23645502 110.97975055 -22.2536726 115.92791557 C-22.26482824 119.75078986 -22.26681851 123.57362981 -22.26629066 127.39651871 C-22.26746525 129.22003805 -22.27185754 131.04355843 -22.27962303 132.86706161 C-22.28949625 135.42465845 -22.28651633 137.98194827 -22.28051758 140.53955078 C-22.28613708 141.28165802 -22.29175659 142.02376526 -22.29754639 142.7883606 C-22.25062334 150.7203264 -21.16118039 157.86644545 -16.03759766 164.16113281 C-8.79624812 170.6783474 -2.12097396 171.31200647 7.41113281 171.30639648 C8.2379657 171.3097551 9.06479858 171.31311371 9.91668701 171.3165741 C12.6376701 171.32603762 15.35859135 171.32802484 18.07958984 171.32910156 C19.97999089 171.33231717 21.8803917 171.33568147 23.78079224 171.33918762 C27.76011733 171.34516726 31.73942073 171.3470287 35.71875 171.34643555 C40.80495808 171.34633395 45.89102647 171.35998862 50.97720146 171.37720776 C54.90126172 171.38835338 58.82528848 171.39035397 62.74936295 171.38982582 C64.62394823 171.39100197 66.49853449 171.39540319 68.3731041 171.40315819 C71.00046186 171.41301058 73.6275197 171.4100595 76.25488281 171.40405273 C77.02085785 171.40967224 77.78683289 171.41529175 78.57601929 171.42108154 C86.26252946 171.37666903 92.79091893 170.07026734 98.96240234 165.16113281 C105.65237216 157.72783302 106.11360486 150.57644627 106.10766602 140.79833984 C106.11102463 139.99247437 106.11438324 139.18660889 106.11784363 138.35632324 C106.12728901 135.71051462 106.12929342 133.06476971 106.13037109 130.41894531 C106.13358787 128.56720962 106.13695225 126.71547418 106.14045715 124.86373901 C106.1464322 120.9887432 106.1482987 117.11376963 106.14770508 113.23876953 C106.14760349 108.29057051 106.16125971 103.34251507 106.17847729 98.39435005 C106.18963293 94.57147576 106.1916232 90.74863581 106.19109535 86.92574692 C106.19226994 85.10222758 106.19666222 83.27870719 106.20442772 81.45520401 C106.21430094 78.89760717 106.21132102 76.34031736 106.20532227 73.78271484 C106.21094177 73.0406076 106.21656128 72.29850037 106.22235107 71.53390503 C106.17542803 63.60193923 105.08598508 56.45582017 99.96240234 50.16113281 C92.7210528 43.64391823 86.04577865 43.01025916 76.51367188 43.01586914 C75.68683899 43.01251053 74.8600061 43.00915192 74.00811768 43.00569153 C71.28713459 42.99622801 68.56621334 42.99424078 65.84521484 42.99316406 C63.94481379 42.98994846 62.04441299 42.98658416 60.14401245 42.983078 C56.16468736 42.97709836 52.18538395 42.97523692 48.20605469 42.97583008 C43.11984661 42.97593167 38.03377822 42.96227701 32.94760323 42.94505787 C29.02354296 42.93391224 25.09951621 42.93191165 21.17544174 42.9324398 C19.30085646 42.93126365 17.4262702 42.92686244 15.55170059 42.91910744 C12.92434283 42.90925504 10.29728499 42.91220612 7.66992188 42.91821289 C6.52095932 42.90978363 6.52095932 42.90978363 5.3487854 42.90118408 C-3.57218838 42.9527293 -11.09152493 44.77660756 -17.28759766 51.66113281 Z " fill="#FFFFFF" transform="translate(342.03759765625,276.8388671875)"/>
<path d="M0 0 C1.49395798 -0.00744736 1.49395798 -0.00744736 3.01809692 -0.01504517 C6.30422668 -0.02961661 9.59030812 -0.03646123 12.87646484 -0.04199219 C15.17084758 -0.04774873 17.46523031 -0.0535064 19.75961304 -0.05926514 C24.569562 -0.06976154 29.37949432 -0.07561279 34.18945312 -0.07910156 C40.32904967 -0.08457665 46.46842338 -0.10858957 52.60795021 -0.13707352 C57.34883245 -0.15577245 62.08966186 -0.1609094 66.83057785 -0.16243744 C69.09261668 -0.16544924 71.35465491 -0.17342751 73.61665726 -0.18662262 C96.16457901 -0.30874158 96.16457901 -0.30874158 105.96240234 3.16113281 C106.8471524 3.4509906 107.73190247 3.74084839 108.64346313 4.03948975 C123.51592314 9.09271464 135.03522386 21.06482386 142.23583984 34.65332031 C147.26442444 44.86976593 149.10997973 53.89643843 149.12353516 65.19873047 C149.12850006 66.19470245 149.13346497 67.19067444 149.13858032 68.21682739 C149.15315177 71.50295715 149.15999638 74.78903859 149.16552734 78.07519531 C149.17128389 80.36957805 149.17704155 82.66396078 149.18280029 84.95834351 C149.1932967 89.76829247 149.19914795 94.57822479 149.20263672 99.38818359 C149.2081118 105.52778014 149.23212473 111.66715385 149.26060867 117.80668068 C149.2793076 122.54756292 149.28444456 127.28839233 149.2859726 132.02930832 C149.28898439 134.29134715 149.29696267 136.55338538 149.31015778 138.81538773 C149.43103411 161.13387298 146.25143434 179.37786292 130.39990234 196.34863281 C117.74166485 208.43062277 101.3990283 214.28812779 84.0859375 214.33813477 C83.09493042 214.34470596 82.10392334 214.35127716 81.08288574 214.35804749 C77.80574459 214.37774142 74.52864931 214.38943808 71.25146484 214.39941406 C69.56534655 214.40552735 69.56534655 214.40552735 67.84516525 214.41176414 C61.8886407 214.43261412 55.93213907 214.4469172 49.97558594 214.45629883 C43.85524538 214.46732556 37.73527215 214.5016856 31.61506081 214.54147053 C26.88263322 214.56776058 22.15029126 214.57600191 17.41779709 214.57958031 C15.16380728 214.58441889 12.90982059 214.59595385 10.65590286 214.6146183 C-11.10023228 214.78349597 -29.44206812 212.12740025 -45.89306641 196.34082031 C-46.60076172 195.62152344 -47.30845703 194.90222656 -48.03759766 194.16113281 C-48.61123047 193.58621094 -49.18486328 193.01128906 -49.77587891 192.41894531 C-60.81940929 180.49079105 -65.17972722 164.96813759 -65.19873047 149.12353516 C-65.20369537 148.12756317 -65.20866028 147.13159119 -65.21377563 146.10543823 C-65.22834708 142.81930848 -65.2351917 139.53322703 -65.24072266 136.24707031 C-65.2464792 133.95268758 -65.25223687 131.65830485 -65.25799561 129.36392212 C-65.26849201 124.55397315 -65.27434326 119.74404083 -65.27783203 114.93408203 C-65.28330711 108.79448549 -65.30732004 102.65511178 -65.33580399 96.51558495 C-65.35450291 91.7747027 -65.35963987 87.0338733 -65.36116791 82.29295731 C-65.3641797 80.03091848 -65.37215798 77.76888025 -65.38535309 75.5068779 C-65.50627721 53.17957021 -62.37310623 34.73708543 -46.28759766 17.91113281 C-33.20201005 5.47588315 -17.84850022 0.02140663 0 0 Z M-17.28759766 51.66113281 C-22.0603788 58.47939159 -22.18783048 65.34238813 -22.18286133 73.52392578 C-22.18621994 74.32979126 -22.18957855 75.13565674 -22.19303894 75.96594238 C-22.20248432 78.611751 -22.20448874 81.25749592 -22.20556641 83.90332031 C-22.20878318 85.755056 -22.21214757 87.60679144 -22.21565247 89.45852661 C-22.22162751 93.33352243 -22.22349401 97.208496 -22.22290039 101.08349609 C-22.2227988 106.03169512 -22.23645502 110.97975055 -22.2536726 115.92791557 C-22.26482824 119.75078986 -22.26681851 123.57362981 -22.26629066 127.39651871 C-22.26746525 129.22003805 -22.27185754 131.04355843 -22.27962303 132.86706161 C-22.28949625 135.42465845 -22.28651633 137.98194827 -22.28051758 140.53955078 C-22.28613708 141.28165802 -22.29175659 142.02376526 -22.29754639 142.7883606 C-22.25062334 150.7203264 -21.16118039 157.86644545 -16.03759766 164.16113281 C-8.79624812 170.6783474 -2.12097396 171.31200647 7.41113281 171.30639648 C8.2379657 171.3097551 9.06479858 171.31311371 9.91668701 171.3165741 C12.6376701 171.32603762 15.35859135 171.32802484 18.07958984 171.32910156 C19.97999089 171.33231717 21.8803917 171.33568147 23.78079224 171.33918762 C27.76011733 171.34516726 31.73942073 171.3470287 35.71875 171.34643555 C40.80495808 171.34633395 45.89102647 171.35998862 50.97720146 171.37720776 C54.90126172 171.38835338 58.82528848 171.39035397 62.74936295 171.38982582 C64.62394823 171.39100197 66.49853449 171.39540319 68.3731041 171.40315819 C71.00046186 171.41301058 73.6275197 171.4100595 76.25488281 171.40405273 C77.02085785 171.40967224 77.78683289 171.41529175 78.57601929 171.42108154 C86.26252946 171.37666903 92.79091893 170.07026734 98.96240234 165.16113281 C105.65237216 157.72783302 106.11360486 150.57644627 106.10766602 140.79833984 C106.11102463 139.99247437 106.11438324 139.18660889 106.11784363 138.35632324 C106.12728901 135.71051462 106.12929342 133.06476971 106.13037109 130.41894531 C106.13358787 128.56720962 106.13695225 126.71547418 106.14045715 124.86373901 C106.1464322 120.9887432 106.1482987 117.11376963 106.14770508 113.23876953 C106.14760349 108.29057051 106.16125971 103.34251507 106.17847729 98.39435005 C106.18963293 94.57147576 106.1916232 90.74863581 106.19109535 86.92574692 C106.19226994 85.10222758 106.19666222 83.27870719 106.20442772 81.45520401 C106.21430094 78.89760717 106.21132102 76.34031736 106.20532227 73.78271484 C106.21094177 73.0406076 106.21656128 72.29850037 106.22235107 71.53390503 C106.17542803 63.60193923 105.08598508 56.45582017 99.96240234 50.16113281 C92.7210528 43.64391823 86.04577865 43.01025916 76.51367188 43.01586914 C75.68683899 43.01251053 74.8600061 43.00915192 74.00811768 43.00569153 C71.28713459 42.99622801 68.56621334 42.99424078 65.84521484 42.99316406 C63.94481379 42.98994846 62.04441299 42.98658416 60.14401245 42.983078 C56.16468736 42.97709836 52.18538395 42.97523692 48.20605469 42.97583008 C43.11984661 42.97593167 38.03377822 42.96227701 32.94760323 42.94505787 C29.02354296 42.93391224 25.09951621 42.93191165 21.17544174 42.9324398 C19.30085646 42.93126365 17.4262702 42.92686244 15.55170059 42.91910744 C12.92434283 42.90925504 10.29728499 42.91220612 7.66992188 42.91821289 C6.52095932 42.90978363 6.52095932 42.90978363 5.3487854 42.90118408 C-3.57218838 42.9527293 -11.09152493 44.77660756 -17.28759766 51.66113281 Z " fill="#FFFFFF" transform="translate(86.03759765625,276.8388671875)"/>
<path d="M0 0 C1.49395798 -0.00744736 1.49395798 -0.00744736 3.01809692 -0.01504517 C6.30422668 -0.02961661 9.59030812 -0.03646123 12.87646484 -0.04199219 C15.17084758 -0.04774873 17.46523031 -0.0535064 19.75961304 -0.05926514 C24.569562 -0.06976154 29.37949432 -0.07561279 34.18945312 -0.07910156 C40.32904967 -0.08457665 46.46842338 -0.10858957 52.60795021 -0.13707352 C57.34883245 -0.15577245 62.08966186 -0.1609094 66.83057785 -0.16243744 C69.09261668 -0.16544924 71.35465491 -0.17342751 73.61665726 -0.18662262 C96.16457901 -0.30874158 96.16457901 -0.30874158 105.96240234 3.16113281 C106.8471524 3.4509906 107.73190247 3.74084839 108.64346313 4.03948975 C123.51592314 9.09271464 135.03522386 21.06482386 142.23583984 34.65332031 C147.26442444 44.86976593 149.10997973 53.89643843 149.12353516 65.19873047 C149.12850006 66.19470245 149.13346497 67.19067444 149.13858032 68.21682739 C149.15315177 71.50295715 149.15999638 74.78903859 149.16552734 78.07519531 C149.17128389 80.36957805 149.17704155 82.66396078 149.18280029 84.95834351 C149.1932967 89.76829247 149.19914795 94.57822479 149.20263672 99.38818359 C149.2081118 105.52778014 149.23212473 111.66715385 149.26060867 117.80668068 C149.2793076 122.54756292 149.28444456 127.28839233 149.2859726 132.02930832 C149.28898439 134.29134715 149.29696267 136.55338538 149.31015778 138.81538773 C149.43103411 161.13387298 146.25143434 179.37786292 130.39990234 196.34863281 C117.74166485 208.43062277 101.3990283 214.28812779 84.0859375 214.33813477 C83.09493042 214.34470596 82.10392334 214.35127716 81.08288574 214.35804749 C77.80574459 214.37774142 74.52864931 214.38943808 71.25146484 214.39941406 C69.56534655 214.40552735 69.56534655 214.40552735 67.84516525 214.41176414 C61.8886407 214.43261412 55.93213907 214.4469172 49.97558594 214.45629883 C43.85524538 214.46732556 37.73527215 214.5016856 31.61506081 214.54147053 C26.88263322 214.56776058 22.15029126 214.57600191 17.41779709 214.57958031 C15.16380728 214.58441889 12.90982059 214.59595385 10.65590286 214.6146183 C-11.10023228 214.78349597 -29.44206812 212.12740025 -45.89306641 196.34082031 C-46.60076172 195.62152344 -47.30845703 194.90222656 -48.03759766 194.16113281 C-48.61123047 193.58621094 -49.18486328 193.01128906 -49.77587891 192.41894531 C-60.81940929 180.49079105 -65.17972722 164.96813759 -65.19873047 149.12353516 C-65.20369537 148.12756317 -65.20866028 147.13159119 -65.21377563 146.10543823 C-65.22834708 142.81930848 -65.2351917 139.53322703 -65.24072266 136.24707031 C-65.2464792 133.95268758 -65.25223687 131.65830485 -65.25799561 129.36392212 C-65.26849201 124.55397315 -65.27434326 119.74404083 -65.27783203 114.93408203 C-65.28330711 108.79448549 -65.30732004 102.65511178 -65.33580399 96.51558495 C-65.35450291 91.7747027 -65.35963987 87.0338733 -65.36116791 82.29295731 C-65.3641797 80.03091848 -65.37215798 77.76888025 -65.38535309 75.5068779 C-65.50627721 53.17957021 -62.37310623 34.73708543 -46.28759766 17.91113281 C-33.20201005 5.47588315 -17.84850022 0.02140663 0 0 Z M-17.28759766 51.66113281 C-22.0603788 58.47939159 -22.18783048 65.34238813 -22.18286133 73.52392578 C-22.18621994 74.32979126 -22.18957855 75.13565674 -22.19303894 75.96594238 C-22.20248432 78.611751 -22.20448874 81.25749592 -22.20556641 83.90332031 C-22.20878318 85.755056 -22.21214757 87.60679144 -22.21565247 89.45852661 C-22.22162751 93.33352243 -22.22349401 97.208496 -22.22290039 101.08349609 C-22.2227988 106.03169512 -22.23645502 110.97975055 -22.2536726 115.92791557 C-22.26482824 119.75078986 -22.26681851 123.57362981 -22.26629066 127.39651871 C-22.26746525 129.22003805 -22.27185754 131.04355843 -22.27962303 132.86706161 C-22.28949625 135.42465845 -22.28651633 137.98194827 -22.28051758 140.53955078 C-22.28613708 141.28165802 -22.29175659 142.02376526 -22.29754639 142.7883606 C-22.25062334 150.7203264 -21.16118039 157.86644545 -16.03759766 164.16113281 C-8.79624812 170.6783474 -2.12097396 171.31200647 7.41113281 171.30639648 C8.2379657 171.3097551 9.06479858 171.31311371 9.91668701 171.3165741 C12.6376701 171.32603762 15.35859135 171.32802484 18.07958984 171.32910156 C19.97999089 171.33231717 21.8803917 171.33568147 23.78079224 171.33918762 C27.76011733 171.34516726 31.73942073 171.3470287 35.71875 171.34643555 C40.80495808 171.34633395 45.89102647 171.35998862 50.97720146 171.37720776 C54.90126172 171.38835338 58.82528848 171.39035397 62.74936295 171.38982582 C64.62394823 171.39100197 66.49853449 171.39540319 68.3731041 171.40315819 C71.00046186 171.41301058 73.6275197 171.4100595 76.25488281 171.40405273 C77.02085785 171.40967224 77.78683289 171.41529175 78.57601929 171.42108154 C86.26252946 171.37666903 92.79091893 170.07026734 98.96240234 165.16113281 C105.65237216 157.72783302 106.11360486 150.57644627 106.10766602 140.79833984 C106.11102463 139.99247437 106.11438324 139.18660889 106.11784363 138.35632324 C106.12728901 135.71051462 106.12929342 133.06476971 106.13037109 130.41894531 C106.13358787 128.56720962 106.13695225 126.71547418 106.14045715 124.86373901 C106.1464322 120.9887432 106.1482987 117.11376963 106.14770508 113.23876953 C106.14760349 108.29057051 106.16125971 103.34251507 106.17847729 98.39435005 C106.18963293 94.57147576 106.1916232 90.74863581 106.19109535 86.92574692 C106.19226994 85.10222758 106.19666222 83.27870719 106.20442772 81.45520401 C106.21430094 78.89760717 106.21132102 76.34031736 106.20532227 73.78271484 C106.21094177 73.0406076 106.21656128 72.29850037 106.22235107 71.53390503 C106.17542803 63.60193923 105.08598508 56.45582017 99.96240234 50.16113281 C92.7210528 43.64391823 86.04577865 43.01025916 76.51367188 43.01586914 C75.68683899 43.01251053 74.8600061 43.00915192 74.00811768 43.00569153 C71.28713459 42.99622801 68.56621334 42.99424078 65.84521484 42.99316406 C63.94481379 42.98994846 62.04441299 42.98658416 60.14401245 42.983078 C56.16468736 42.97709836 52.18538395 42.97523692 48.20605469 42.97583008 C43.11984661 42.97593167 38.03377822 42.96227701 32.94760323 42.94505787 C29.02354296 42.93391224 25.09951621 42.93191165 21.17544174 42.9324398 C19.30085646 42.93126365 17.4262702 42.92686244 15.55170059 42.91910744 C12.92434283 42.90925504 10.29728499 42.91220612 7.66992188 42.91821289 C6.52095932 42.90978363 6.52095932 42.90978363 5.3487854 42.90118408 C-3.57218838 42.9527293 -11.09152493 44.77660756 -17.28759766 51.66113281 Z " fill="#FFFFFF" transform="translate(342.03759765625,20.8388671875)"/>
<path d="M0 0 C1.49395798 -0.00744736 1.49395798 -0.00744736 3.01809692 -0.01504517 C6.30422668 -0.02961661 9.59030812 -0.03646123 12.87646484 -0.04199219 C15.17084758 -0.04774873 17.46523031 -0.0535064 19.75961304 -0.05926514 C24.569562 -0.06976154 29.37949432 -0.07561279 34.18945312 -0.07910156 C40.32904967 -0.08457665 46.46842338 -0.10858957 52.60795021 -0.13707352 C57.34883245 -0.15577245 62.08966186 -0.1609094 66.83057785 -0.16243744 C69.09261668 -0.16544924 71.35465491 -0.17342751 73.61665726 -0.18662262 C96.16457901 -0.30874158 96.16457901 -0.30874158 105.96240234 3.16113281 C106.8471524 3.4509906 107.73190247 3.74084839 108.64346313 4.03948975 C123.51592314 9.09271464 135.03522386 21.06482386 142.23583984 34.65332031 C147.26442444 44.86976593 149.10997973 53.89643843 149.12353516 65.19873047 C149.12850006 66.19470245 149.13346497 67.19067444 149.13858032 68.21682739 C149.15315177 71.50295715 149.15999638 74.78903859 149.16552734 78.07519531 C149.17128389 80.36957805 149.17704155 82.66396078 149.18280029 84.95834351 C149.1932967 89.76829247 149.19914795 94.57822479 149.20263672 99.38818359 C149.2081118 105.52778014 149.23212473 111.66715385 149.26060867 117.80668068 C149.2793076 122.54756292 149.28444456 127.28839233 149.2859726 132.02930832 C149.28898439 134.29134715 149.29696267 136.55338538 149.31015778 138.81538773 C149.43103411 161.13387298 146.25143434 179.37786292 130.39990234 196.34863281 C117.74166485 208.43062277 101.3990283 214.28812779 84.0859375 214.33813477 C83.09493042 214.34470596 82.10392334 214.35127716 81.08288574 214.35804749 C77.80574459 214.37774142 74.52864931 214.38943808 71.25146484 214.39941406 C69.56534655 214.40552735 69.56534655 214.40552735 67.84516525 214.41176414 C61.8886407 214.43261412 55.93213907 214.4469172 49.97558594 214.45629883 C43.85524538 214.46732556 37.73527215 214.5016856 31.61506081 214.54147053 C26.88263322 214.56776058 22.15029126 214.57600191 17.41779709 214.57958031 C15.16380728 214.58441889 12.90982059 214.59595385 10.65590286 214.6146183 C-11.10023228 214.78349597 -29.44206812 212.12740025 -45.89306641 196.34082031 C-46.60076172 195.62152344 -47.30845703 194.90222656 -48.03759766 194.16113281 C-48.61123047 193.58621094 -49.18486328 193.01128906 -49.77587891 192.41894531 C-60.81940929 180.49079105 -65.17972722 164.96813759 -65.19873047 149.12353516 C-65.20369537 148.12756317 -65.20866028 147.13159119 -65.21377563 146.10543823 C-65.22834708 142.81930848 -65.2351917 139.53322703 -65.24072266 136.24707031 C-65.2464792 133.95268758 -65.25223687 131.65830485 -65.25799561 129.36392212 C-65.26849201 124.55397315 -65.27434326 119.74404083 -65.27783203 114.93408203 C-65.28330711 108.79448549 -65.30732004 102.65511178 -65.33580399 96.51558495 C-65.35450291 91.7747027 -65.35963987 87.0338733 -65.36116791 82.29295731 C-65.3641797 80.03091848 -65.37215798 77.76888025 -65.38535309 75.5068779 C-65.50627721 53.17957021 -62.37310623 34.73708543 -46.28759766 17.91113281 C-33.20201005 5.47588315 -17.84850022 0.02140663 0 0 Z M-17.28759766 51.66113281 C-22.0603788 58.47939159 -22.18783048 65.34238813 -22.18286133 73.52392578 C-22.18621994 74.32979126 -22.18957855 75.13565674 -22.19303894 75.96594238 C-22.20248432 78.611751 -22.20448874 81.25749592 -22.20556641 83.90332031 C-22.20878318 85.755056 -22.21214757 87.60679144 -22.21565247 89.45852661 C-22.22162751 93.33352243 -22.22349401 97.208496 -22.22290039 101.08349609 C-22.2227988 106.03169512 -22.23645502 110.97975055 -22.2536726 115.92791557 C-22.26482824 119.75078986 -22.26681851 123.57362981 -22.26629066 127.39651871 C-22.26746525 129.22003805 -22.27185754 131.04355843 -22.27962303 132.86706161 C-22.28949625 135.42465845 -22.28651633 137.98194827 -22.28051758 140.53955078 C-22.28613708 141.28165802 -22.29175659 142.02376526 -22.29754639 142.7883606 C-22.25062334 150.7203264 -21.16118039 157.86644545 -16.03759766 164.16113281 C-8.79624812 170.6783474 -2.12097396 171.31200647 7.41113281 171.30639648 C8.2379657 171.3097551 9.06479858 171.31311371 9.91668701 171.3165741 C12.6376701 171.32603762 15.35859135 171.32802484 18.07958984 171.32910156 C19.97999089 171.33231717 21.8803917 171.33568147 23.78079224 171.33918762 C27.76011733 171.34516726 31.73942073 171.3470287 35.71875 171.34643555 C40.80495808 171.34633395 45.89102647 171.35998862 50.97720146 171.37720776 C54.90126172 171.38835338 58.82528848 171.39035397 62.74936295 171.38982582 C64.62394823 171.39100197 66.49853449 171.39540319 68.3731041 171.40315819 C71.00046186 171.41301058 73.6275197 171.4100595 76.25488281 171.40405273 C77.02085785 171.40967224 77.78683289 171.41529175 78.57601929 171.42108154 C86.26252946 171.37666903 92.79091893 170.07026734 98.96240234 165.16113281 C105.65237216 157.72783302 106.11360486 150.57644627 106.10766602 140.79833984 C106.11102463 139.99247437 106.11438324 139.18660889 106.11784363 138.35632324 C106.12728901 135.71051462 106.12929342 133.06476971 106.13037109 130.41894531 C106.13358787 128.56720962 106.13695225 126.71547418 106.14045715 124.86373901 C106.1464322 120.9887432 106.1482987 117.11376963 106.14770508 113.23876953 C106.14760349 108.29057051 106.16125971 103.34251507 106.17847729 98.39435005 C106.18963293 94.57147576 106.1916232 90.74863581 106.19109535 86.92574692 C106.19226994 85.10222758 106.19666222 83.27870719 106.20442772 81.45520401 C106.21430094 78.89760717 106.21132102 76.34031736 106.20532227 73.78271484 C106.21094177 73.0406076 106.21656128 72.29850037 106.22235107 71.53390503 C106.17542803 63.60193923 105.08598508 56.45582017 99.96240234 50.16113281 C92.7210528 43.64391823 86.04577865 43.01025916 76.51367188 43.01586914 C75.68683899 43.01251053 74.8600061 43.00915192 74.00811768 43.00569153 C71.28713459 42.99622801 68.56621334 42.99424078 65.84521484 42.99316406 C63.94481379 42.98994846 62.04441299 42.98658416 60.14401245 42.983078 C56.16468736 42.97709836 52.18538395 42.97523692 48.20605469 42.97583008 C43.11984661 42.97593167 38.03377822 42.96227701 32.94760323 42.94505787 C29.02354296 42.93391224 25.09951621 42.93191165 21.17544174 42.9324398 C19.30085646 42.93126365 17.4262702 42.92686244 15.55170059 42.91910744 C12.92434283 42.90925504 10.29728499 42.91220612 7.66992188 42.91821289 C6.52095932 42.90978363 6.52095932 42.90978363 5.3487854 42.90118408 C-3.57218838 42.9527293 -11.09152493 44.77660756 -17.28759766 51.66113281 Z " fill="#FFFFFF" transform="translate(86.03759765625,20.8388671875)"/>
</svg>
