<?xml version="1.0" encoding="UTF-8"?>
<svg version="1.1" xmlns="http://www.w3.org/2000/svg" width="512" height="512">
<path d="M0 0 C7.39582168 6.00406491 14.05859273 12.91889588 20.77392578 19.66040039 C21.8096552 20.6964127 22.84560649 21.73220324 23.88175964 22.76779175 C26.66224663 25.54799476 29.43966484 28.33124446 32.21649408 31.11510015 C35.13078711 34.03569385 38.04795983 36.9534085 40.96481323 39.8714447 C46.47367694 45.38340209 51.97998913 50.89790092 57.48536289 56.41334385 C63.75917466 62.69837809 70.03586568 68.98053361 76.31278634 75.26246274 C89.21170439 88.17180067 102.10704722 101.08470449 115 114 C118.5902231 112.4781391 120.87439714 110.36559154 123.60993958 107.61038208 C124.53087906 106.68785645 125.45181854 105.76533081 126.40066528 104.81484985 C127.4140827 103.78957003 128.42741606 102.76420713 129.44067383 101.73876953 C130.5131832 100.66078358 131.58615745 99.58325997 132.65956116 98.50616455 C134.96937009 96.18664709 137.27608286 93.86410872 139.58051491 91.53924942 C143.22718248 87.86074985 146.88201457 84.19043655 150.53825378 80.52145386 C159.62023349 71.40539566 168.69292738 62.28011061 177.76068115 53.14990234 C184.8049344 46.05715481 191.85237001 38.96764367 198.91043681 31.88863838 C202.54273861 28.24483519 206.16799187 24.5942065 209.78806841 20.93825936 C212.04635412 18.66072607 214.31092538 16.38952318 216.57726097 14.12000275 C217.62354017 13.06971824 218.66724442 12.01686102 219.70809937 10.96120071 C233.02164421 -2.53477628 233.02164421 -2.53477628 243.75 -3.25 C250.40574635 -3.15084549 256.28155131 -0.71844869 261 4 C265.26765908 10.17080434 266.67246621 15.53425265 266 23 C264.71634183 28.92457617 262.2435083 32.06182574 258.12860107 36.49023438 C257.64245354 37.01366173 257.15630601 37.53708908 256.65542674 38.07637787 C251.14494757 43.97439214 245.45915908 49.69665664 239.75488281 55.40625 C238.57232892 56.59344784 237.38996676 57.78083669 236.20777893 58.96839905 C233.03491849 62.15421626 229.85887315 65.33683811 226.68176746 68.51842117 C224.6923688 70.51077216 222.70354943 72.50369969 220.71489716 74.49679565 C214.47815391 80.7471569 208.23945472 86.9955558 201.99784112 93.24105358 C194.81674423 100.4266461 187.64226736 107.6187642 180.47336888 114.81652641 C174.90895919 120.40255588 169.33879479 125.98280402 163.76423335 131.55870247 C160.44338969 134.88059203 157.1250002 138.20484628 153.81259918 141.53515625 C150.70334439 144.66090133 147.58699344 147.77939346 144.46510124 150.89251518 C143.3237118 152.03313533 142.18486643 153.17630806 141.0488224 154.32225227 C139.4932269 155.89060359 137.92856365 157.44933434 136.36138916 159.00610352 C135.48983311 159.87912613 134.61827705 160.75214874 133.72031021 161.65162659 C127.7473978 166.80788731 122.08896337 169.39004894 114.1328125 169.19921875 C100.56717002 167.9320983 90.73332901 153.88619047 81.63720703 144.79833984 C80.43060183 143.59637495 79.22380403 142.39460339 78.01683044 141.19300842 C74.76889369 137.95806767 71.52418717 134.71990696 68.28050852 131.48069715 C66.25031367 129.45344956 64.21954009 127.42678341 62.18859482 125.40028763 C55.82288978 119.04821413 49.45915776 112.69417396 43.09832585 106.33722055 C35.77461428 99.01800084 28.44438592 91.70539074 21.10848916 84.39838445 C15.42058969 78.73210547 9.73847197 73.06007089 4.06070411 67.38363993 C0.67618663 64.00016876 -2.71070036 60.61915488 -6.10363388 57.24412155 C-9.29008946 54.07415636 -12.46929346 50.89709338 -15.64312553 47.71449089 C-16.80631968 46.55052732 -17.97206734 45.38910892 -19.14058495 44.23048973 C-20.73969316 42.6441337 -22.32919051 41.04870924 -23.91671753 39.45077515 C-24.80708647 38.56187277 -25.69745541 37.67297039 -26.61480522 36.75713158 C-31.80329928 30.75956654 -34.33767735 25.13534231 -34.21875 17.15234375 C-33.62385155 11.29896793 -31.15069192 6.15069192 -27 2 C-18.67291433 -3.75891906 -9.06118768 -5.24840719 0 0 Z " fill="#000000" transform="translate(140,173)"/>
</svg>
