<?xml version="1.0" encoding="UTF-8"?>
<svg version="1.1" xmlns="http://www.w3.org/2000/svg" width="512" height="512">
<path d="M0 0 C2.19312502 -0.00543187 4.38624639 -0.01256046 6.57936096 -0.02124023 C12.49054872 -0.03934974 18.40145469 -0.03245744 24.31264687 -0.01972389 C30.52578057 -0.00953173 36.73889162 -0.01900672 42.95202637 -0.02526855 C54.04827151 -0.03299065 65.14439306 -0.02063179 76.24061841 -0.00023121 C86.26871084 0.01763588 96.29661794 0.01453055 106.32470703 -0.00390625 C118.01520357 -0.02531309 129.70558444 -0.03323934 141.39609766 -0.0214572 C147.56793822 -0.0152506 153.7396516 -0.01430815 159.91148376 -0.02760315 C165.71640031 -0.03923638 171.52097008 -0.03100031 177.32584953 -0.00802612 C179.44448715 -0.00277874 181.56315441 -0.00418385 183.68177986 -0.01307678 C198.9594558 -0.07124724 213.47251589 0.90064361 227.22070312 8.33007812 C227.88046143 8.67264648 228.54021973 9.01521484 229.2199707 9.36816406 C234.53837538 12.20691407 239.226482 15.57155158 243.78320312 19.51757812 C244.98976563 20.43023438 244.98976563 20.43023438 246.22070312 21.36132812 C253.48462748 27.47365472 258.82627891 35.95537133 263.15820312 44.33007812 C263.46733643 44.90790039 263.77646973 45.48572266 264.0949707 46.08105469 C271.94585828 62.0684717 271.46799064 79.04612623 271.40759277 96.44177246 C271.40841019 99.13809152 271.44629481 101.83342946 271.48324013 104.52945614 C271.51994987 107.78459287 271.51234376 111.03961573 271.50976562 114.29492188 C271.52818512 115.48883041 271.54660461 116.68273895 271.56558228 117.91282654 C271.47980727 125.685727 270.03788895 130.68348735 264.78320312 136.51757812 C259.41589582 141.10215312 254.19183872 141.24388178 247.23632812 141.02929688 C242.05561881 140.26156733 238.35831496 138.3395073 234.78320312 134.51757812 C230.63736415 128.61466534 230.20653884 124.08656355 230.24414062 116.97460938 C230.22645126 115.46733528 230.22645126 115.46733528 230.20840454 113.92961121 C230.17326098 110.72960871 230.16399399 107.53025736 230.15820312 104.33007812 C230.6916754 75.78127352 230.6916754 75.78127352 217.14257812 51.56054688 C204.30713321 40.44641162 188.05175168 41.21969728 172.12182617 41.24291992 C170.14294239 41.2385666 168.16406029 41.23338139 166.18518066 41.22743225 C160.83586993 41.21409719 155.48663008 41.21345749 150.13730597 41.21599555 C145.65950642 41.21706909 141.18172099 41.21217209 136.70392448 41.20739013 C126.13309049 41.19631374 115.56229205 41.19584689 104.99145508 41.2019043 C94.11410867 41.20794186 83.23689168 41.19563425 72.35956734 41.17433423 C62.99528931 41.15667649 53.63105232 41.15072348 44.26675826 41.15397197 C38.68512913 41.15577846 33.10359232 41.15321231 27.52197838 41.13925743 C22.26957659 41.12661581 17.01737546 41.12868277 11.7649765 41.14166832 C9.84706617 41.14401998 7.92914143 41.14135057 6.01124763 41.1330452 C-9.74240499 41.06979058 -25.22055419 41.3022919 -37.46679688 52.59179688 C-48.9799858 64.71874036 -49.52678979 79.21799056 -49.47076416 95.24316406 C-49.47307337 96.69689972 -49.47625296 98.15063422 -49.48021865 99.6043663 C-49.48851212 103.56747301 -49.48446637 107.5304825 -49.47824621 111.4935894 C-49.47370026 115.7799531 -49.48071607 120.06630069 -49.48620605 124.35266113 C-49.4950789 132.73716265 -49.49318746 141.12162827 -49.48738077 149.50613117 C-49.48285598 156.32306016 -49.48225491 163.13997912 -49.48442841 169.95690918 C-49.48473487 170.92874578 -49.48504134 171.90058239 -49.48535709 172.90186858 C-49.48599657 174.8764054 -49.486645 176.85094222 -49.48730227 178.82547903 C-49.49299939 197.32172163 -49.48645738 215.81794437 -49.47570154 234.31418371 C-49.4667666 250.16975221 -49.46831881 266.02529141 -49.47753906 281.88085938 C-49.48825262 300.31289782 -49.49245013 318.74491887 -49.48631454 337.17695999 C-49.48567747 339.14405568 -49.48504872 341.11115137 -49.48442841 343.07824707 C-49.48411985 344.04598549 -49.4838113 345.0137239 -49.4834934 346.01078773 C-49.48176972 352.81607466 -49.48467451 359.62135052 -49.48938751 366.42663574 C-49.49500841 374.72493336 -49.49345451 383.02319316 -49.48282602 391.32148647 C-49.47758557 395.55183429 -49.47548473 399.78211914 -49.48212433 404.01246643 C-49.48811971 407.89114588 -49.48474998 411.76970451 -49.47416922 415.64837313 C-49.47195032 417.04525652 -49.47303718 418.4421503 -49.4779208 419.83902693 C-49.52555731 434.60701795 -48.42070354 448.90198513 -38.09179688 460.39257812 C-24.83049917 472.33943002 -8.19811434 471.81481198 8.4921875 471.77636719 C10.47593819 471.77908101 12.45968788 471.78264414 14.44343567 471.7869873 C19.80494748 471.79606697 25.1663819 471.79258535 30.52789497 471.78622913 C36.15348638 471.78114619 41.7790714 471.78586695 47.40466309 471.78900146 C56.84970279 471.79263443 66.29471116 471.78785958 75.73974609 471.77832031 C86.64098481 471.76743707 97.5421487 471.77096312 108.4433856 471.78197312 C117.82290138 471.79106508 127.20239471 471.79232195 136.58191347 471.78709579 C142.17516079 471.78398658 147.76837301 471.78353783 153.36161804 471.79016876 C158.62136505 471.79596938 163.88101609 471.79189578 169.14075279 471.78038025 C171.06475859 471.77774816 172.98877254 471.77847379 174.91277504 471.78290558 C191.40956355 471.81738534 206.20657047 471.38964167 218.96289062 459.53710938 C228.81790896 448.60353753 229.91959243 435.81937859 229.88867188 421.77148438 C229.90212263 419.69660415 229.91714481 417.62173362 229.93359375 415.546875 C229.95642411 412.31011903 229.9706816 409.07447268 229.95825195 405.83764648 C229.94940095 402.68980002 229.9784004 399.54410733 230.01367188 396.39648438 C230.00144089 395.43996475 229.9892099 394.48344513 229.97660828 393.49794006 C230.10335209 386.40462221 232.16194795 381.89454565 236.78320312 376.51757812 C242.15051043 371.93300313 247.37456753 371.79127447 254.33007812 372.00585938 C259.51078744 372.77358892 263.20809129 374.69564895 266.78320312 378.51757812 C271.54199121 384.93697916 271.36698405 390.73215492 271.31445312 398.54492188 C271.31828003 399.80663712 271.32210693 401.06835236 271.3260498 402.36830139 C271.32876787 405.03751795 271.32344937 407.7052623 271.3046875 410.37426758 C271.28657365 413.07905301 271.28629655 415.78276548 271.3046875 418.48754883 C271.52494672 453.12542886 271.52494672 453.12542886 262.97070312 468.95507812 C262.62813477 469.61483643 262.28556641 470.27459473 261.93261719 470.9543457 C259.09386718 476.27275038 255.72922967 480.960857 251.78320312 485.51757812 C251.17476563 486.32195312 250.56632812 487.12632812 249.93945312 487.95507812 C243.82712653 495.21900248 235.34540992 500.56065391 226.97070312 504.89257812 C226.10396973 505.35627808 226.10396973 505.35627808 225.21972656 505.8293457 C210.95790641 512.83285019 196.0786877 513.10026906 180.56640625 513.03515625 C178.37328123 513.04058812 176.18015986 513.04771671 173.98704529 513.05639648 C168.07585753 513.07450599 162.16495156 513.06761369 156.25375938 513.05488014 C150.04062568 513.04468798 143.82751463 513.05416297 137.61437988 513.0604248 C126.51813474 513.0681469 115.42201319 513.05578804 104.32578784 513.03538746 C94.29769541 513.01752037 84.26978831 513.0206257 74.24169922 513.0390625 C62.55120268 513.06046934 50.86082181 513.06839559 39.17030859 513.05661345 C32.99846803 513.05040685 26.82675465 513.0494644 20.65492249 513.0627594 C14.85000594 513.07439263 9.04543617 513.06615656 3.24055672 513.04318237 C1.1219191 513.03793499 -0.99674816 513.0393401 -3.11537361 513.04823303 C-18.39304955 513.10640349 -32.90610964 512.13451264 -46.65429688 504.70507812 C-47.31405518 504.36250977 -47.97381348 504.01994141 -48.65356445 503.66699219 C-53.97196913 500.82824218 -58.66007575 497.46360467 -63.21679688 493.51757812 C-64.02117187 492.90914063 -64.82554688 492.30070312 -65.65429688 491.67382812 C-72.91822123 485.56150153 -78.25987266 477.07978492 -82.59179688 468.70507812 C-83.05549683 467.83834473 -83.05549683 467.83834473 -83.52856445 466.95410156 C-89.47227846 454.85042113 -90.81238902 441.70733099 -90.72473145 428.42675781 C-90.72935396 426.87342116 -90.73571584 425.32008891 -90.74364042 423.76676559 C-90.76017182 419.5466912 -90.75216218 415.32698364 -90.73969555 411.1069088 C-90.73058023 406.53694687 -90.74464666 401.9670445 -90.75561523 397.39709473 C-90.77333637 388.46365511 -90.76958915 379.53035046 -90.75796467 370.59690571 C-90.7489053 363.33196728 -90.74771715 356.06706649 -90.75205994 348.80212402 C-90.75267287 347.7653756 -90.7532858 346.72862718 -90.75391731 345.66046214 C-90.7551963 343.55386638 -90.75649315 341.44727062 -90.75780767 339.34067488 C-90.76919471 319.61961094 -90.75612927 299.89862157 -90.73460621 280.17756987 C-90.71673695 263.28175406 -90.71984158 246.3860482 -90.73828125 229.49023438 C-90.75972117 209.8363578 -90.76809625 190.18254646 -90.7558322 170.52865982 C-90.75455809 168.4301173 -90.75330061 166.33157477 -90.75205994 164.23303223 C-90.75144283 163.20069796 -90.75082573 162.1683637 -90.75018993 161.10474658 C-90.74674639 153.85444231 -90.75254383 146.60417966 -90.76197815 139.35388184 C-90.77323426 130.50971773 -90.77008247 121.66569551 -90.74885517 112.82154751 C-90.73839318 108.31518185 -90.73413941 103.80905214 -90.74745178 99.3026886 C-90.759483 95.1672473 -90.75263914 91.03225783 -90.73154157 86.89685678 C-90.72712046 85.41119657 -90.72923889 83.92549716 -90.73904473 82.43986273 C-90.82004028 69.1345726 -88.80595417 55.92636103 -82.40429688 44.08007812 C-82.06172852 43.42031982 -81.71916016 42.76056152 -81.36621094 42.08081055 C-78.52746093 36.76240587 -75.16282342 32.07429925 -71.21679688 27.51757812 C-70.60835937 26.71320312 -69.99992187 25.90882812 -69.37304688 25.08007812 C-63.26072028 17.81615377 -54.77900367 12.47450234 -46.40429688 8.14257812 C-45.82647461 7.83344482 -45.24865234 7.52431152 -44.65332031 7.20581055 C-30.39150016 0.20230606 -15.51228145 -0.06511281 0 0 Z " fill="#EE4C2C" transform="translate(90.216796875,-0.517578125)"/>
<path d="M0 0 C1.63001953 -0.07347656 1.63001953 -0.07347656 3.29296875 -0.1484375 C12.86100498 1.27455568 19.57968321 9.68397517 26.1015625 16.23046875 C27.17398625 17.29832071 28.24677763 18.36580358 29.31991577 19.43293762 C31.55882113 21.66295003 33.79202015 23.89848971 36.02148438 26.13793945 C38.85831324 28.98624277 41.71066456 31.81840103 44.56778908 34.64632702 C46.78499981 36.8450593 48.99268228 39.05317391 51.19782639 41.26400185 C52.24477803 42.31110534 53.29477572 43.35517358 54.34804153 44.39592552 C66.64926316 56.57146624 74.12941412 68.7529843 74.3125 86.375 C74.11627237 105.26190945 65.26153578 117.56908224 52.28125 130.40234375 C51.16010907 131.52364002 50.03963773 132.64560615 48.9197998 133.76820374 C46.5861187 136.10326005 44.2457012 138.43126944 41.89990234 140.75415039 C38.90213846 143.72341667 35.92032537 146.70812333 32.94313812 149.69800472 C30.63756857 152.01054246 28.32466771 154.31563185 26.00941467 156.61847115 C24.90701382 157.71637675 23.80666777 158.81634979 22.70848083 159.91847038 C21.17291247 161.45696514 19.62793529 162.9853567 18.08007812 164.51147461 C16.76819519 165.81525307 16.76819519 165.81525307 15.42980957 167.14537048 C9.49624876 172.20004283 4.5137086 172.92079385 -3.05859375 172.72265625 C-8.77252181 172.08777535 -12.18131106 169.69638363 -16 165.4375 C-20.08658668 159.71627864 -21.34135573 154.36658342 -20.1875 147.375 C-17.72167145 140.84168849 -13.74828106 136.39467747 -8.796875 131.59375 C-8.09226135 130.89479614 -7.38764771 130.19584229 -6.66168213 129.47570801 C-4.42957484 127.2658246 -2.18390988 125.07033321 0.0625 122.875 C1.58685851 121.37072441 3.11030575 119.86552478 4.6328125 118.359375 C8.34890376 114.68716523 12.07620057 111.02664094 15.8125 107.375 C14.55813172 107.37537703 13.30376345 107.37575405 12.01138401 107.3761425 C-17.78002276 107.38375996 -47.57123094 107.36046166 -77.36256826 107.29920971 C-81.03118113 107.29169387 -84.69979449 107.28443834 -88.3684082 107.27734375 C-89.09874803 107.275927 -89.82908785 107.27451025 -90.58155919 107.27305056 C-102.39954678 107.25074585 -114.21744703 107.24951837 -126.0354498 107.25611137 C-138.16625595 107.26240853 -150.29687869 107.24598296 -162.42762953 107.20856392 C-169.91009946 107.18619633 -177.3921512 107.18144911 -184.87463481 107.19940336 C-190.61699282 107.21128124 -196.3589092 107.19150954 -202.10117722 107.16004753 C-204.45333095 107.15208608 -206.80554507 107.15432888 -209.15767479 107.16760826 C-212.37392768 107.18422899 -215.5879468 107.16387196 -218.80406189 107.13449097 C-219.73112865 107.14807707 -220.65819541 107.16166317 -221.6133551 107.17566097 C-228.52164321 107.05333061 -232.94408921 104.8401271 -238.1875 100.375 C-242.77207499 95.00769269 -242.91380365 89.78363559 -242.69921875 82.828125 C-241.9314892 77.64741569 -240.00942918 73.95011183 -236.1875 70.375 C-230.37189495 66.32218565 -226.03933476 65.79783099 -219.04457092 65.85601807 C-218.03811962 65.84851681 -217.03166832 65.84101556 -215.99471849 65.833287 C-212.63046415 65.8130265 -209.26688481 65.82110961 -205.90258789 65.82910156 C-203.48778619 65.82036571 -201.07299029 65.80987988 -198.65820312 65.79777527 C-193.46356905 65.77566903 -188.26906336 65.76571335 -183.0743885 65.76688385 C-175.56385508 65.76855506 -168.05350726 65.74819846 -160.5430234 65.72252855 C-148.35673493 65.68147268 -136.17047992 65.65814103 -123.98413086 65.64599609 C-112.14881171 65.63416294 -100.3135555 65.61395724 -88.47827148 65.58251953 C-87.74829663 65.58058343 -87.01832178 65.57864733 -86.26622648 65.57665256 C-82.60402308 65.56688779 -78.94182016 65.55695871 -75.27961743 65.54694796 C-44.91560653 65.46415932 -14.55160524 65.41044847 15.8125 65.375 C15.20235298 64.77817665 15.20235298 64.77817665 14.57987976 64.16929626 C10.33377175 60.01194287 6.10201782 55.84036941 1.87817383 51.66040039 C0.30170607 50.10400059 -1.27833937 48.55121571 -2.86206055 47.00219727 C-5.14289979 44.77008472 -7.41039411 42.52512422 -9.67578125 40.27734375 C-10.73530754 39.24878517 -10.73530754 39.24878517 -11.8162384 38.19944763 C-16.99889667 33.01916015 -20.6122687 28.08901373 -20.625 20.4375 C-20.40574171 14.41703282 -18.65092152 9.94479654 -14.46875 5.58203125 C-9.77964258 1.39958586 -6.35055502 0.19356909 0 0 Z " fill="#EE4C2C" transform="translate(438.1875,170.625)"/>
</svg>
