<?xml version="1.0" encoding="UTF-8"?>
<svg version="1.1" xmlns="http://www.w3.org/2000/svg" width="512" height="512">
  <path
    d="M0 0 C9.37961181 6.87941727 17.14026108 16.68567722 19.421875 28.35546875 C19.57048308 30.74380022 19.66965927 33.13537749 19.73828125 35.52734375 C19.75906235 36.20976135 19.77984344 36.89217896 19.80125427 37.59527588 C19.86639552 39.76524231 19.92546904 41.93532499 19.984375 44.10546875 C20.02759397 45.58074096 20.07120932 47.05600162 20.11523438 48.53125 C20.22204018 52.13920041 20.32340653 55.74728008 20.421875 59.35546875 C21.42863281 59.67257813 22.43539063 59.9896875 23.47265625 60.31640625 C45.38019997 67.47914716 64.41641257 78.92605466 80.94970703 94.93457031 C82.4357185 96.36883014 83.94147583 97.78004651 85.44921875 99.19140625 C111.60912528 124.05676728 128.76733773 161.37276673 129.72485352 197.55664062 C129.75925187 200.14572853 129.78415918 202.7349557 129.80078125 205.32421875 C129.81703697 206.73507752 129.83422465 208.14592581 129.85227966 209.5567627 C129.89751034 213.24417107 129.93250112 216.93159617 129.96447754 220.61914062 C129.83813698 255.78556157 129.83813698 255.78556157 133.109375 290.73046875 C133.28235107 291.85839844 133.45532715 292.98632812 133.63354492 294.1484375 C141.27789717 341.50953511 163.34838045 381.77843289 194.4140625 417.65625 C199.23742491 423.22965681 199.77317868 426.05533429 199.703125 433.3671875 C199.3273444 437.35985639 198.17023065 439.45855334 195.421875 442.35546875 C191.63840429 445.0718673 189.06155659 445.7285183 184.42973328 445.7162323 C183.22805008 445.72035629 182.02636688 445.72448029 180.78826904 445.72872925 C179.47844055 445.71794342 178.16861206 445.70715759 176.8190918 445.69604492 C175.41935749 445.69519828 174.01962184 445.69567452 172.61988831 445.69737244 C168.82679978 445.69823236 165.03399649 445.68060723 161.24097419 445.65965056 C157.27449986 445.64088323 153.30801883 445.63913328 149.34150696 445.63557434 C141.83342542 445.62625403 134.32547509 445.60164047 126.8174513 445.57152587 C118.26854434 445.5379814 109.71963108 445.52149574 101.17067468 445.50643957 C83.58766559 445.47509088 66.00478417 445.42233069 48.421875 445.35546875 C48.22362122 446.17626419 48.02536743 446.99705963 47.82110596 447.84272766 C47.55690857 448.92112411 47.29271118 449.99952057 47.02050781 451.1105957 C46.76037903 452.17889114 46.50025024 453.24718658 46.23223877 454.34785461 C43.62369686 464.02929375 38.07886287 472.94231187 31.421875 480.35546875 C30.69355469 481.17660156 29.96523438 481.99773437 29.21484375 482.84375 C16.73788461 496.12697467 -0.82286316 504.95875446 -19.1796875 505.69140625 C-40.73986767 506.01850661 -60.68967745 501.86188148 -76.62475586 486.41699219 C-77.95757467 485.07794417 -79.2685943 483.71730021 -80.578125 482.35546875 C-81.24199219 481.69933594 -81.90585938 481.04320312 -82.58984375 480.3671875 C-90.67404781 471.88331492 -99.578125 457.38932116 -99.578125 445.35546875 C-100.30442423 445.35915592 -101.03072346 445.36284309 -101.77903175 445.366642 C-119.4562341 445.45500173 -137.13338031 445.52118255 -154.81075478 445.56271744 C-163.35943155 445.58333759 -171.90796085 445.61144766 -180.45654297 445.65722656 C-187.90800112 445.69711116 -195.35935247 445.72290554 -202.8109144 445.73182273 C-206.75605197 445.73703477 -210.70088402 445.74927327 -214.64592361 445.77838898 C-218.36088728 445.80558394 -222.07542019 445.81390565 -225.79047394 445.80789948 C-227.80040486 445.80952078 -229.8102891 445.83102221 -231.82009888 445.85314941 C-242.84368098 445.80276539 -242.84368098 445.80276539 -247.578125 441.35546875 C-251.07313696 436.82159973 -251.21290156 432.91363997 -251.04296875 427.33984375 C-250.28123392 422.44937814 -247.94061716 419.84548057 -244.578125 416.35546875 C-236.87868083 408.07823034 -230.03175306 399.6310347 -223.578125 390.35546875 C-222.45277344 388.74091797 -222.45277344 388.74091797 -221.3046875 387.09375 C-191.44625869 342.41389895 -181.87283529 293.29055019 -181.3671875 240.46484375 C-181.35271846 239.04422484 -181.33822754 237.62360614 -181.32371521 236.20298767 C-181.26576261 230.36291314 -181.21012804 224.52289077 -181.17675781 218.68261719 C-180.98638778 187.10304766 -180.98638778 187.10304766 -177.578125 173.35546875 C-177.37977051 172.49920898 -177.18141602 171.64294922 -176.97705078 170.76074219 C-170.720874 145.40765656 -158.35783332 122.70302361 -140.62109375 103.609375 C-139.2025989 102.04441988 -137.84214464 100.4256615 -136.53125 98.76953125 C-133.59528886 95.14068328 -130.17263235 92.31632897 -126.578125 89.35546875 C-125.65 88.58976562 -124.721875 87.8240625 -123.765625 87.03515625 C-108.06538989 74.51421875 -90.66587414 65.49667326 -71.578125 59.35546875 C-71.57401611 58.48446533 -71.56990723 57.61346191 -71.56567383 56.71606445 C-71.53836141 53.41825389 -71.4889384 50.12219352 -71.42553711 46.82495117 C-71.40264091 45.41035041 -71.38802954 43.99558605 -71.38256836 42.58081055 C-71.3127491 27.45151356 -67.51118832 15.79584184 -56.99609375 4.68359375 C-41.74951 -9.70977485 -17.37512065 -11.0832209 0 0 Z M-36.578125 28.35546875 C-42.22025699 35.9431635 -40.578125 43.89491975 -40.578125 53.35546875 C-30.678125 53.35546875 -20.778125 53.35546875 -10.578125 53.35546875 C-9.66288253 39.93215623 -9.66288253 39.93215623 -15.015625 28.54296875 C-19.62904883 24.60468012 -22.16830913 23.91000995 -28.0703125 24.0390625 C-31.77034413 24.50588892 -33.83626197 25.88110455 -36.578125 28.35546875 Z M-116.80419922 123.21484375 C-143.19970322 150.61011781 -150.59431494 185.53853193 -150.77735519 222.3873291 C-150.78948767 224.621254 -150.80901287 226.85501326 -150.83047485 229.08886719 C-150.89096238 235.42914007 -150.94572373 241.76938636 -150.97949219 248.10986328 C-151.08224174 266.38838023 -151.41383889 284.29224762 -154.578125 302.35546875 C-154.78179687 303.54060059 -154.98546875 304.72573242 -155.1953125 305.94677734 C-155.70391368 308.66272543 -156.27032381 311.35062553 -156.890625 314.04296875 C-157.21027222 315.45654663 -157.21027222 315.45654663 -157.53637695 316.89868164 C-164.94592653 348.86191775 -178.09558248 379.20711875 -196.578125 406.35546875 C-198.558125 409.32546875 -200.538125 412.29546875 -202.578125 415.35546875 C-85.758125 415.35546875 31.061875 415.35546875 151.421875 415.35546875 C149.441875 412.38546875 147.461875 409.41546875 145.421875 406.35546875 C121.90047425 370.81002983 106.77218278 331.70559323 101.421875 289.35546875 C101.33648972 288.69415955 101.25110443 288.03285034 101.16313171 287.35150146 C100.33386902 280.18436578 100.24371299 273.02812669 100.19207954 265.82169342 C100.1753528 263.56324476 100.15210266 261.30494219 100.12718201 259.04656982 C100.05732028 252.63122176 99.99704234 246.21581048 99.94506836 239.80029297 C99.54829549 192.12052148 94.8512578 152.2429453 59.5625 117.12939453 C9.36324562 68.76212443 -69.28166062 75.45518066 -116.80419922 123.21484375 Z M-67.578125 445.35546875 C-61.12920842 458.25330191 -56.02726707 465.0423967 -43.578125 471.35546875 C-42.91683594 471.69707031 -42.25554687 472.03867187 -41.57421875 472.390625 C-32.5099722 476.20434909 -19.71927989 475.83297019 -10.515625 472.73046875 C3.23041863 466.73104695 9.63686892 458.9254809 16.421875 445.35546875 C-11.298125 445.35546875 -39.018125 445.35546875 -67.578125 445.35546875 Z "
    fill="#FFFFFF"
    transform="translate(281.578125,6.64453125)"
  />
  <path
    d="M0 0 C6.22648141 3.48343112 10.66198421 9.35713113 15.1875 14.75 C15.68330566 15.3378125 16.17911133 15.925625 16.68994141 16.53125 C43.2041111 48.20830115 59.9164321 85.14108577 67.1875 125.75 C67.414375 127.00296875 67.64125 128.2559375 67.875 129.546875 C69.20478805 138.30131303 69.44742936 147.03099965 69.5625 155.875 C69.58860352 157.04998047 69.61470703 158.22496094 69.64160156 159.43554688 C69.66312167 170.09107641 69.66312167 170.09107641 65.1875 174.75 C59.96490143 178.80630398 54.53409858 178.52397544 48.1875 177.75 C43.67415736 175.61210085 41.24464674 173.297377 39.1875 168.75 C38.40589514 164.78733254 38.01859244 160.9134977 37.828125 156.8828125 C35.29022732 110.06634186 19.56631604 66.88860278 -12.6875 32.375 C-22.94153306 21.35079503 -22.94153306 21.35079503 -23.4375 14.25 C-23.12351926 9.20886484 -21.14114882 5.49143641 -17.8125 1.75 C-12.29809521 -2.17135452 -6.17834481 -2.48902644 0 0 Z "
    fill="#FFFFFF"
    transform="translate(411.8125,52.25)"
  />
  <path
    d="M0 0 C4.14812733 2.30362023 6.37627159 4.90579793 7.8125 9.4375 C8.73455842 14.32001888 8.31215733 18.17855851 5.8125 22.5 C3.28768656 26.10385383 0.26678797 29.02175803 -2.890625 32.06640625 C-21.72788724 51.51235553 -34.42920197 76.09317506 -43.1875 101.4375 C-43.56648438 102.52732178 -43.56648438 102.52732178 -43.953125 103.63916016 C-49.64626815 120.382536 -52.50904221 138.18255317 -52.86035156 155.84301758 C-53.01108193 162.24700264 -53.3354127 168.25298677 -57.625 173.3125 C-62.73512778 177.55016694 -65.74424991 177.87148098 -72.234375 177.75390625 C-76.1925156 177.32981976 -78.31061819 176.16684941 -81.1875 173.4375 C-83.72197844 169.84422862 -84.57530627 167.37491947 -84.62109375 162.9921875 C-84.63253418 161.92895264 -84.64397461 160.86571777 -84.65576172 159.77026367 C-84.64561035 158.62920166 -84.63545898 157.48813965 -84.625 156.3125 C-84.61742676 155.12052002 -84.60985352 153.92854004 -84.60205078 152.70043945 C-83.65565231 100.0717042 -61.76685041 48.12093161 -25.625 10.05078125 C-23.84597668 8.14346297 -22.21279307 6.25026037 -20.5859375 4.22265625 C-15.10508129 -2.14192108 -7.54301667 -3.24070346 0 0 Z "
    fill="#FFFFFF"
    transform="translate(115.1875,52.5625)"
  />
</svg>
