<?xml version="1.0" encoding="UTF-8"?>
<svg version="1.1" xmlns="http://www.w3.org/2000/svg" width="512" height="512">
<path d="M0 0 C1.22733575 -0.00445784 2.4546715 -0.00891569 3.71919924 -0.01350862 C5.08329937 -0.01341932 6.44739949 -0.01322948 7.8114996 -0.01294994 C9.25904293 -0.01624959 10.70658534 -0.01997537 12.15412658 -0.02409142 C16.13720782 -0.03410824 20.12027398 -0.03782771 24.10336602 -0.04048073 C28.39734959 -0.04438476 32.69132124 -0.05396307 36.9852972 -0.0626936 C47.35826105 -0.08245577 57.73122588 -0.09252415 68.10420385 -0.10142139 C72.98962731 -0.1058049 77.87504969 -0.11117157 82.7604723 -0.11641026 C99.00201759 -0.13342269 115.24356221 -0.14791654 131.48511505 -0.155159 C135.69986185 -0.15706888 139.91460865 -0.15898921 144.12935543 -0.16094494 C145.7006789 -0.16167055 145.7006789 -0.16167055 147.30374628 -0.16241082 C164.27072648 -0.17070989 181.23763615 -0.19604467 198.20458556 -0.22852562 C215.62616791 -0.26160483 233.04771443 -0.27960856 250.46932834 -0.28280324 C260.25009213 -0.28496759 270.03075308 -0.29370528 279.81148624 -0.31926441 C288.14186667 -0.34098321 296.47211928 -0.34901603 304.80252481 -0.33929763 C309.05099932 -0.33475628 313.29921017 -0.33662942 317.54764843 -0.35605907 C321.44212123 -0.37371566 325.33613852 -0.3726731 329.23061632 -0.35716178 C330.63445725 -0.35478947 332.03832992 -0.35908971 333.44212241 -0.37099043 C347.24352848 -0.480682 357.0738438 2.65737301 367.13497066 12.09906483 C375.82397522 21.06365348 379.20053905 31.66478795 379.17544174 43.94233894 C379.17779397 44.72574004 379.1801462 45.50914113 379.18256971 46.31628165 C379.18924653 48.95119077 379.18880189 51.58605043 379.18839169 54.22096729 C379.19169111 56.12523956 379.19541684 58.02951113 379.19953316 59.9337818 C379.20955196 65.1745683 379.21326975 70.41534334 379.21592247 75.65613806 C379.21982575 81.30520434 379.22940391 86.95426154 379.23813534 92.60332203 C379.25789662 106.24766549 379.26796445 119.89200968 379.27686313 133.53636387 C379.28124561 139.95930516 379.28661244 146.38224563 379.291852 152.80518627 C379.30886213 174.1509029 379.32338253 195.49661833 379.33060074 216.84234047 C379.33107549 218.22249027 379.33155138 219.60264006 379.3320284 220.98278986 C379.33226478 221.66721612 379.33250115 222.35164239 379.33274469 223.05680885 C379.33394589 226.52442608 379.33516134 229.99204331 379.33638668 233.45966053 C379.33662683 234.14781735 379.33686698 234.83597417 379.33711441 235.54498423 C379.34500974 257.86351214 379.36844779 280.18198694 379.40094262 302.50049166 C379.43523628 326.09754581 379.4549502 349.69455746 379.45824498 373.29163951 C379.46041221 386.15469029 379.46919224 399.01766299 379.49470615 411.88069057 C379.51637772 422.83189293 379.52448094 433.78299822 379.51473937 444.73421959 C379.51018473 450.3230317 379.51214865 455.91164339 379.53150082 461.5004282 C379.54906158 466.61594782 379.54819245 471.73111975 379.53260352 476.8466427 C379.53021669 478.69790613 379.53460641 480.5491932 379.54643217 482.4004204 C379.5615128 484.91689641 379.55190581 487.43213432 379.53620529 489.94857979 C379.5515386 491.02672316 379.5515386 491.02672316 379.56718168 492.1266472 C379.48618162 498.07488781 377.69268939 503.39322721 373.52313467 507.70356428 C368.353069 512.10545541 364.59050923 512.83927798 357.88497066 512.80218983 C349.32037673 511.31383052 342.39387136 505.32740259 335.52266598 500.28656483 C328.8169516 495.37208645 321.98561037 490.70430788 315.04122066 486.13422108 C307.22551673 480.9907244 299.56243432 475.70110363 292.04122066 470.13422108 C286.53932481 473.13525518 281.52587536 476.55128548 276.47872066 480.25922108 C274.87348219 481.42880803 273.26801122 482.59807594 271.66231441 483.76703358 C270.87582516 484.34098866 270.0893359 484.91494373 269.27901363 485.50629139 C266.2141106 487.73591973 263.12990862 489.93771944 260.04122066 492.13422108 C256.11679093 494.92567591 252.20763192 497.73650209 248.31465816 500.57172108 C247.50254879 501.1621117 246.69043941 501.75250233 245.85372066 502.36078358 C244.26076618 503.51976008 242.66954198 504.68111951 241.08028316 505.84515858 C240.35325191 506.3736742 239.62622066 506.90218983 238.87715816 507.44672108 C237.91108639 508.1524828 237.91108639 508.1524828 236.92549801 508.87250233 C230.87579833 512.92340255 225.19717724 513.04882854 218.04122066 512.13422108 C210.7306881 509.31972567 204.92106434 502.45091459 199.29903316 497.14593983 C195.65189393 493.73116383 191.78742783 490.62460859 187.87715816 487.51703358 C185.70454947 485.69156346 183.67348004 483.85009543 181.64278316 481.87640858 C181.06463863 481.31888905 180.4864941 480.76136951 179.89083004 480.18695545 C178.76231483 479.08911336 177.64579262 477.97877275 176.54317379 476.8549242 C173.52272998 473.91349379 173.52272998 473.91349379 169.54122066 472.95453358 C166.08563146 474.58513974 163.60127123 476.98148159 160.91622066 479.63422108 C159.75976948 480.74090426 158.60088219 481.845047 157.43965816 482.94672108 C156.86570309 483.49199451 156.29174801 484.03726795 155.70040035 484.59906483 C153.40252249 486.72517665 150.98799417 488.68254251 148.54122066 490.63422108 C144.89735623 493.54931262 141.44310165 496.58094705 138.05293941 499.78168201 C124.7923501 512.28778953 124.7923501 512.28778953 115.72872066 512.88422108 C109.03189113 512.56277326 104.99088948 510.46003883 99.73653316 506.43158436 C97.75534086 504.91544727 95.74380536 503.44485005 93.72872066 501.97406483 C90.46412817 499.58582327 87.21220661 497.18154249 83.96700191 494.76703358 C78.70726036 490.86794408 73.36755688 487.08951021 67.9909277 483.3537035 C64.7492257 481.09128972 61.57055538 478.79701727 58.49043941 476.31781483 C57.94572994 475.88444813 57.40102047 475.45108143 56.83980465 475.00458241 C55.39994995 473.84666047 53.97761181 472.66704914 52.55684566 471.48578358 C50.13983028 469.8075893 50.13983028 469.8075893 47.7018652 470.82220936 C44.84822998 472.22938826 42.4918221 473.85517435 39.95528316 475.77484608 C34.23780387 480.02036635 28.36307692 483.96924384 22.41622066 487.88422108 C14.33717041 493.22973924 6.33157126 498.65024405 -1.51786137 504.32855701 C-9.99956019 510.42305915 -16.15144373 513.51299198 -26.95877934 512.13422108 C-32.12446031 509.68731956 -35.48408452 506.06530732 -38.05207503 500.96119928 C-39.19725378 497.39069086 -39.23709203 494.0483046 -39.21604824 490.34006977 C-39.21955432 489.55816666 -39.22306039 488.77626355 -39.22667271 487.97066641 C-39.23600441 485.34074735 -39.23105881 482.71104887 -39.22620487 480.08112049 C-39.22994027 478.18041061 -39.23454134 476.27970227 -39.23993552 474.37899637 C-39.25219515 469.14784645 -39.25190155 463.91676034 -39.24954677 458.68559933 C-39.24913933 453.04665734 -39.26017087 447.40773601 -39.2696619 441.7688036 C-39.28629035 430.71664928 -39.29177233 419.6645163 -39.29288666 408.61235052 C-39.29383649 399.62754676 -39.29794355 390.64275003 -39.30428791 381.65794849 C-39.31903903 360.33368606 -39.33133704 339.00943022 -39.33029079 317.68516254 C-39.33025964 317.00303902 -39.33022848 316.3209155 -39.33019638 315.61812158 C-39.33003016 312.16085345 -39.32983208 308.70358533 -39.32962696 305.24631721 C-39.32958707 304.55969635 -39.32954718 303.87307549 -39.32950608 303.16564793 C-39.32942521 301.77713106 -39.32934161 300.38861419 -39.3292553 299.00009733 C-39.32803049 277.40936162 -39.34302917 255.81868879 -39.37040043 234.22797108 C-39.40114329 209.96771886 -39.41830617 185.70752082 -39.41647398 161.44724512 C-39.41581009 148.60360166 -39.42130192 135.76002907 -39.44283009 122.91640186 C-39.46104674 111.97814627 -39.46538536 101.03999366 -39.45181124 90.10172945 C-39.44528342 84.52242796 -39.44515776 78.94332401 -39.46251774 73.36404133 C-39.47826198 68.25133803 -39.47537076 63.13898867 -39.45794947 58.02629393 C-39.45488252 56.18167359 -39.45850039 54.33702674 -39.46966963 52.49243766 C-39.55002054 38.27509749 -38.26455573 25.60308351 -28.95877934 14.13422108 C-28.45733402 13.50902576 -27.95588871 12.88383045 -27.43924809 12.23968983 C-20.42474782 4.40597785 -10.41100541 0.01753685 0 0 Z M-1.95877934 39.13422108 C-2.55917543 42.31777114 -2.55917543 42.31777114 -2.45097065 46.06266022 C-2.45558603 46.7752387 -2.4602014 47.48781718 -2.46495664 48.22198895 C-2.47560982 50.62829818 -2.45754743 53.03355335 -2.4397974 55.43980885 C-2.44154048 57.17481672 -2.44504053 58.90982358 -2.45015407 60.6448248 C-2.45912974 65.42684154 -2.44305498 70.20850228 -2.42304182 74.99047363 C-2.40581838 80.14179842 -2.41160989 85.29310204 -2.41465092 90.44444752 C-2.41675152 99.37424661 -2.40416813 108.30392909 -2.38169956 117.23369884 C-2.34923465 130.14473532 -2.33877819 143.05571522 -2.3337476 155.96678809 C-2.32498628 176.91252366 -2.29834804 197.85819703 -2.26053715 218.80389881 C-2.22383869 239.15448158 -2.19551633 259.50504746 -2.1785059 279.85565662 C-2.177455 281.1094066 -2.17640411 282.36315657 -2.17532137 283.65489896 C-2.17010134 289.94439688 -2.16504648 296.23389492 -2.16007376 302.52339303 C-2.11858569 354.72704538 -2.04811452 406.9306302 -1.95877934 459.13422108 C-0.19634022 458.01542216 1.56574231 456.89606151 3.32767391 455.77646351 C4.79962074 454.84153789 4.79962074 454.84153789 6.30130386 453.88772488 C9.33956704 451.94328407 12.32800976 449.94744987 15.30293941 447.90765858 C16.88751949 446.82484608 16.88751949 446.82484608 18.50411129 445.72015858 C20.10029293 444.62574451 20.10029293 444.62574451 21.72872066 443.50922108 C43.97995766 428.25732466 43.97995766 428.25732466 53.04122066 429.13422108 C62.54940524 432.20665548 70.71730122 439.50218385 78.64473629 445.36713123 C83.24874128 448.76197517 87.89442829 452.09946571 92.53975582 455.43744373 C96.0983447 457.99702024 99.6393862 460.5736887 103.14278316 463.20843983 C104.10136227 463.91963978 104.10136227 463.91963978 105.0793066 464.64520741 C106.26993571 465.52931756 107.45342569 466.42315701 108.62813473 467.32831287 C111.55688017 469.49512456 111.55688017 469.49512456 115.04512691 470.23578358 C118.16009708 468.51675895 120.57334006 466.09564581 123.10372066 463.63422108 C127.13731163 459.80457572 131.19148415 456.10890047 135.54122066 452.63422108 C139.77308791 449.2474935 143.72922639 445.66410613 147.66622066 441.94672108 C161.81651718 428.64877674 161.81651718 428.64877674 171.87325191 428.86859608 C179.2258431 429.7694541 184.22104956 434.85760514 189.41622066 439.72015858 C191.98378846 442.08140396 194.62966817 444.26906283 197.35372066 446.44672108 C201.6292135 449.90466216 205.70473517 453.51651938 209.72872066 457.25922108 C210.5538818 458.02395741 210.5538818 458.02395741 211.39571285 458.80414295 C213.77987762 461.0174976 216.15192972 463.24018546 218.50215816 465.48968983 C219.5424316 466.4584203 219.5424316 466.4584203 220.60372066 467.44672108 C221.18250973 467.99972889 221.76129879 468.5527367 222.35762691 469.12250233 C223.9845438 470.34287506 223.9845438 470.34287506 225.89083004 469.85931873 C228.29255675 469.04947219 230.0428261 467.97938806 232.13106441 466.54437733 C232.9083691 466.01263905 233.68567379 465.48090076 234.48653316 464.9330492 C235.72016598 464.07356678 235.72016598 464.07356678 236.97872066 463.19672108 C237.8333691 462.60697498 238.68801754 462.01722889 239.56856441 461.4096117 C244.32718015 458.10223043 248.97934774 454.70719768 253.54122066 451.13422108 C258.84877884 446.97811005 264.3020032 443.08297717 269.85372066 439.25922108 C270.64262691 438.71136951 271.43153316 438.16351795 272.24434566 437.59906483 C286.0932279 428.14072198 286.0932279 428.14072198 294.04122066 429.13422108 C299.71966642 430.98030015 304.05863015 433.22841969 308.79122066 436.82172108 C310.01272039 437.72173034 311.23539632 438.62014523 312.45918941 439.51703358 C313.061665 439.96079334 313.66414059 440.40455311 314.28487301 440.86176014 C317.77880727 443.39308977 321.40042343 445.73322735 325.00215816 448.10687733 C329.02501219 450.7905036 332.9890605 453.55589422 336.94185543 456.34149647 C339.2809061 458.29560466 339.2809061 458.29560466 342.04122066 459.13422108 C342.1326964 405.67978688 342.20321878 352.22536056 342.24548198 298.77086354 C342.25048505 292.46579444 342.25566232 286.1607255 342.26094723 279.85565662 C342.26199647 278.60038535 342.26304571 277.34511408 342.26412675 276.05180428 C342.28155094 255.7036483 342.31309969 235.35553734 342.34983185 215.0074081 C342.38718527 194.14171746 342.40944464 173.27605045 342.41757464 152.41032773 C342.42307405 139.5261248 342.44046815 126.6420491 342.47288653 113.75788531 C342.49396536 104.93304691 342.50043581 96.10827467 342.49522617 87.2834129 C342.49265403 82.18535805 342.49670672 77.08752614 342.51804256 71.98951054 C342.53740996 67.32801909 342.53855503 62.66690193 342.52481624 58.00539378 C342.52311654 56.31355406 342.52827367 54.62169163 342.54075339 52.92989709 C342.55666879 50.64035223 342.54824123 48.35218127 342.53341198 46.06266022 C342.53493086 44.78793907 342.53644974 43.51321792 342.53801465 42.19986886 C342.3146172 39.10592491 342.3146172 39.10592491 340.36848712 37.22478884 C337.50655632 35.88367491 335.47443946 35.75821183 332.31276608 35.75669765 C331.13684776 35.74887441 329.96092945 35.74105117 328.74937725 35.73299086 C326.80990908 35.74302911 326.80990908 35.74302911 324.83125973 35.75327015 C323.4447216 35.74981434 322.05818622 35.74505029 320.67165661 35.73908842 C316.85741315 35.7265381 313.0433942 35.732767 309.22914982 35.74204707 C305.11729677 35.74882078 301.00548297 35.73836469 296.89363766 35.73010731 C288.83690252 35.71674981 280.7802511 35.71965667 272.72351265 35.72834523 C266.17710526 35.73511345 259.63072137 35.73604224 253.08431149 35.73277378 C251.6880747 35.73208423 251.6880747 35.73208423 250.26363111 35.73138075 C248.37282816 35.7304216 246.48202522 35.72944896 244.59122229 35.72846298 C226.85064563 35.71990318 209.11011545 35.72975247 191.36954641 35.74586408 C176.13898747 35.75926779 160.90849712 35.75693987 145.67793941 35.7431078 C128.00193686 35.7270624 110.32597506 35.72072721 92.64996624 35.72994459 C90.76602078 35.73090026 88.88207532 35.73184337 86.99812984 35.73277378 C86.07113159 35.73323661 85.14413334 35.73369943 84.18904424 35.73417629 C77.64858954 35.7367693 71.10816063 35.73238848 64.56770992 35.72533512 C56.59981483 35.71693147 48.63200843 35.7191763 40.66412354 35.73517735 C36.59681535 35.74307541 32.52965516 35.74612567 28.46234798 35.7362299 C24.74161072 35.72731407 21.02115916 35.73216404 17.30044794 35.74816255 C15.31131974 35.75312026 13.32217182 35.74328603 11.33306408 35.73299086 C9.56918661 35.74472572 9.56918661 35.74472572 7.76967525 35.75669765 C6.24417364 35.75742824 6.24417364 35.75742824 4.68785381 35.75817358 C1.49738327 36.21149234 0.17326803 36.70048023 -1.95877934 39.13422108 Z " fill="#FFFFFF" transform="translate(85.95877933502197,-0.13422107696533203)"/>
<path d="M0 0 C1.22896871 -0.0083016 1.22896871 -0.0083016 2.48276508 -0.0167709 C5.20813495 -0.03030495 7.93257746 -0.01544814 10.65792847 -0.00050354 C12.61979561 -0.0042893 14.58166007 -0.00979145 16.54351807 -0.01687622 C21.85744147 -0.0308127 27.17104045 -0.01967444 32.48494577 -0.00316501 C38.05016733 0.0107051 43.61537042 0.00422332 49.18060303 0.0007019 C58.52335833 -0.00199821 67.86598502 0.01145991 77.20870972 0.03465271 C88.00834552 0.06127671 98.80776651 0.06300383 109.6074239 0.05126435 C120.00211339 0.04048474 130.39672522 0.04667409 140.79140854 0.06081963 C145.21313184 0.06657625 149.63479824 0.06649931 154.05652237 0.06175423 C159.26210072 0.05698127 164.46744384 0.06709948 169.67297745 0.08870888 C171.58294888 0.09427197 173.49294294 0.09474643 175.40291595 0.08975601 C178.01057066 0.08379718 180.61750759 0.09631955 183.22509766 0.11352539 C183.98035331 0.10751535 184.73560896 0.1015053 185.51375115 0.09531313 C191.62412711 0.16859978 195.48644511 1.87401468 200.17306519 5.68870544 C204.08583364 10.44747789 205.85139035 14.92071402 205.42306519 21.12620544 C204.55235652 26.56579396 202.08023931 29.99046154 198.11056519 33.75120544 C192.78431774 37.30203707 187.63930313 37.79389822 181.37695312 37.76190186 C180.57709484 37.7657274 179.77723655 37.76955295 178.95314014 37.77349442 C176.28175209 37.78378606 173.61058052 37.77983958 170.93917847 37.77586365 C169.02026165 37.78021226 167.10134658 37.78539591 165.18243408 37.79135132 C159.97578713 37.80473688 154.76921278 37.80532044 149.56255198 37.80278802 C145.21367461 37.80171795 140.86481191 37.80660263 136.51593769 37.81139344 C126.25466303 37.82248722 115.99342497 37.82292683 105.73214722 37.81687927 C95.15186783 37.81083951 84.57172143 37.8231509 73.99146473 37.84444934 C64.90253799 37.86207188 55.81365355 37.86806564 46.72471035 37.8648116 C41.2985751 37.86299955 35.8725347 37.86562711 30.44641495 37.87952614 C25.34265631 37.89211032 20.23910477 37.8901547 15.13534927 37.87711525 C13.26491221 37.87475117 11.39446054 37.87747811 9.52404022 37.88573837 C6.96516921 37.89622192 4.40699106 37.88809246 1.84814453 37.87542725 C0.74529891 37.88648867 0.74529891 37.88648867 -0.37982643 37.89777356 C-6.27736472 37.83661893 -11.81166812 36.65611403 -16.53787231 32.88792419 C-20.55077717 27.84279815 -22.81447002 23.74247297 -22.45193481 17.12620544 C-21.72716214 12.24222591 -20.05201194 8.00873945 -16.51443481 4.50120544 C-11.03871217 1.0232413 -6.41643587 -0.08208629 0 0 Z " fill="#FFFFFF" transform="translate(164.51443481445313,189.49879455566406)"/>
<path d="M0 0 C0.82606845 -0.00779995 1.6521369 -0.01559991 2.50323772 -0.02363622 C5.25172658 -0.04346745 7.99881708 -0.02782707 10.74731445 -0.01205444 C12.72564498 -0.01883452 14.70396919 -0.02773984 16.68228149 -0.03860474 C22.04183617 -0.06135809 27.40090846 -0.05257795 32.76047134 -0.03670931 C38.37548348 -0.02402987 43.99045495 -0.03579611 49.60546875 -0.04364014 C59.0340108 -0.05273072 68.46235686 -0.0407642 77.89086914 -0.01693726 C88.78371861 0.01027276 99.67610012 0.00145818 110.56893826 -0.02606928 C119.92969734 -0.0487761 129.29031575 -0.0519527 138.65109348 -0.03887594 C144.2382073 -0.03109013 149.82510132 -0.03001605 155.41220093 -0.04655838 C160.66551947 -0.06102662 165.91823604 -0.05093799 171.17148972 -0.0220871 C173.09674455 -0.01548892 175.02205025 -0.0173522 176.9472847 -0.02840042 C179.58093206 -0.04211789 182.21266518 -0.02486644 184.84619141 0 C185.60340327 -0.01115361 186.36061514 -0.02230722 187.14077282 -0.03379881 C192.91127621 0.07148496 196.97695437 1.95749775 201.4230957 5.63491821 C204.99048264 10.02312042 206.66604522 14.93088618 206.4230957 20.63491821 C205.41152198 26.89602713 203.09262891 30.63265516 198.1418457 34.54116821 C194.12001219 37.10051681 190.01664571 36.78049601 185.43400574 36.77536011 C184.61079828 36.77833123 183.78759082 36.78130235 182.93943769 36.78436351 C180.17120346 36.7930597 177.40301244 36.79455953 174.63476562 36.79605103 C172.65393481 36.80067854 170.67310488 36.80570311 168.692276 36.81109619 C163.30379322 36.82422838 157.91532291 36.83066671 152.52682662 36.83510685 C149.16165928 36.83803617 145.79649535 36.8421407 142.43132973 36.84661102 C131.90638182 36.86028792 121.38144172 36.86995372 110.85648555 36.87381291 C98.69970763 36.87829472 86.5430421 36.89584755 74.38629836 36.92481351 C64.99428742 36.94641651 55.60230813 36.95651645 46.21027261 36.95785403 C40.59859006 36.95890302 34.98701311 36.96483086 29.37535667 36.98267365 C24.0968326 36.99913047 18.81849379 37.00132141 13.53995323 36.99253464 C11.60255945 36.99176299 9.66515581 36.99612373 7.72778702 37.00599289 C5.08268208 37.01867711 2.43823681 37.01285483 -0.2068634 37.00241089 C-1.35653563 37.0144955 -1.35653563 37.0144955 -2.52943355 37.02682424 C-8.91930344 36.96782779 -12.82767652 35.38414599 -17.3269043 30.88491821 C-20.96444796 25.63068847 -22.18025551 20.86590224 -21.10424805 14.61538696 C-19.42891707 8.32358842 -16.31853996 4.97822449 -10.80003929 1.67385983 C-7.19624405 -0.01030819 -3.92603273 -0.05782983 0 0 Z " fill="#FFFFFF" transform="translate(163.576904296875,94.36508178710938)"/>
<path d="M0 0 C0.97313644 -0.00511093 1.94627289 -0.01022186 2.94889832 -0.01548767 C6.15691323 -0.02935597 9.36471262 -0.02842887 12.57275391 -0.02612305 C14.80945922 -0.03001164 17.0461638 -0.03434665 19.28286743 -0.03910828 C23.9683878 -0.04656467 28.65383282 -0.0462835 33.33935547 -0.04101562 C39.33363846 -0.03522346 45.32761222 -0.05214894 51.3218441 -0.0753603 C55.94076328 -0.09011698 60.55960833 -0.09096666 65.17854691 -0.08785057 C67.38806394 -0.08836286 69.59758522 -0.09358323 71.80707932 -0.10366249 C74.90153644 -0.1160461 77.99539566 -0.10922324 81.08984375 -0.09765625 C81.99607986 -0.10529999 82.90231598 -0.11294373 83.83601379 -0.12081909 C90.24874884 -0.06803423 96.13149987 0.73416622 101.23291016 4.9934082 C101.68794922 5.5812207 102.14298828 6.1690332 102.61181641 6.7746582 C103.08490234 7.3624707 103.55798828 7.9502832 104.04541016 8.5559082 C107.13912527 13.26606271 106.5857741 18.87136474 106.17431641 24.2746582 C104.44839119 29.65548387 100.83136527 33.20000443 96.17431641 36.2746582 C93.32678224 37.15122463 90.75661289 37.40340079 87.78543091 37.4151001 C86.91353119 37.42081024 86.04163147 37.42652039 85.14331055 37.43240356 C84.19464111 37.43352142 83.24597168 37.43463928 82.26855469 37.43579102 C81.263237 37.44075592 80.25791931 37.44572083 79.22213745 37.45083618 C75.89629431 37.46544183 72.57049885 37.47225671 69.24462891 37.4777832 C66.9330139 37.48353539 64.62139891 37.48929312 62.30978394 37.49505615 C57.46270526 37.5055612 52.61564315 37.51140731 47.76855469 37.51489258 C41.55880876 37.52038019 35.34928178 37.54441622 29.13960457 37.57286453 C24.36464803 37.59148959 19.58974428 37.59669642 14.81475449 37.59822845 C12.52542802 37.60125514 10.23610249 37.60928417 7.94681168 37.62241364 C4.74399393 37.63947308 1.54171197 37.63759406 -1.66113281 37.63110352 C-2.60575378 37.6403183 -3.55037476 37.64953308 -4.52362061 37.6590271 C-11.14394922 37.61701232 -15.28073206 36.34613038 -20.51318359 32.0871582 C-24.42595205 27.32838576 -26.19150876 22.85514963 -25.76318359 16.6496582 C-24.89247493 11.21006969 -22.42035772 7.78540211 -18.45068359 4.0246582 C-12.5309835 0.07819147 -6.87348343 -0.01870677 0 0 Z " fill="#FFFFFF" transform="translate(167.82568359375,284.725341796875)"/>
</svg>
