<svg width="15" height="15" viewBox="0 0 15 15" fill="none" xmlns="http://www.w3.org/2000/svg">
<path d="M15 7.5C15 8.09173 14.5203 8.57143 13.9286 8.57143H11.7857C10.0105 8.57143 8.57143 10.0105 8.57143 11.7857V13.9286C8.57143 14.5203 8.09173 15 7.5 15V15C6.90827 15 6.42857 14.5203 6.42857 13.9286V11.7857C6.42857 10.0105 4.98949 8.57143 3.21429 8.57143H1.07143C0.479694 8.57143 0 8.09173 0 7.5V7.5C0 6.90827 0.479695 6.42857 1.07143 6.42857H3.21429C4.98949 6.42857 6.42857 4.98949 6.42857 3.21429V1.07143C6.42857 0.479694 6.90827 0 7.5 0V0C8.09173 0 8.57143 0.479695 8.57143 1.07143V3.21429C8.57143 4.98949 10.0105 6.42857 11.7857 6.42857H13.9286C14.5203 6.42857 15 6.90827 15 7.5V7.5Z" fill="#2563EB"/>
</svg>
