<?xml version="1.0" encoding="UTF-8"?>
<svg version="1.1" xmlns="http://www.w3.org/2000/svg" width="512" height="512">
<path d="M0 0 C0.85264098 0.43558444 1.70528197 0.87116888 2.58376056 1.31995285 C3.50995096 1.77716087 4.43614137 2.23436889 5.39039814 2.7054317 C8.4848713 4.23791128 11.56742134 5.79295691 14.65048724 7.34824264 C16.86946344 8.4531282 19.08912136 9.55664555 21.30940753 10.65889633 C26.7078068 13.34366774 32.09853255 16.04328602 37.48581245 18.75026186 C41.86531899 20.9504264 46.24799305 23.14415549 50.63299495 25.33334625 C51.25769906 25.64522973 51.88240316 25.95711321 52.5260377 26.27844771 C53.79523032 26.91205124 55.06443142 27.54563779 56.33364091 28.17920755 C68.22750858 34.11732676 80.1116522 40.07469306 91.99244515 46.03891908 C102.18124503 51.15323252 112.3777478 56.25189349 122.58017474 61.3389653 C134.43527328 67.2500973 146.28581336 73.17020572 158.12900841 79.10515571 C159.39250932 79.73830614 160.65601467 80.37144773 161.91952449 81.00458038 C162.54114995 81.31608057 163.16277541 81.62758075 163.803238 81.94852034 C168.17869889 84.14034453 172.55729854 86.32581428 176.93712932 88.50889099 C182.83468611 91.44874182 188.72459319 94.4035232 194.60961848 97.36840141 C196.77074742 98.45439315 198.93427276 99.53563102 201.1003316 100.61175621 C204.05631347 102.0813056 207.00312928 103.56782244 209.94826251 105.05896652 C210.80759566 105.48116663 211.66692881 105.90336673 212.55230236 106.33836079 C217.61331422 108.92914043 221.11423176 111.13823202 224.07553607 116.07041061 C224.75156077 119.2484243 224.75146843 122.31908084 224.71045429 125.55918014 C224.71825424 126.50745744 224.72605419 127.45573474 224.73409051 128.43274772 C224.75401595 131.60663606 224.73824327 134.77932612 224.72250873 137.95322311 C224.72928457 140.23006535 224.73818751 142.50690211 224.74905902 144.78372848 C224.77186253 150.96553364 224.76301133 157.14692179 224.74716359 163.32873428 C224.73451024 169.79618605 224.74624315 176.26360197 224.75409442 182.73105514 C224.76377546 194.28811664 224.74823113 205.84496482 224.72279774 217.40199292 C224.70045939 227.87684596 224.70433969 238.35142194 224.72739154 248.82626998 C224.75416008 260.9956595 224.7641035 273.16483159 224.74933022 285.33425605 C224.74153252 291.77422762 224.74050314 298.2140084 224.75701267 304.65396774 C224.77144926 310.70830185 224.76144967 316.76211241 224.73254138 322.81638992 C224.72592636 325.039195 224.72783528 327.26204408 224.73885471 329.48483169 C224.75250461 332.51769758 224.73539992 335.54888251 224.71045429 338.58164108 C224.72160789 339.46277132 224.7327615 340.34390155 224.7442531 341.25173271 C224.66884517 345.97324642 224.20699866 349.207228 220.72549659 352.75887597 C217.4096429 355.39460993 213.73681742 357.22049477 209.94826251 359.0818547 C208.56599687 359.78170665 208.56599687 359.78170665 207.15580666 360.49569702 C204.07332535 362.05204105 200.98124276 363.58822984 197.88876849 365.12460983 C195.67385824 366.23762729 193.45954253 367.35182856 191.24577838 368.46712387 C185.85965727 371.17639815 180.46711165 373.87245079 175.07113554 376.56201355 C170.68484818 378.74861291 166.30125699 380.94052881 161.91952449 383.13624084 C161.29528008 383.44904372 160.67103568 383.7618466 160.02787477 384.08412836 C158.75964135 384.71965029 157.49141289 385.35518212 156.22318933 385.99072374 C144.3378817 391.94593638 132.44390505 397.88366297 120.54698399 403.81563307 C110.34477422 408.90314449 100.1506002 414.00646164 89.96201068 419.12119186 C78.12297636 425.06445135 66.27875242 430.99716776 54.42634022 436.91370869 C53.16188369 437.54494788 51.89743524 438.17620324 50.63299495 438.80747497 C49.69986252 439.27333677 49.69986252 439.27333677 48.74787894 439.74860992 C44.36982291 441.93526297 39.99559563 444.12945495 35.62282878 446.3266629 C29.73457024 449.2851268 23.83803995 452.22659705 17.93565685 455.15680778 C15.77055846 456.23486619 13.60816997 457.31838673 11.44873172 458.40773857 C8.50089582 459.89370514 5.54390471 461.35961197 2.58376056 462.82086837 C1.73111957 463.25645281 0.87847859 463.69203725 0 464.14082122 C-5.92371822 467.02773439 -10.70670692 468.51850892 -17.11141717 466.31955576 C-19.60610536 465.24407543 -22.01346668 464.05676409 -24.43268842 462.82086837 C-25.82197402 462.13505634 -25.82197402 462.13505634 -27.239326 461.43538952 C-30.33379915 459.90290994 -33.4163492 458.34786431 -36.4994151 456.79257858 C-38.7183913 455.68769302 -40.93804921 454.58417567 -43.15833539 453.48192489 C-48.55673465 450.79715348 -53.94746041 448.0975352 -59.3347403 445.39055936 C-63.71424685 443.19039482 -68.09692091 440.99666572 -72.48192281 438.80747497 C-73.10662691 438.49559149 -73.73133102 438.18370801 -74.37496555 437.86237351 C-75.64415818 437.22876998 -76.91335928 436.59518342 -78.18256877 435.96161367 C-90.07643643 430.02349445 -101.96058006 424.06612816 -113.841373 418.10190214 C-124.03017289 412.9875887 -134.22667565 407.88892772 -144.4291026 402.80185592 C-156.28420113 396.89072391 -168.13474122 390.9706155 -179.97793627 385.03566551 C-181.24143718 384.40251508 -182.50494252 383.76937349 -183.76845235 383.13624084 C-184.3900778 382.82474065 -185.01170326 382.51324047 -185.65216586 382.19230088 C-190.02762675 380.00047669 -194.40622639 377.81500694 -198.78605717 375.63193023 C-204.68361396 372.69207939 -210.57352105 369.73729802 -216.45854634 366.77241981 C-218.61967528 365.68642807 -220.78320061 364.6051902 -222.94925946 363.52906501 C-225.90524132 362.05951562 -228.85205713 360.57299878 -231.79719037 359.0818547 C-233.08619009 358.44855454 -233.08619009 358.44855454 -234.40123022 357.80246043 C-239.46224207 355.21168079 -242.96315961 353.00258919 -245.92446393 348.07041061 C-246.60048862 344.89239692 -246.60039628 341.82174038 -246.55938214 338.58164108 C-246.56718209 337.63336378 -246.57498205 336.68508647 -246.58301836 335.7080735 C-246.6029438 332.53418516 -246.58717112 329.3614951 -246.57143658 326.18759811 C-246.57821242 323.91075587 -246.58711536 321.63391911 -246.59798688 319.35709274 C-246.62079039 313.17528758 -246.61193919 306.99389943 -246.59609145 300.81208694 C-246.5834381 294.34463517 -246.59517101 287.87721924 -246.60302228 281.40976608 C-246.61270332 269.85270458 -246.59715899 258.2958564 -246.57172559 246.7388283 C-246.54938724 236.26397526 -246.55326754 225.78939928 -246.5763194 215.31455123 C-246.60308794 203.14516172 -246.61303135 190.97598963 -246.59825808 178.80656517 C-246.59046038 172.36659359 -246.589431 165.92681282 -246.60594052 159.48685348 C-246.62037711 153.43251937 -246.61037753 147.37870881 -246.58146924 141.3244313 C-246.57485421 139.10162622 -246.57676313 136.87877713 -246.58778256 134.65598953 C-246.60143246 131.62312364 -246.58432777 128.59193871 -246.55938214 125.55918014 C-246.57053575 124.6780499 -246.58168936 123.79691967 -246.59318095 122.88908851 C-246.51777302 118.1675748 -246.05592652 114.93359321 -242.57442445 111.38194525 C-239.25857076 108.74621129 -235.58574528 106.92032645 -231.79719037 105.05896652 C-230.87567994 104.59239855 -229.95416951 104.12583059 -229.00473452 103.6451242 C-225.92225321 102.08878017 -222.83017061 100.55259137 -219.73769635 99.01621139 C-217.5227861 97.90319393 -215.30847038 96.78899266 -213.09470624 95.67369735 C-207.70858513 92.96442307 -202.3160395 90.26837043 -196.9200634 87.57880767 C-192.53377603 85.39220831 -188.15018485 83.20029241 -183.76845235 81.00458038 C-183.14420794 80.6917775 -182.51996353 80.37897462 -181.87680263 80.05669286 C-180.60856921 79.42117093 -179.34034074 78.7856391 -178.07211719 78.15009747 C-166.18680955 72.19488484 -154.2928329 66.25715825 -142.39591185 60.32518815 C-132.19370207 55.23767673 -121.99952805 50.13435958 -111.81093854 45.01962936 C-99.97190421 39.07636987 -88.12768027 33.14365346 -76.27526808 27.22711253 C-75.01081155 26.59587334 -73.74636309 25.96461797 -72.48192281 25.33334625 C-71.85983452 25.02277171 -71.23774624 24.71219718 -70.59680679 24.3922113 C-66.21875076 22.20555825 -61.84452349 20.01136627 -57.47175664 17.81415832 C-51.5834981 14.85569442 -45.6869678 11.91422417 -39.7845847 8.98401344 C-37.61948632 7.90595503 -35.45709782 6.82243449 -33.29765958 5.73308265 C-30.34982368 4.24711608 -27.39283257 2.78120924 -24.43268842 1.31995285 C-23.58004743 0.88436841 -22.72740645 0.44878397 -21.84892786 0 C-13.61731148 -4.0116631 -8.23161638 -4.0116631 0 0 Z M-16.8509776 22.78281295 C-17.60823636 23.15675186 -18.36549512 23.53069076 -19.14570111 23.91596115 C-19.95312253 24.32528884 -20.76054394 24.73461654 -21.59243268 25.15634811 C-22.42785092 25.57332962 -23.26326916 25.99031112 -24.12400311 26.41992843 C-25.88681998 27.30216617 -27.64765956 28.1883643 -29.40664166 29.07822311 C-32.1072557 30.44303121 -34.81503902 31.79271984 -37.5240733 33.14072311 C-39.23480686 33.99920774 -40.94510864 34.85855343 -42.65493268 35.71884811 C-43.46842679 36.12412735 -44.2819209 36.52940658 -45.12006634 36.94696701 C-45.86786862 37.32721023 -46.6156709 37.70745346 -47.38613385 38.0992192 C-48.37730458 38.59885681 -48.37730458 38.59885681 -49.38849896 39.1085881 C-51.10524567 39.99804627 -51.10524567 39.99804627 -51.92446393 42.07041061 C-26.48235716 55.22406723 -0.99796236 68.29226911 24.53908759 81.26071155 C36.39633721 87.28464093 48.23775795 93.33521677 60.0474599 99.45200241 C70.34355439 104.78473232 80.66481642 110.06449364 91.01932955 115.2829445 C96.499257 118.04698235 101.96325854 120.83533997 107.39787227 123.68758476 C112.5204388 126.37501025 117.67400238 128.98985504 122.85900432 131.55463684 C124.74935282 132.50487665 126.62728122 133.48033171 128.49030048 134.4830941 C138.06361546 139.8955648 138.06361546 139.8955648 148.68672663 140.56622469 C153.8682449 138.80196868 158.47584154 136.23617477 163.08270043 133.30969119 C165.87611424 131.57255672 168.77129737 130.19178507 171.74350482 128.78525436 C173.58442253 127.86161053 175.42431736 126.93592432 177.26303607 126.00791061 C178.22661029 125.52386764 179.19018451 125.03982467 180.18295795 124.54111373 C182.48146447 123.38614279 184.77899678 122.2292867 187.07553607 121.07041061 C187.07553607 120.41041061 187.07553607 119.75041061 187.07553607 119.07041061 C161.59425211 106.28309249 136.10841824 93.50488439 110.61710483 80.73757064 C98.78173156 74.80956197 86.94787766 68.87855697 75.11752826 62.9405278 C64.80879093 57.76625365 54.49727381 52.5975698 44.18234926 47.43564022 C38.71844357 44.70107517 33.25599176 41.96369022 27.79685718 39.21961105 C22.66222313 36.638755 17.5239156 34.06537027 12.38264972 31.49775207 C10.49300462 30.55237771 8.6047369 29.60424458 6.71793872 28.65320098 C4.14806972 27.3583629 1.57349727 26.0734056 -1.00252789 24.79086959 C-2.12898964 24.21890019 -2.12898964 24.21890019 -3.2782082 23.63537586 C-8.34872748 21.1293489 -11.69870503 20.20732216 -16.8509776 22.78281295 Z M-84.47573346 56.73251998 C-85.63678601 57.31312179 -86.79783856 57.8937236 -87.99407452 58.4919194 C-89.26518462 59.13258157 -90.53625089 59.7733307 -91.80727643 60.41416061 C-93.10461777 61.06469594 -94.40213597 61.71487872 -95.69982404 62.36472213 C-99.11779051 64.07752676 -102.53332761 65.79512237 -105.94838971 67.51370895 C-109.43245626 69.26596447 -112.91878682 71.01370289 -116.40493268 72.76181686 C-123.24700696 76.19358464 -130.08652239 79.63041425 -136.92446393 83.07041061 C-136.92446393 83.73041061 -136.92446393 84.39041061 -136.92446393 85.07041061 C-111.4826037 97.88471962 -86.0316358 110.68077234 -60.56965703 123.45506275 C-48.74783332 129.38661305 -36.92908032 135.32413482 -25.11733502 141.27573287 C-14.82402609 146.46221563 -4.52517002 151.63748103 5.78054589 156.7992695 C11.23879776 159.53361692 16.69407761 162.27355624 22.14275485 165.02694023 C27.26905069 167.61719368 32.40261799 170.19240628 37.54220706 172.75617683 C39.42920106 173.70077623 41.31344953 174.65088297 43.19472247 175.60682571 C45.76037725 176.9095043 48.33510359 178.19215068 50.913091 179.47020614 C51.65823982 179.85443192 52.40338864 180.23865769 53.17111772 180.63452667 C57.54597818 182.77180195 60.21276458 183.52672776 65.07553607 182.07041061 C67.97692861 180.90560594 67.97692861 180.90560594 70.89731342 179.38657272 C72.01802234 178.82606719 73.13873126 178.26556167 74.29340106 177.68807113 C75.49951276 177.07480432 76.70553488 176.4613613 77.91147357 175.84775436 C79.15808027 175.22071693 80.40504444 174.59438974 81.65234882 173.9687413 C84.92083027 172.3268952 88.18439007 170.67549372 91.44699603 169.02200973 C94.78247933 167.33374266 98.12255851 165.65462046 101.46225482 163.97470748 C108.00453027 160.68217455 114.54162992 157.37952655 121.07553607 154.07041061 C117.4645461 151.08856548 113.41157451 149.09891099 109.24298602 147.02715194 C108.4487703 146.62848409 107.65455457 146.22981624 106.8362717 145.81906754 C104.17426652 144.48407597 101.50943803 143.1548222 98.84457904 141.82553756 C96.93576208 140.86977414 95.02711548 139.91367039 93.11862689 138.95725143 C87.93481578 136.36078346 82.74848341 133.76938981 77.56157953 131.17910683 C72.14007778 128.47088466 66.7205262 125.7587649 61.30066425 123.04726303 C52.2011806 118.49570144 43.10001434 113.94751809 33.99789935 109.40122116 C23.46174678 104.13859169 12.92849359 98.87019441 2.39672107 93.59880561 C-6.63624107 89.07779336 -15.67075169 84.55988743 -24.70657498 80.04459625 C-30.10763372 77.34562904 -35.50814015 74.64557177 -40.90725583 71.94271934 C-45.97955303 69.40369182 -51.05377627 66.86855649 -56.12954205 64.33647048 C-57.99674572 63.40419594 -59.8632625 62.47054427 -61.72905606 61.53545082 C-64.26617389 60.2641793 -66.80567802 58.9978108 -69.34588116 57.73271835 C-70.46531588 57.16965491 -70.46531588 57.16965491 -71.60736543 56.59521645 C-77.39130072 53.72551837 -78.776346 53.87048992 -84.47573346 56.73251998 Z M-169.41762799 99.08994186 C-170.29823895 99.5303984 -171.17884991 99.97085495 -172.08614606 100.42465866 C-173.0279472 100.9058818 -173.96974835 101.38710495 -174.94008893 101.88291061 C-175.91105511 102.3712236 -176.8820213 102.85953659 -177.88241071 103.36264694 C-180.98359442 104.92443632 -184.0790311 106.49725885 -187.17446393 108.07041061 C-189.27565746 109.13103771 -191.37721572 110.1909426 -193.47915143 111.25009811 C-198.63185083 113.84850249 -203.77987511 116.45598816 -208.92446393 119.07041061 C-208.92446393 119.73041061 -208.92446393 120.39041061 -208.92446393 121.07041061 C-183.4826037 133.88471962 -158.0316358 146.68077234 -132.56965703 159.45506275 C-120.74783332 165.38661305 -108.92908032 171.32413482 -97.11733502 177.27573287 C-86.82402609 182.46221563 -76.52517002 187.63748103 -66.21945411 192.7992695 C-60.76120224 195.53361692 -55.30592239 198.27355624 -49.85724515 201.02694023 C-44.73094931 203.61719368 -39.59738201 206.19240628 -34.45779294 208.75617683 C-32.57079894 209.70077623 -30.68655047 210.65088297 -28.80527753 211.60682571 C-26.23962275 212.9095043 -23.66489641 214.19215068 -21.086909 215.47020614 C-20.34176018 215.85443192 -19.59661136 216.23865769 -18.82888228 216.63452667 C-14.45345948 218.77207667 -11.79165683 219.51574654 -6.92446393 218.07041061 C-4.59327045 217.18761498 -4.59327045 217.18761498 -2.38784283 216.02915084 C-1.54742444 215.60879058 -0.70700604 215.18843032 0.15887958 214.75533187 C1.0466106 214.30114379 1.93434161 213.84695571 2.84897357 213.37900436 C4.23458987 212.68195137 4.23458987 212.68195137 5.64819843 211.97081649 C8.58616446 210.49067408 11.51835774 208.99948026 14.45053607 207.50791061 C16.44625873 206.50001402 18.4423486 205.49284419 20.43881732 204.48642623 C25.32200976 202.02282596 30.20051502 199.55013781 35.07553607 197.07041061 C35.07553607 196.41041061 35.07553607 195.75041061 35.07553607 195.07041061 C9.59425211 182.28309249 -15.89158176 169.50488439 -41.38289517 156.73757064 C-53.21826844 150.80956197 -65.05212234 144.87855697 -76.88247174 138.9405278 C-87.19120907 133.76625365 -97.50272619 128.5975698 -107.81765074 123.43564022 C-113.28155643 120.70107517 -118.74400824 117.96369022 -124.20314282 115.21961105 C-129.33777687 112.638755 -134.4760844 110.06537027 -139.61735028 107.49775207 C-141.50699538 106.55237771 -143.3952631 105.60424458 -145.28206128 104.65320098 C-147.85193028 103.3583629 -150.42650273 102.0734056 -153.00252789 100.79086959 C-154.12898964 100.21890019 -154.12898964 100.21890019 -155.2782082 99.63537586 C-160.71554525 96.9480548 -163.97870102 96.33922017 -169.41762799 99.08994186 Z M-223.92446393 138.07041061 C-223.92446393 203.74041061 -223.92446393 269.41041061 -223.92446393 337.07041061 C-207.53214239 345.69970228 -207.53214239 345.69970228 -191.0216319 354.08959091 C-190.21942212 354.4902231 -189.41721234 354.89085529 -188.59069318 355.30362785 C-187.76094983 355.7179601 -186.93120648 356.13229236 -186.0763194 356.55918014 C-184.28197664 357.45703144 -182.4877186 358.35505204 -180.69353741 359.25322616 C-175.8898875 361.65730065 -171.08500503 364.05890131 -166.27981585 366.4598974 C-161.23222356 368.98241567 -156.18561827 371.50690726 -151.13884991 374.03107345 C-142.68903627 378.25688493 -134.23838928 382.4810262 -125.7872569 386.70419967 C-116.00917409 391.5905047 -106.23255304 396.47972494 -96.45666081 401.37041092 C-88.04177971 405.58011544 -79.62612529 409.78827079 -71.20981389 413.99511504 C-66.19116485 416.50365937 -61.17278906 419.01274627 -56.15511197 421.52323425 C-51.45599438 423.87423061 -46.75591302 426.22328858 -42.05506009 428.57081306 C-40.32645286 429.43445261 -38.59819001 430.29878181 -36.8702876 431.16383064 C-34.52320339 432.33872702 -32.17491677 433.51118323 -29.82628888 434.68298995 C-29.13400941 435.03024505 -28.44172993 435.37750015 -27.72847229 435.73527813 C-24.95404029 437.36403939 -24.95404029 437.36403939 -21.92446393 438.07041061 C-21.92446393 372.40041061 -21.92446393 306.73041061 -21.92446393 239.07041061 C-38.31678546 230.44111894 -38.31678546 230.44111894 -54.82729596 222.05123031 C-55.62950574 221.65059812 -56.43171551 221.24996593 -57.25823468 220.83719337 C-58.08797803 220.42286111 -58.91772137 220.00852886 -59.77260846 219.58164108 C-61.56695121 218.68378978 -63.36120926 217.78576918 -65.15539044 216.88759506 C-69.95904036 214.48352057 -74.76392282 212.08191991 -79.569112 209.68092382 C-84.6167043 207.15840555 -89.66330959 204.63391396 -94.71007794 202.10974777 C-103.15989159 197.88393629 -111.61053858 193.65979502 -120.06167096 189.43662155 C-129.83975377 184.55031652 -139.61637481 179.66109628 -149.39226705 174.7704103 C-157.80714814 170.56070578 -166.22280257 166.35255042 -174.63911396 162.14570618 C-179.657763 159.63716185 -184.6761388 157.12807495 -189.69381589 154.61758697 C-194.39293347 152.26659061 -199.09301483 149.91753264 -203.79386777 147.57000816 C-205.522475 146.70636861 -207.25073785 145.84203941 -208.97864026 144.97699058 C-211.32572447 143.8020942 -213.67401108 142.62963798 -216.02263898 141.45783126 C-216.71491845 141.11057617 -217.40719792 140.76332107 -218.12045556 140.40554309 C-220.89488757 138.77678183 -220.89488757 138.77678183 -223.92446393 138.07041061 Z M196.73935443 140.18173873 C195.35803584 140.87245468 195.35803584 140.87245468 193.94881183 141.57712448 C192.94777927 142.0802214 191.9467467 142.58331832 190.91537982 143.10166061 C189.8957767 143.61216964 188.87617358 144.12267868 187.8256734 144.64865768 C184.55385554 146.28737617 181.28343576 147.92886396 178.01303607 149.57041061 C175.80153874 150.67866554 173.58995139 151.78674088 171.37827045 152.89462936 C165.94297762 155.61780296 160.50883159 158.34325436 155.07553607 161.07041061 C155.07195354 161.94478539 155.07195354 161.94478539 155.06829864 162.8368243 C155.00914271 177.02553759 154.93358893 191.21408448 154.83982116 205.40261257 C154.7948703 212.2641123 154.75545409 219.12556021 154.72910053 225.98715866 C154.7036587 232.60731357 154.66274918 239.22725583 154.61234981 245.84727561 C154.59564767 248.37462965 154.5841543 250.90202358 154.57792217 253.42942512 C154.56831776 256.96584332 154.54030104 260.50166732 154.50790912 264.03793991 C154.50934421 265.08594772 154.5107793 266.13395553 154.51225787 267.21372116 C154.39562523 276.20047678 154.39562523 276.20047678 151.07553607 280.07041061 C147.97723363 282.13594557 146.11247375 282.68839572 142.41147357 282.55478561 C135.67497017 281.15791868 129.92916795 275.69743835 124.47397357 271.71103561 C123.66685931 271.12282028 122.85974506 270.53460495 122.02817279 269.92856491 C120.40608313 268.74098085 118.79036826 267.54463528 117.1814931 266.33920944 C116.43496478 265.78773239 115.68843646 265.23625534 114.91928607 264.66806686 C113.91671771 263.91795333 113.91671771 263.91795333 112.89389545 263.152686 C110.99855946 261.81468288 110.99855946 261.81468288 108.07553607 262.07041061 C106.3685943 264.22047072 104.87832448 266.33712022 103.38803607 268.63291061 C102.40613323 270.10374449 101.42298437 271.57374705 100.43881732 273.04306686 C99.90337299 273.84760299 99.36792865 274.65213912 98.81625873 275.48105514 C95.63057269 280.21981897 92.34603787 284.8899832 89.07553607 289.57041061 C83.83283266 297.09308904 78.6089194 304.6278546 73.4368642 312.19931686 C71.76920545 314.63564129 70.0978356 317.04179531 68.28256732 319.37119186 C66.8824998 320.99477887 66.8824998 320.99477887 67.07553607 323.07041061 C62.91146128 324.65672482 59.53570984 325.54489718 55.07553607 325.07041061 C51.27338719 323.34216112 49.62994337 321.90458934 48.07553607 318.07041061 C47.81382304 315.98524749 47.81382304 315.98524749 47.79706317 313.71707809 C47.78589969 312.85333572 47.77473621 311.98959335 47.76323444 311.09967697 C47.76107425 310.16028274 47.75891406 309.22088851 47.75668842 308.2530278 C47.74664279 307.25757949 47.73659717 306.26213119 47.72624713 305.23651779 C47.69536062 301.94677959 47.67836464 298.65712298 47.66147357 295.36728561 C47.64276634 293.08613017 47.62319327 290.80498167 47.60278827 288.52384079 C47.55141415 282.52007791 47.51181659 276.51629258 47.47464496 270.51242721 C47.43463848 264.38586494 47.38353082 258.25939648 47.33334857 252.13291061 C47.23652672 240.11214312 47.15214189 228.09132273 47.07553607 216.07041061 C43.49517639 217.21454897 40.09888066 218.4338295 36.73837787 220.11752975 C35.94122867 220.51456604 35.14407947 220.91160232 34.32277423 221.32067001 C33.48192783 221.74468597 32.64108142 222.16870193 31.77475482 222.60556686 C30.89777438 223.04428619 30.02079395 223.48300552 29.11723834 223.93501937 C27.27320312 224.858542 25.43013598 225.78399988 23.58798724 226.71127975 C20.75736486 228.1357646 17.92355738 229.55374912 15.08920795 230.97080123 C13.29670035 231.86951113 11.50437606 232.76858677 9.71225482 233.66806686 C8.86128726 234.09410705 8.0103197 234.52014724 7.13356525 234.95909774 C5.96148265 235.54992393 5.96148265 235.54992393 4.76572162 236.152686 C4.07544376 236.49973083 3.38516589 236.84677566 2.67397052 237.204337 C1.08255062 237.96844537 1.08255062 237.96844537 0.07553607 239.07041061 C-0.02223412 241.63759258 -0.05441409 244.17784977 -0.04471844 246.7454747 C-0.04557287 247.55895604 -0.04642729 248.37243739 -0.04730761 249.21056968 C-0.0489649 251.95757302 -0.04343699 254.70451634 -0.03798932 257.45151412 C-0.03770747 259.41222781 -0.03786513 261.37294161 -0.03843182 263.33365524 C-0.03871991 268.67434395 -0.03282145 274.01501042 -0.02585787 279.35569394 C-0.01962611 284.93043377 -0.01902067 290.50517406 -0.01783246 296.07991683 C-0.01471861 306.64447152 -0.00650451 317.20901592 0.00351703 327.77356607 C0.01467652 339.79754291 0.0201882 351.82152022 0.02521247 363.84550095 C0.03567806 388.58714322 0.05327852 413.32877634 0.07553607 438.07041061 C12.7741881 432.11037474 25.38038488 425.99083788 37.9236806 419.71103561 C39.71785926 418.81462614 41.51212255 417.91838604 43.30646259 417.02229965 C48.11196302 414.62179983 52.91622306 412.21882796 57.72018415 409.81524932 C62.76656944 407.2907791 67.81394092 404.76828194 72.86115009 402.24545944 C81.31239959 398.02073949 89.76281268 393.79435023 98.2127431 389.56699264 C107.98839356 384.67643172 117.76549837 379.7887878 127.54333919 374.9026078 C135.95969011 370.6966967 144.3752653 366.48923665 152.79018611 362.28046501 C157.80800618 359.77077491 162.82609611 357.26162845 167.84488803 354.75388229 C172.54580846 352.4048602 177.24575559 350.05390234 181.94493991 347.70140922 C183.67284764 346.83679156 185.40110007 345.9728624 187.1297124 345.10965431 C189.47863779 343.93654695 191.82633114 342.76101079 194.17371112 341.58481491 C194.86599059 341.23979053 195.55827007 340.89476615 196.27152771 340.53928649 C199.37933179 339.10946354 199.37933179 339.10946354 202.07553607 337.07041061 C202.17330627 334.50322864 202.20548623 331.96297145 202.19579059 329.39534652 C202.19664501 328.58186518 202.19749944 327.76838383 202.19837976 326.93025154 C202.20003705 324.1832482 202.19450914 321.43630488 202.18906146 318.68930709 C202.18877962 316.7285934 202.18893727 314.76787961 202.18950397 312.80716598 C202.18979205 307.46647727 202.18389359 302.1258108 202.17693001 296.78512728 C202.17069826 291.21038745 202.17009282 285.63564716 202.1689046 280.06090438 C202.16579076 269.4963497 202.15757666 258.9318053 202.14755511 248.36725515 C202.13639562 236.34327831 202.13088394 224.319301 202.12585968 212.29532027 C202.11539409 187.553678 202.09779362 162.81204488 202.07553607 138.07041061 C200.16366055 138.07041061 198.40845976 139.34491208 196.73935443 140.18173873 Z M125.15707904 175.91611373 C124.54228246 176.22339149 123.92748588 176.53066925 123.2940591 176.84725845 C121.30005838 177.84500651 119.30886674 178.84822411 117.31772357 179.85166061 C116.08881962 180.46758244 114.8597355 181.08314494 113.63046771 181.6983403 C109.06830291 183.98467048 104.50963203 186.27796707 99.95053607 188.57041061 C89.76178607 193.68541061 79.57303607 198.80041061 69.07553607 204.07041061 C69.07553607 228.82041061 69.07553607 253.57041061 69.07553607 279.07041061 C72.04469816 275.358958 74.88797299 271.62658716 77.63803607 267.75791061 C78.06495746 267.15906051 78.49187885 266.56021041 78.93173724 265.94321334 C82.75728701 260.55748831 86.50651816 255.12017961 90.23203021 249.66489303 C91.50861643 247.7968642 92.79069865 245.93277223 94.07553607 244.07041061 C94.74564716 243.09273727 94.74564716 243.09273727 95.42929584 242.09531295 C99.76308146 235.87272775 99.76308146 235.87272775 104.07553607 235.07041061 C111.56455761 235.20093822 115.58897211 238.04454627 121.38803607 242.57041061 C122.96512924 243.77139829 124.54446114 244.96945342 126.12631732 246.16416061 C126.81379047 246.69718795 127.50126361 247.2302153 128.20956928 247.77939498 C130.15019007 249.25069476 130.15019007 249.25069476 133.07553607 250.07041061 C133.07553607 224.66041061 133.07553607 199.25041061 133.07553607 173.07041061 C130.01469198 173.07041061 127.882074 174.54810007 125.15707904 175.91611373 Z " fill="#FFFFFF" transform="translate(266.9244639277458,23.9295893907547)"/>
</svg>
