<?xml version="1.0" encoding="UTF-8"?>
<svg version="1.1" xmlns="http://www.w3.org/2000/svg" width="512" height="512">
<path d="M0 0 C0.97821716 -0.00671722 1.95643433 -0.01343445 2.96429443 -0.02035522 C6.18490742 -0.03928813 9.40531145 -0.04325721 12.62597656 -0.04541016 C14.87648604 -0.05184185 17.12699469 -0.05857049 19.37750244 -0.06558228 C24.09153175 -0.07754365 28.80548784 -0.08126432 33.51953125 -0.08007812 C39.53934779 -0.07987512 45.55869127 -0.10716351 51.57839584 -0.14162254 C56.22660448 -0.16393783 60.87470015 -0.16791422 65.52295685 -0.16685867 C67.74116901 -0.16920818 69.95938459 -0.17799476 72.17754364 -0.19352341 C87.70274323 -0.2920267 100.20340175 0.01327611 112.01660156 11.29052734 C122.36926796 22.13520165 124.07497667 35.81400206 126.2956543 50.04125977 C128.87399744 66.43251617 128.87399744 66.43251617 139.01660156 79.04052734 C146.72180934 83.8562822 153.99536239 85.37836622 163.01660156 84.29052734 C168.82551837 82.82321838 174.38562226 80.5359599 179.95410156 78.35302734 C182.1741401 77.50262006 184.39620795 76.65782844 186.61952209 75.81602478 C187.99090701 75.29469698 189.360076 74.76748823 190.72654724 74.2334137 C202.68944866 69.61100697 214.22355911 70.31606397 226.01660156 75.29052734 C237.12576176 81.45395686 243.70623302 92.56084622 249.64160156 103.35302734 C250.33673604 104.59627784 251.03321256 105.83877882 251.73095703 107.08056641 C252.79662453 108.9774417 253.86154106 110.87468852 254.9223938 112.77426147 C258.25468129 118.73991414 261.68642117 124.64526998 265.14160156 130.54052734 C265.70290771 131.50297363 266.26421387 132.46541992 266.8425293 133.45703125 C269.83607305 138.58673415 272.85359254 143.70107162 275.89550781 148.80224609 C276.53278809 149.87764648 277.17006836 150.95304688 277.82666016 152.06103516 C279.03989686 154.10760297 280.25982425 156.1502258 281.48779297 158.18798828 C288.28221471 169.68133729 291.76922093 181.10571495 288.85644531 194.47021484 C283.958465 210.91831618 271.24034767 220.54526514 258.05175781 230.53662109 C251.05725332 235.95384135 245.73809293 241.34880036 244.01660156 250.29052734 C243.15093771 259.96893308 244.66666942 267.36415654 250.14160156 275.41552734 C253.1292144 278.66568798 256.6492491 281.30183052 260.12207031 284.00927734 C263.41314373 286.6030518 266.62778359 289.27486434 269.82910156 291.97802734 C270.36792969 292.42944092 270.90675781 292.88085449 271.46191406 293.34594727 C281.53460052 301.86430323 288.33261877 310.77228983 289.82910156 324.10302734 C290.72864606 339.68861351 283.29095129 351.40837783 275.57910156 364.41552734 C274.34411106 366.5154259 273.1097587 368.61569985 271.87597656 370.71630859 C271.24240234 371.79348145 270.60882813 372.8706543 269.95605469 373.98046875 C266.71899932 379.50514104 263.5252564 385.05463012 260.32910156 390.60302734 C259.38732056 392.23135498 259.38732056 392.23135498 258.42651367 393.89257812 C255.56444104 398.84422202 252.72086872 403.80315566 249.94238281 408.80224609 C235.91677616 433.89060693 235.91677616 433.89060693 222.45410156 438.47802734 C221.5246875 438.80158203 220.59527344 439.12513672 219.63769531 439.45849609 C206.14008911 443.74313115 194.77673141 439.87305586 182.05566406 435.02099609 C180.97244873 434.61486084 179.8892334 434.20872559 178.77319336 433.7902832 C176.60863593 432.97525051 174.45074653 432.14221521 172.30102539 431.28881836 C163.31515461 427.89780359 154.92836291 426.69316586 145.70410156 429.91552734 C137.00147729 433.93212316 132.36594574 439.32900409 129.01660156 448.29052734 C127.44873955 454.36736494 126.52873327 460.6023079 125.51660156 466.79052734 C122.96077366 482.41697572 120.11175175 496.16915565 106.52441406 506.11474609 C98.38761179 511.22188795 91.49055856 512.59046062 82.03320312 512.58105469 C81.05498596 512.58777191 80.0767688 512.59448914 79.06890869 512.60140991 C75.8482957 512.62034281 72.62789168 512.6243119 69.40722656 512.62646484 C67.15671708 512.63289654 64.90620843 512.63962518 62.65570068 512.64663696 C57.94167138 512.65859834 53.22771528 512.662319 48.51367188 512.66113281 C42.49385533 512.66092981 36.47451186 512.6882182 30.45480728 512.72267723 C25.80659865 512.74499252 21.15850298 512.74896891 16.51024628 512.74791336 C14.29203412 512.75026287 12.07381853 512.75904945 9.85565948 512.77457809 C-5.66954011 512.87308138 -18.17019863 512.56777858 -29.98339844 501.29052734 C-40.33606483 490.44585304 -42.04177355 476.76705262 -44.26245117 462.53979492 C-46.84079431 446.14853851 -46.84079431 446.14853851 -56.98339844 433.54052734 C-64.68860621 428.72477248 -71.96215927 427.20268847 -80.98339844 428.29052734 C-86.79231525 429.75783631 -92.35241914 432.04509479 -97.92089844 434.22802734 C-100.14093697 435.07843462 -102.36300483 435.92322625 -104.58631897 436.76502991 C-105.95770389 437.28635771 -107.32687287 437.81356645 -108.69334412 438.34764099 C-119.50957282 442.52697898 -130.17682112 442.51041322 -140.98339844 438.29052734 C-141.67046875 438.03529297 -142.35753906 437.78005859 -143.06542969 437.51708984 C-154.78910171 432.47614211 -160.59682132 421.53130787 -166.50244141 410.93115234 C-168.72068929 406.97589862 -170.99945021 403.05618415 -173.2722168 399.13208008 C-175.19358763 395.81384276 -177.10896369 392.49221687 -179.02246094 389.16943359 C-179.99554199 387.47971436 -179.99554199 387.47971436 -180.98828125 385.75585938 C-182.33407287 383.41834515 -183.67977875 381.08078174 -185.02539062 378.74316406 C-186.37917915 376.39141796 -187.73343537 374.03994223 -189.08813477 371.6887207 C-190.35440838 369.490783 -191.61992224 367.29240735 -192.88452148 365.09350586 C-196.10010998 359.51252957 -199.36211972 353.96929848 -202.73779297 348.48339844 C-207.93297928 339.33734524 -209.26942359 328.074453 -206.84667969 317.87255859 C-203.70245623 308.46834274 -199.02451687 300.48470846 -191.23339844 294.29052734 C-190.275625 293.51580078 -189.31785156 292.74107422 -188.33105469 291.94287109 C-185.88212268 289.98835598 -183.40341902 288.07594597 -180.91699219 286.16943359 C-168.29173669 276.51758383 -168.29173669 276.51758383 -161.98339844 262.29052734 C-161.11773458 252.6121216 -162.63346629 245.21689815 -168.10839844 237.16552734 C-171.09601128 233.91536671 -174.61604597 231.27922417 -178.08886719 228.57177734 C-181.3799406 225.97800289 -184.59458046 223.30619034 -187.79589844 220.60302734 C-188.60414063 219.92590698 -188.60414063 219.92590698 -189.42871094 219.23510742 C-199.50139739 210.71675146 -206.29941565 201.80876485 -207.79589844 188.47802734 C-208.69544293 172.89244118 -201.25774817 161.17267686 -193.54589844 148.16552734 C-192.31090794 146.06562879 -191.07655558 143.96535484 -189.84277344 141.86474609 C-188.89241211 140.24898682 -188.89241211 140.24898682 -187.92285156 138.60058594 C-184.68579619 133.07591365 -181.49205327 127.52642457 -178.29589844 121.97802734 C-177.66804443 120.89247559 -177.04019043 119.80692383 -176.39331055 118.68847656 C-173.53123792 113.73683266 -170.6876656 108.77789903 -167.90917969 103.77880859 C-160.34522562 90.24208629 -152.27780893 77.27449374 -136.67089844 72.41552734 C-123.22864404 69.29333474 -112.51266777 72.79605347 -100.02246094 77.56005859 C-98.93924561 77.96619385 -97.85603027 78.3723291 -96.73999023 78.79077148 C-94.5754328 79.60580418 -92.41754341 80.43883948 -90.26782227 81.29223633 C-81.28195149 84.6832511 -72.89515979 85.88788883 -63.67089844 82.66552734 C-54.96827416 78.64893152 -50.33274262 73.2520506 -46.98339844 64.29052734 C-45.41553643 58.21368975 -44.49553015 51.97874678 -43.48339844 45.79052734 C-40.92757054 30.16407897 -38.07854863 16.41189903 -24.49121094 6.46630859 C-16.35440866 1.35916674 -9.45735543 -0.00940594 0 0 Z M-0.98339844 40.29052734 C-2.96339844 51.51052734 -4.94339844 62.73052734 -6.98339844 74.29052734 C-12.24248428 87.96415054 -16.96109816 97.07240947 -26.98339844 107.29052734 C-27.51320312 107.84482422 -28.04300781 108.39912109 -28.58886719 108.97021484 C-41.69912513 121.440126 -60.07131224 125.9834843 -77.64160156 125.75708008 C-85.4862033 125.46373279 -92.58201527 123.88720508 -99.98339844 121.29052734 C-100.99853516 120.93651855 -102.01367188 120.58250977 -103.05957031 120.21777344 C-110.39258537 117.64281357 -117.69633165 114.99258036 -124.98339844 112.29052734 C-125.35924072 112.9419873 -125.73508301 113.59344727 -126.12231445 114.26464844 C-126.65526123 115.18842285 -127.18820801 116.11219727 -127.73730469 117.06396484 C-128.33704102 118.10351318 -128.93677734 119.14306152 -129.5546875 120.21411133 C-130.89906982 122.54436302 -132.24346815 124.87460546 -133.58789062 127.20483398 C-137.03658384 133.18235718 -140.48499029 139.16004531 -143.93261719 145.13818359 C-144.56490234 146.23388672 -145.1971875 147.32958984 -145.84863281 148.45849609 C-147.10070302 150.63048109 -148.3507189 152.80365169 -149.59863281 154.97802734 C-152.49565576 160.01927921 -155.4198601 165.03699809 -158.44042969 170.00537109 C-159.23078613 171.32033569 -159.23078613 171.32033569 -160.03710938 172.66186523 C-161.01529756 174.28505615 -162.00613126 175.90071939 -163.01171875 177.50708008 C-163.64932129 178.57164429 -163.64932129 178.57164429 -164.29980469 179.65771484 C-164.67564697 180.26728027 -165.05148926 180.8768457 -165.4387207 181.50488281 C-166.19990472 183.3577308 -166.19990472 183.3577308 -165.20898438 185.40795898 C-163.66394938 187.78121891 -161.92851301 189.1422654 -159.67089844 190.85302734 C-140.64094145 205.66940485 -124.18994222 221.14476644 -120.98339844 246.29052734 C-119.19377352 265.90050219 -122.89141392 284.93064538 -135.49121094 300.50927734 C-144.31592631 310.76970163 -155.24074473 319.15720038 -165.98339844 327.29052734 C-164.5738395 332.15313277 -162.41289969 336.24573285 -159.79589844 340.54052734 C-158.88968488 342.0540932 -157.98482577 343.56847053 -157.08105469 345.08349609 C-156.58621582 345.91155762 -156.09137695 346.73961914 -155.58154297 347.59277344 C-152.58453203 352.65188906 -149.66425009 357.75540115 -146.73339844 362.85302734 C-139.53184756 375.36069271 -132.26935689 387.83186115 -124.98339844 400.29052734 C-123.64547241 399.80640381 -123.64547241 399.80640381 -122.28051758 399.3125 C-118.93294687 398.10416797 -115.58366692 396.90082221 -112.2331543 395.70068359 C-110.79039501 395.18277826 -109.34831983 394.66296264 -107.90698242 394.14111328 C-86.79388025 386.50087804 -67.08843852 383.78461467 -45.71386719 392.64599609 C-39.12652548 395.73666082 -33.43839935 399.49012654 -27.98339844 404.29052734 C-27.23316406 404.93505859 -26.48292969 405.57958984 -25.70996094 406.24365234 C-6.96721365 423.51512595 -5.00529362 448.15915628 -0.98339844 472.29052734 C26.73660156 472.29052734 54.45660156 472.29052734 83.01660156 472.29052734 C84.99660156 461.07052734 86.97660156 449.85052734 89.01660156 438.29052734 C96.88268082 417.83872128 106.03660624 403.06556469 126.01660156 393.29052734 C144.27462959 385.81034599 163.29086932 384.67518018 182.01660156 391.29052734 C183.53713135 391.82154053 183.53713135 391.82154053 185.08837891 392.36328125 C192.42284092 394.93838029 199.72820961 397.58798296 207.01660156 400.29052734 C207.39244385 399.63906738 207.76828613 398.98760742 208.15551758 398.31640625 C208.68846436 397.39263184 209.22141113 396.46885742 209.77050781 395.51708984 C210.6701123 393.95776733 210.6701123 393.95776733 211.58789062 392.36694336 C212.93227294 390.03669167 214.27667127 387.70644922 215.62109375 385.3762207 C219.06978696 379.39869751 222.51819341 373.42100937 225.96582031 367.44287109 C226.59810547 366.34716797 227.23039062 365.25146484 227.88183594 364.12255859 C229.13390614 361.95057359 230.38392202 359.777403 231.63183594 357.60302734 C234.52885889 352.56177548 237.45306322 347.5440566 240.47363281 342.57568359 C241.00053711 341.69904053 241.52744141 340.82239746 242.0703125 339.91918945 C243.04850069 338.29599854 244.03933439 336.6803353 245.04492188 335.07397461 C245.46999023 334.36426514 245.89505859 333.65455566 246.33300781 332.92333984 C246.7088501 332.31377441 247.08469238 331.70420898 247.47192383 331.07617188 C248.23310784 329.22332389 248.23310784 329.22332389 247.2421875 327.1730957 C245.69715251 324.79983578 243.96171613 323.43878929 241.70410156 321.72802734 C222.67414458 306.91164984 206.22314535 291.43628824 203.01660156 266.29052734 C201.22697664 246.68055249 204.92461705 227.65040931 217.52441406 212.07177734 C226.34912943 201.81135306 237.27394786 193.42385431 248.01660156 185.29052734 C246.60704263 180.42792192 244.44610282 176.33532184 241.82910156 172.04052734 C240.922888 170.52696148 240.01802889 169.01258416 239.11425781 167.49755859 C238.61941895 166.66949707 238.12458008 165.84143555 237.61474609 164.98828125 C234.61773515 159.92916563 231.69745321 154.82565353 228.76660156 149.72802734 C221.56505069 137.22036198 214.30256002 124.74919354 207.01660156 112.29052734 C206.12465088 112.61327637 205.2327002 112.93602539 204.3137207 113.26855469 C200.96615 114.47688672 197.61687004 115.68023247 194.26635742 116.88037109 C192.82359813 117.39827643 191.38152296 117.91809204 189.94018555 118.43994141 C168.80949364 126.08654188 149.03795049 128.60445492 127.67675781 119.93505859 C121.12121702 116.85155706 115.44717648 113.06943327 110.01660156 108.29052734 C108.89125 107.32373047 108.89125 107.32373047 107.74316406 106.33740234 C89.00041678 89.06592874 87.03849674 64.42189841 83.01660156 40.29052734 C55.29660156 40.29052734 27.57660156 40.29052734 -0.98339844 40.29052734 Z " fill="#FFFFFF" transform="translate(214.9833984375,-0.29052734375)"/>
<path d="M0 0 C22.42791037 17.09177011 36.18283163 40.49380505 40.01074219 68.41918945 C42.15408509 95.9135947 35.66615265 122.76465504 17.69824219 144.16918945 C0.6249368 163.77731903 -21.90146276 176.55723725 -47.98925781 179.41918945 C-77.20414378 180.95825013 -103.94219555 174.0356079 -125.95410156 154.2668457 C-144.81767532 136.78513147 -157.28972072 112.71485529 -158.32519531 86.7277832 C-158.78473384 56.6191234 -149.5973686 30.74351039 -128.67675781 8.66918945 C-94.22315355 -24.27857546 -38.44402261 -28.47889816 0 0 Z M-103.23535156 42.0402832 C-114.5506026 56.32834239 -118.51027105 71.5093558 -116.98925781 89.41918945 C-114.11793419 106.40642141 -104.88834874 119.37962199 -91.21582031 129.3371582 C-77.54496137 138.15866888 -61.98248775 140.4463852 -46.12988281 137.7668457 C-29.85772642 133.55416522 -16.8900369 123.91014969 -8.25097656 109.5246582 C-0.70481959 95.23751734 1.47460763 79.8129857 -2.55175781 64.10668945 C-7.76571193 48.07792592 -18.08364458 35.48958238 -33.15332031 27.8059082 C-57.42236956 17.39172125 -85.45499731 21.29138285 -103.23535156 42.0402832 Z " fill="#FFFFFF" transform="translate(314.9892578125,175.580810546875)"/>
</svg>
