<?xml version="1.0" encoding="UTF-8"?>
<svg version="1.1" xmlns="http://www.w3.org/2000/svg" width="512" height="512">
<path d="M0 0 C0.98958741 0.00350558 1.97917482 0.00701117 2.99874973 0.01062298 C15.46472884 0.16272399 27.84103541 1.37883007 40.24092174 2.58729386 C43.68799073 2.9212345 47.1361335 3.24375397 50.5841217 3.56803894 C56.35922333 4.11290616 62.13346281 4.66624164 67.90722656 5.22509766 C74.5348066 5.86650749 81.16351582 6.49498459 87.79299062 7.11648256 C94.2430656 7.72140416 100.69230977 8.3347788 107.14120674 8.95212364 C109.85463846 9.21178057 112.56830382 9.46874323 115.2822094 9.72339821 C169.09301511 14.79994954 169.09301511 14.79994954 188.24389648 37.12231445 C198.83318188 50.656964 202.68893239 64.82515511 204.18530273 81.73168945 C204.362929 83.61712463 204.362929 83.61712463 204.54414368 85.54064941 C204.89253278 89.25451307 205.22694933 92.96953856 205.55921173 96.68487549 C205.80680595 99.4414587 206.05815194 102.19768178 206.3102417 104.95385742 C207.41622068 117.05509453 208.49816391 129.15828034 209.55718803 141.26371765 C210.06915651 147.11555034 210.58489964 152.96698804 211.11035156 158.81762695 C211.62814678 164.58330552 212.13631964 170.34976026 212.63794899 176.11686707 C212.82725943 178.27602101 213.01971374 180.43490222 213.21570396 182.59346008 C214.20091762 193.4728287 214.95879222 204.29351672 215.00488281 215.22192383 C215.01096652 216.10824745 215.01705023 216.99457108 215.02331829 217.90775299 C214.84867997 248.73047814 193.6702068 267.69575936 173.42867243 287.90114689 C170.80675256 290.52057246 168.19062536 293.14577378 165.57368469 295.77017212 C160.46264685 300.89388263 155.34622461 306.01218242 150.22767193 311.12838462 C146.06453714 315.28972849 141.90318871 319.45285079 137.7430706 323.61721039 C137.14854764 324.21232854 136.55402467 324.80744669 135.94148586 325.42059873 C134.73333839 326.62995808 133.52519204 327.83931856 132.31704681 329.04868016 C121.01830136 340.35827151 109.71308072 351.66137272 98.40585624 362.96248588 C88.08084107 373.28232888 77.76407139 383.61037025 67.45114631 393.94229403 C56.83434537 404.57850197 46.21196344 415.20910664 35.58357805 425.83373904 C29.62751609 431.78789403 23.67364454 437.74419926 17.72563362 443.70639801 C12.66467492 448.77930769 7.59843609 453.84687233 2.52546794 458.90777352 C-0.05804507 461.48542522 -2.63916982 464.06534665 -5.2137146 466.65195847 C-30.51310802 492.06173038 -30.51310802 492.06173038 -43.33422852 497.20043945 C-44.36229614 497.62498413 -44.36229614 497.62498413 -45.41113281 498.05810547 C-61.87424387 504.66551065 -80.74759096 504.31363229 -97.11499023 497.46557617 C-113.19635226 490.2916891 -124.85484051 476.77073914 -137.13818359 464.51098633 C-138.59637998 463.05907145 -140.05475933 461.60734031 -141.51330566 460.15577698 C-146.25530243 455.43459866 -150.99216662 450.70828796 -155.72875977 445.98168945 C-157.36924346 444.34525974 -159.00975867 442.70886163 -160.65030479 441.07249451 C-168.35166085 433.39013039 -176.05064415 425.70539817 -183.74669343 418.01771784 C-192.60088626 409.17331643 -201.46331844 400.33727879 -210.3327511 391.50816107 C-217.21313307 384.65797427 -224.08578737 377.80009546 -230.95274276 370.93644953 C-235.04418803 366.84734794 -239.13883184 362.76157876 -243.24170876 358.6839447 C-247.09770014 354.85130291 -250.94397421 351.00916531 -254.78318024 347.15971184 C-256.18773541 345.75466312 -257.5956762 344.35298879 -259.00735283 342.95509529 C-275.31926174 326.79350528 -286.01953859 309.45536468 -286.58422852 285.76293945 C-285.93410036 258.48582356 -271.39238073 241.2859053 -252.99403381 222.90730286 C-252.11135234 222.02165026 -251.22867086 221.13599766 -250.31924146 220.22350711 C-247.89835837 217.79465545 -245.47444104 215.36885289 -243.04994261 212.94361079 C-240.42440609 210.31620599 -237.80171689 207.68596128 -235.17860413 205.05613708 C-229.45825991 199.32228588 -223.73420787 193.59214603 -218.00931478 187.86283708 C-214.43014694 184.28089631 -210.85171279 180.69822319 -207.27340508 177.1154232 C-197.35053339 167.18037352 -187.42672585 157.24626074 -177.49945927 147.3156023 C-176.86578694 146.68171041 -176.23211462 146.04781853 -175.57924011 145.39471779 C-174.94413884 144.75939824 -174.30903757 144.1240787 -173.6546908 143.46950704 C-172.36793685 142.18230963 -171.08118445 140.89511067 -169.79443359 139.60791016 C-168.83704333 138.65018775 -168.83704333 138.65018775 -167.86031186 137.67311742 C-157.50925038 127.31810444 -147.16496638 116.95634909 -136.82356877 106.59168581 C-126.18642267 95.9308032 -115.54363724 85.27557754 -104.89519876 74.62597388 C-98.92436398 68.65422413 -92.95594871 62.68010077 -86.99376106 56.69971657 C-81.92015385 51.61067797 -76.8413969 46.52684924 -71.75594861 41.44964222 C-69.16456895 38.862157 -66.57562639 36.27235567 -63.99324799 33.67588425 C-61.18745791 30.8549227 -58.36999938 28.04579794 -55.55140686 25.23762512 C-54.34364085 24.01777451 -54.34364085 24.01777451 -53.11147553 22.77328044 C-38.24758382 8.03713274 -21.02532269 -0.10768049 0 0 Z M-35.48294067 52.25576782 C-36.3839242 53.1508091 -37.28490772 54.04585038 -38.21319377 54.96801412 C-40.69636217 57.43516798 -43.17334296 59.90845126 -45.64925694 62.38288236 C-48.32741029 65.05731272 -51.01123997 67.72603731 -53.69424438 70.39559937 C-59.5507582 76.22503872 -65.39979093 82.06194534 -71.24719095 87.90052462 C-74.90194883 91.54974414 -78.55817337 95.19749176 -82.21465683 98.84498215 C-92.34956938 108.95552545 -102.48259743 119.06794907 -112.60872078 129.18729591 C-113.25580492 129.83394092 -113.90288905 130.48058592 -114.5695818 131.14682623 C-115.2181528 131.79496068 -115.8667238 132.44309512 -116.53494847 133.11087 C-117.84906085 134.42409547 -119.16317634 135.73731784 -120.47729492 137.05053711 C-121.45505098 138.02762888 -121.45505098 138.02762888 -122.45255969 139.02445988 C-133.01631924 149.58032232 -143.59352063 160.12260496 -154.17658557 170.65910871 C-165.05662266 181.49166551 -175.92532186 192.33549101 -186.78281009 203.19064939 C-192.87330928 209.27931848 -198.96851306 215.36310296 -205.07626724 221.43446732 C-210.27612065 226.60344724 -215.46548305 231.78268244 -220.6416799 236.97535618 C-223.27998663 239.62144974 -225.92280139 242.26256105 -228.57907104 244.89063263 C-231.46575382 247.74695135 -234.32837806 250.62627086 -237.18948364 253.50820923 C-238.02255826 254.32517104 -238.85563288 255.14213285 -239.71395218 255.98385108 C-247.65703039 264.06229617 -253.23031084 273.40917325 -253.45922852 284.95043945 C-253.20065906 302.37802091 -241.02543816 312.89005049 -229.51831055 324.35791016 C-228.01257032 325.86935898 -226.50745996 327.3814355 -225.00292969 328.89408875 C-220.93145097 332.98345559 -216.85052382 337.06326624 -212.76723719 341.14083886 C-209.35476104 344.55021816 -205.94689494 347.96418696 -202.53898513 351.37812966 C-194.49952789 359.43161505 -186.45231754 367.47729422 -178.40014648 375.51806641 C-170.09956966 383.80715207 -161.81187242 392.10895584 -153.53044236 400.41716701 C-146.41054476 407.55922404 -139.28291014 414.69349336 -132.14898956 421.8215434 C-127.89219699 426.07496724 -123.63834537 430.33122842 -119.39184952 434.59493446 C-115.40019552 438.60206009 -111.3989449 442.59934961 -107.39015198 446.58932686 C-105.92259038 448.05320387 -104.45841382 449.5204837 -102.99793625 450.99142838 C-101.000203 453.00238044 -98.99047319 455.00054409 -96.97732544 456.99604797 C-96.40551485 457.57746357 -95.83370426 458.15887916 -95.24456608 458.75791341 C-88.48616446 465.39542492 -80.11334147 469.17685334 -70.58422852 469.63793945 C-53.29836975 469.21633314 -43.25059714 458.6115138 -31.86157227 447.14575195 C-30.67944843 445.96243313 -29.49695151 444.77948691 -28.31410217 443.59689331 C-25.84593462 441.12716915 -23.38113797 438.65414741 -20.91894531 436.1784668 C-17.78170983 433.0242524 -14.6379426 429.87665011 -11.49182796 426.73129463 C-9.05241449 424.29160763 -6.61562803 421.84931074 -4.17968941 419.40615463 C-3.02218778 418.24549784 -1.86410332 417.08542195 -0.70539665 415.92596817 C0.92092429 414.29744918 2.5438953 412.66566087 4.16601562 411.03295898 C5.54546104 409.64779587 5.54546104 409.64779587 6.95277405 408.23464966 C9.07803727 406.05406502 11.07990715 403.79248655 13.06602478 401.48471069 C17.17064586 396.75676345 21.57212574 392.35641083 26.01147461 387.94458008 C27.38815231 386.57014389 28.76482987 385.19570756 30.14150238 383.82126617 C31.60676506 382.3593523 33.07326915 380.89869452 34.54014587 379.43840027 C37.61187641 376.38031081 40.67968297 373.31830451 43.74694824 370.2557373 C50.8110689 363.20360576 57.88021697 356.15652089 64.94942474 349.10948944 C71.43395831 342.64519346 77.91739632 336.17980843 84.39677954 329.71034956 C87.43918188 326.67289629 90.48399709 323.63788996 93.53075409 320.60480499 C94.97222464 319.16903121 96.41251903 317.73208969 97.85231018 316.29463196 C99.59817992 314.55160484 101.34582386 312.81035199 103.09568787 311.07133484 C107.29631758 306.87108379 111.3150461 302.58875952 115.1898098 298.08681107 C117.58214317 295.36138112 120.13391265 292.81843438 122.72265625 290.28100586 C123.2699942 289.73994705 123.81733215 289.19888824 124.3812561 288.64143372 C125.55432569 287.48207256 126.72848494 286.32381305 127.90365791 285.16658401 C129.7703218 283.32690939 131.63228403 281.4825958 133.49290466 279.6368103 C138.7779346 274.39418546 144.06564126 269.15436122 149.36962891 263.9309082 C152.62843581 260.72091168 155.87714687 257.50098555 159.11970329 254.27457809 C160.34749618 253.05660657 161.57891591 251.84227873 162.81418037 250.63188553 C172.07793938 241.55062558 180.87205982 232.74555982 182.06820679 219.09736633 C182.04347321 205.79908333 180.8051094 192.5966434 179.6354146 179.35788894 C179.32900848 175.87612288 179.02972026 172.39374332 178.7293396 168.91145325 C178.2246859 163.07384221 177.71452555 157.23673285 177.20092773 151.39990234 C176.60973653 144.68052573 176.02717208 137.96044341 175.4492203 131.23991603 C174.88917333 124.7297478 174.32320639 118.22010715 173.75452805 111.71068764 C173.51427162 108.95955326 173.27599925 106.20825818 173.03938675 103.45680809 C172.70818449 99.60933638 172.36829576 95.76265774 172.02758789 91.91601562 C171.93192032 90.79315659 171.83625275 89.67029755 171.73768616 88.51341248 C170.51440084 74.90015418 168.85027389 63.32244185 158.79077148 53.26293945 C152.50066711 48.92744602 146.29811519 45.31122121 138.59667969 44.57617188 C137.5332988 44.47154129 136.46991791 44.36691071 135.37431335 44.2591095 C134.18787735 44.15080307 133.00144135 44.04249664 131.77905273 43.9309082 C130.49154617 43.80797897 129.20403961 43.68504974 127.8775177 43.55839539 C123.18316092 43.11296977 118.4870195 42.6878807 113.79077148 42.26293945 C111.87164219 42.08832747 109.95251381 41.91370546 108.03338623 41.73907471 C94.70058779 40.52898642 81.36493175 39.35303363 68.02783203 38.19140625 C62.12210697 37.6766349 56.21718618 37.15315176 50.31238842 36.62786579 C45.69617359 36.21886437 41.07940037 35.81645523 36.46245766 35.41576195 C34.28528605 35.22567158 32.10832381 35.03316462 29.93160057 34.83800697 C2.25685949 32.36215121 -14.98055166 31.71050004 -35.48294067 52.25576782 Z " fill="#FFFFFF" transform="translate(291.209228515625,4.737060546875)"/>
<path d="M0 0 C9.39890259 7.5263243 16.05414885 19.5291257 17.8515625 31.4453125 C19.11094526 47.73882213 17.47509357 61.81820958 6.93359375 75.01953125 C6.24652344 75.82003906 5.55945313 76.62054688 4.8515625 77.4453125 C4.25730469 78.17363281 3.66304688 78.90195313 3.05078125 79.65234375 C-4.0361082 87.58905292 -15.86709607 93.73883923 -26.5065918 94.64648438 C-29.16135038 94.74947396 -31.80428777 94.76734821 -34.4609375 94.7578125 C-35.34716797 94.77392578 -36.23339844 94.79003906 -37.14648438 94.80664062 C-49.56503264 94.81569865 -62.04516018 90.04285219 -71.1484375 81.4453125 C-73.58304482 78.85712014 -75.88925786 76.18748916 -78.1484375 73.4453125 C-78.61636719 72.8884375 -79.08429688 72.3315625 -79.56640625 71.7578125 C-88.83869427 59.88928384 -89.16922884 44.80592741 -88.1484375 30.4453125 C-85.4926355 16.0736297 -76.48848893 4.49471862 -64.7734375 -3.8671875 C-44.3355241 -16.77534333 -18.96291326 -13.7222536 0 0 Z M-52.80078125 30.54296875 C-56.13456792 35.24892268 -55.68411809 40.93006589 -55.1484375 46.4453125 C-53.1312844 53.30363304 -48.97868828 57.21099954 -42.8984375 60.7578125 C-36.22994004 62.42493687 -30.00189566 62.22527242 -23.96875 58.78125 C-19.45217542 55.46651072 -15.46413377 50.97123684 -14.1484375 45.4453125 C-13.3445286 38.92611379 -14.27935567 33.81903726 -18.1484375 28.4453125 C-22.89052555 23.37734636 -27.44589668 20.45404123 -34.4609375 20.0703125 C-42.77377889 20.31845702 -47.60601335 24.37787974 -52.80078125 30.54296875 Z " fill="#FFFFFF" transform="translate(408.1484375,97.5546875)"/>
<path d="M0 0 C3.62077274 1.53098879 5.93090295 3.68414029 8.69500732 6.45449829 C9.15169934 6.90948145 9.60839135 7.36446461 10.07892251 7.83323514 C11.60525765 9.35628073 13.12434275 10.88635545 14.64355469 12.41650391 C15.7372972 13.51081065 16.83148048 14.60467702 17.92607117 15.69813538 C20.89511071 18.66660087 23.85794139 21.64119449 26.81970501 24.61691713 C29.91644932 27.72615993 33.01885445 30.82974374 36.1206665 33.93392944 C41.99297582 39.81245611 47.86016807 45.69606267 53.72554421 51.58150613 C60.40354662 58.28185957 67.08722572 64.97653808 73.77139044 71.67074323 C87.52059148 85.44085205 101.26263862 99.21808016 115 113 C114.04751485 114.11829227 113.09402133 115.23572573 112.1401062 116.35279846 C111.60923841 116.97516168 111.07837063 117.59752489 110.53141594 118.2387476 C108.66809708 120.38171525 106.71083508 122.40232519 104.6953125 124.40234375 C103.94765625 125.14677734 103.2 125.89121094 102.4296875 126.65820312 C101.28886719 127.78645508 101.28886719 127.78645508 100.125 128.9375 C99.34125 129.71673828 98.5575 130.49597656 97.75 131.29882812 C95.83561419 133.20154085 93.91891966 135.10186171 92 137 C85.76734076 131.85042578 80.0853018 126.2203721 74.38305664 120.49658203 C73.32806536 119.44130823 72.27285294 118.38625547 71.21743774 117.33140564 C68.37065894 114.48491224 65.52696106 111.63535925 62.68382955 108.78522348 C59.70544451 105.80056205 56.72420316 102.81875638 53.74327087 99.8366394 C48.10681337 94.19708118 42.47290855 88.55498002 36.83992904 82.91194808 C30.42349406 76.48431277 24.00419923 70.05953682 17.58466923 63.63499284 C4.38660739 50.42649513 -8.80788037 37.21443242 -22 24 C-20.30145963 20.37916872 -18.28895218 18.05744646 -15.4296875 15.234375 C-14.08583984 13.90019531 -14.08583984 13.90019531 -12.71484375 12.5390625 C-11.77769531 11.61867188 -10.84054688 10.69828125 -9.875 9.75 C-8.92011363 8.80515144 -7.96568141 7.85984367 -7.01171875 6.9140625 C-4.67890913 4.60481662 -2.34155914 2.30036797 0 0 Z " fill="#FFFFFF" transform="translate(140,257)"/>
<path d="M0 0 C3.62077274 1.53098879 5.93090295 3.68414029 8.69500732 6.45449829 C9.15169934 6.90948145 9.60839135 7.36446461 10.07892251 7.83323514 C11.60525765 9.35628073 13.12434275 10.88635545 14.64355469 12.41650391 C15.7372972 13.51081065 16.83148048 14.60467702 17.92607117 15.69813538 C20.89511071 18.66660087 23.85794139 21.64119449 26.81970501 24.61691713 C29.91644932 27.72615993 33.01885445 30.82974374 36.1206665 33.93392944 C41.99297582 39.81245611 47.86016807 45.69606267 53.72554421 51.58150613 C60.40354662 58.28185957 67.08722572 64.97653808 73.77139044 71.67074323 C87.52059148 85.44085205 101.26263862 99.21808016 115 113 C114.04751485 114.11829227 113.09402133 115.23572573 112.1401062 116.35279846 C111.60923841 116.97516168 111.07837063 117.59752489 110.53141594 118.2387476 C108.66809708 120.38171525 106.71083508 122.40232519 104.6953125 124.40234375 C103.94765625 125.14677734 103.2 125.89121094 102.4296875 126.65820312 C101.28886719 127.78645508 101.28886719 127.78645508 100.125 128.9375 C99.34125 129.71673828 98.5575 130.49597656 97.75 131.29882812 C95.83561419 133.20154085 93.91891966 135.10186171 92 137 C85.76734076 131.85042578 80.0853018 126.2203721 74.38305664 120.49658203 C73.32806536 119.44130823 72.27285294 118.38625547 71.21743774 117.33140564 C68.37065894 114.48491224 65.52696106 111.63535925 62.68382955 108.78522348 C59.70544451 105.80056205 56.72420316 102.81875638 53.74327087 99.8366394 C48.10681337 94.19708118 42.47290855 88.55498002 36.83992904 82.91194808 C30.42349406 76.48431277 24.00419923 70.05953682 17.58466923 63.63499284 C4.38660739 50.42649513 -8.80788037 37.21443242 -22 24 C-20.30145963 20.37916872 -18.28895218 18.05744646 -15.4296875 15.234375 C-14.08583984 13.90019531 -14.08583984 13.90019531 -12.71484375 12.5390625 C-11.77769531 11.61867187 -10.84054688 10.69828125 -9.875 9.75 C-8.92011363 8.80515144 -7.96568141 7.85984367 -7.01171875 6.9140625 C-4.67890913 4.60481662 -2.34155914 2.30036797 0 0 Z " fill="#FFFFFF" transform="translate(210,188)"/>
</svg>
