<?xml version="1.0" encoding="UTF-8"?>
<svg version="1.1" xmlns="http://www.w3.org/2000/svg" width="512" height="512">
<path d="M0 0 C1.30880127 0.00966797 1.30880127 0.00966797 2.64404297 0.01953125 C21.466795 0.54769413 32.27584651 12.25571856 44.6550293 24.8894043 C48.79731098 29.11158095 53.0048822 33.14225755 57.52514648 36.95947266 C59.22820839 38.48053714 60.67992973 40.10078762 62.1875 41.8125 C65.67197846 45.30301269 69.45197392 45.95584806 74.25 46.5 C77.55822393 46.40934379 80.74681348 45.92780499 84.0078125 45.3828125 C84.9139328 45.24680634 85.8200531 45.11080017 86.75363159 44.97067261 C89.63003487 44.53750448 92.50249683 44.08326491 95.375 43.625 C134.62893665 37.43932855 134.62893665 37.43932855 151.25 48.5 C168.24047475 60.97007321 170.10733746 79.9682727 173.3125 99.375 C173.97996345 103.4159972 174.65992847 107.45459536 175.34765625 111.4921875 C175.56809349 112.86574905 175.56809349 112.86574905 175.79298401 114.26705933 C177.03169276 122.46305355 177.03169276 122.46305355 181.94769287 128.82691956 C184.00499544 130.15269736 186.09355056 131.34300038 188.25 132.5 C189.21409286 133.02830917 189.21409286 133.02830917 190.19766235 133.56729126 C192.147867 134.61621556 194.11201144 135.63335947 196.08203125 136.64453125 C197.55550956 137.41178103 199.02881133 138.17936992 200.50195312 138.94726562 C202.7771013 140.12893552 205.05353154 141.30788608 207.33325195 142.48071289 C224.36986667 151.26005771 238.32273536 159.60746006 245.25 178.5 C246.27626325 182.50046568 246.47950241 186.37633024 246.5625 190.5 C246.59988281 191.69625 246.63726562 192.8925 246.67578125 194.125 C246.08576741 205.3839796 240.46611453 215.70690072 235.375 225.5 C232.98395419 230.1586828 230.60764988 234.82432461 228.25 239.5 C227.66186523 240.65113281 227.07373047 241.80226562 226.46777344 242.98828125 C225.91895508 244.10589844 225.37013672 245.22351563 224.8046875 246.375 C224.31210449 247.36242187 223.81952148 248.34984375 223.31201172 249.3671875 C221.0160802 256.13992158 221.99366924 260.88728251 225.04425049 267.09603882 C225.44730408 267.87645538 225.85035767 268.65687195 226.265625 269.4609375 C226.67786316 270.29154694 227.09010132 271.12215637 227.51483154 271.97793579 C228.82843425 274.61800021 230.16313395 277.24665086 231.5 279.875 C232.81833613 282.49812605 234.13207652 285.12346449 235.44232178 287.75064087 C236.25591863 289.3786026 237.07475867 291.00395948 237.89996338 292.62606812 C244.67469429 306.06944479 249.26389895 319.75471111 245.0625 334.875 C237.68723259 355.59435587 221.0481833 363.23461964 202.53564453 372.66870117 C197.18898787 375.40094119 191.88940092 378.20071866 186.66015625 381.15234375 C185.69343994 381.69753662 184.72672363 382.24272949 183.73071289 382.80444336 C179.49668458 385.69838359 177.98256676 388.43117631 177.0390625 393.41015625 C176.84884521 394.38726562 176.65862793 395.364375 176.46264648 396.37109375 C176.17176147 397.95083984 176.17176147 397.95083984 175.875 399.5625 C175.66367432 400.655625 175.45234863 401.74875 175.23461914 402.875 C174.08728547 408.85385968 173.0081851 414.84339814 171.95703125 420.83984375 C171.7441748 422.03665771 171.53131836 423.23347168 171.31201172 424.46655273 C170.90533496 426.76750377 170.50927367 429.07036444 170.12548828 431.37524414 C167.71115141 445.08248055 161.83312711 457.26447877 150.25 465.5 C131.89561561 476.51847598 112.4849351 472.10463419 92.4765625 468.91259766 C89.65560267 468.46680573 86.83212912 468.04110966 84.0078125 467.6171875 C83.16074738 467.47562225 82.31368225 467.33405701 81.44094849 467.1882019 C75.34544602 466.28509448 68.71149939 466.0281031 63.47213745 469.76959229 C61.92992288 471.1621883 60.56157772 472.62916718 59.1875 474.1875 C58.15297294 475.29087645 57.11652046 476.39245085 56.078125 477.4921875 C55.34432617 478.28254395 55.34432617 478.28254395 54.59570312 479.08886719 C52.97261104 480.79087594 51.24616319 482.31052318 49.4375 483.8125 C46.04495365 486.67496098 42.99194025 489.79512364 39.90600586 492.97827148 C29.38660237 503.78208896 18.73635905 512.69295516 3.00732422 513.01953125 C2.17990723 513.01308594 1.35249023 513.00664063 0.5 513 C-0.37253418 512.99355469 -1.24506836 512.98710938 -2.14404297 512.98046875 C-20.966795 512.45230587 -31.77584651 500.74428144 -44.1550293 488.1105957 C-48.29731098 483.88841905 -52.5048822 479.85774245 -57.02514648 476.04052734 C-58.72820839 474.51946286 -60.17992973 472.89921238 -61.6875 471.1875 C-65.17197846 467.69698731 -68.95197392 467.04415194 -73.75 466.5 C-77.05822393 466.59065621 -80.24681348 467.07219501 -83.5078125 467.6171875 C-84.4139328 467.75319366 -85.3200531 467.88919983 -86.25363159 468.02932739 C-89.13003487 468.46249552 -92.00249683 468.91673509 -94.875 469.375 C-134.12893665 475.56067145 -134.12893665 475.56067145 -150.75 464.5 C-167.74047475 452.02992679 -169.60733746 433.0317273 -172.8125 413.625 C-173.47996345 409.5840028 -174.15992847 405.54540464 -174.84765625 401.5078125 C-175.06809349 400.13425095 -175.06809349 400.13425095 -175.29298401 398.73294067 C-176.53169276 390.53694645 -176.53169276 390.53694645 -181.44769287 384.17308044 C-183.50499544 382.84730264 -185.59355056 381.65699962 -187.75 380.5 C-188.71409286 379.97169083 -188.71409286 379.97169083 -189.69766235 379.43270874 C-191.647867 378.38378444 -193.61201144 377.36664053 -195.58203125 376.35546875 C-197.05550956 375.58821897 -198.52881133 374.82063008 -200.00195312 374.05273438 C-202.2771013 372.87106448 -204.55353154 371.69211392 -206.83325195 370.51928711 C-223.86986667 361.73994229 -237.82273536 353.39253994 -244.75 334.5 C-245.77626325 330.49953432 -245.97950241 326.62366976 -246.0625 322.5 C-246.11857422 320.705625 -246.11857422 320.705625 -246.17578125 318.875 C-245.55173055 307.18211299 -239.59182981 296.55279645 -234.3125 286.375 C-231.77325018 281.4259206 -229.25432824 276.46683636 -226.75 271.5 C-225.96471924 269.96714355 -225.96471924 269.96714355 -225.16357422 268.40332031 C-224.70611816 267.46842773 -224.24866211 266.53353516 -223.77734375 265.5703125 C-223.381521 264.77641113 -222.98569824 263.98250977 -222.57788086 263.16455078 C-220.35506497 256.01037424 -221.95980652 250.91069908 -225.2578125 244.5546875 C-225.62091522 243.82234894 -225.98401794 243.09001038 -226.35812378 242.33547974 C-227.51565474 240.00757939 -228.69417559 237.69115804 -229.875 235.375 C-231.40461734 232.33380631 -232.92603404 229.28855751 -234.4453125 226.2421875 C-234.81529358 225.50208435 -235.18527466 224.7619812 -235.56646729 223.99945068 C-242.86857919 209.30069984 -249.20689906 194.83958871 -244.5625 178.125 C-237.18723259 157.40564413 -220.5481833 149.76538036 -202.03564453 140.33129883 C-196.68898787 137.59905881 -191.38940092 134.79928134 -186.16015625 131.84765625 C-185.19343994 131.30246338 -184.22672363 130.75727051 -183.23071289 130.19555664 C-178.99668458 127.30161641 -177.48256676 124.56882369 -176.5390625 119.58984375 C-176.25373657 118.12417969 -176.25373657 118.12417969 -175.96264648 116.62890625 C-175.76872314 115.57574219 -175.5747998 114.52257812 -175.375 113.4375 C-175.16367432 112.344375 -174.95234863 111.25125 -174.73461914 110.125 C-173.58728547 104.14614032 -172.5081851 98.15660186 -171.45703125 92.16015625 C-171.2441748 90.96334229 -171.03131836 89.76652832 -170.81201172 88.53344727 C-170.40533496 86.23249623 -170.00927367 83.92963556 -169.62548828 81.62475586 C-167.21115141 67.91751945 -161.33312711 55.73552123 -149.75 47.5 C-131.39561561 36.48152402 -111.9849351 40.89536581 -91.9765625 44.08740234 C-89.15560267 44.53319427 -86.33212912 44.95889034 -83.5078125 45.3828125 C-82.23721481 45.59516037 -82.23721481 45.59516037 -80.94094849 45.8117981 C-74.84544602 46.71490552 -68.21149939 46.9718969 -62.97213745 43.23040771 C-61.42992288 41.8378117 -60.06157772 40.37083282 -58.6875 38.8125 C-57.65297294 37.70912355 -56.61652046 36.60754915 -55.578125 35.5078125 C-55.08892578 34.9809082 -54.59972656 34.45400391 -54.09570312 33.91113281 C-52.47261104 32.20912406 -50.74616319 30.68947682 -48.9375 29.1875 C-45.54495365 26.32503902 -42.49194025 23.20487636 -39.40600586 20.02172852 C-27.98088552 8.28770625 -16.94779659 -0.13201789 0 0 Z M-100.75 143.5 C-109.49908453 155.7172231 -114.46594793 169.59015802 -112.2890625 184.69921875 C-109.24723477 200.96405053 -101.46189763 213.1371181 -88.12890625 222.96875 C-76.44256313 230.49099384 -63.47330095 233.15723742 -49.7421875 231.03515625 C-35.00274524 227.78324275 -22.77840896 220.00197959 -14.05859375 207.6015625 C-6.06182329 194.75898785 -3.2545724 181.69025216 -5.96875 166.7265625 C-9.58006779 151.81182001 -18.07912061 140.07960089 -30.75 131.5 C-54.40784146 118.31736082 -82.67165502 123.20978574 -100.75 143.5 Z M83.2763865 153.0537349 C82.52092908 153.81315601 81.76547165 154.57257712 80.98712158 155.35501099 C80.17077924 156.16385109 79.35443691 156.97269119 78.51335692 157.8060416 C76.25639057 160.04539549 74.00623206 162.29133594 71.75886941 164.5403204 C69.33067885 166.9670635 66.89394389 169.3852021 64.45838928 171.80455017 C59.13869704 177.09216546 53.83014125 182.39086851 48.52361012 187.69168711 C45.20907427 191.00246888 41.89201675 194.31071603 38.57439423 197.61840439 C29.38534569 206.78052176 20.19851088 215.94484035 11.02170181 225.11921883 C10.43486102 225.70590404 9.84802023 226.29258926 9.24339639 226.89705282 C8.0538049 228.08635325 6.86421626 229.27565652 5.67463043 230.46496262 C5.08413618 231.05531402 4.49364193 231.64566541 3.88525391 232.25390625 C3.2940392 232.84498129 2.70282449 233.43605633 2.09369418 234.04504274 C-7.49054793 243.6261483 -17.09141198 253.19040612 -26.69978365 262.74730755 C-36.56915608 272.56423253 -46.4253834 282.39419108 -56.26828694 292.23765647 C-61.79315666 297.7622736 -67.32338521 303.2812722 -72.86794281 308.78613663 C-77.58790593 313.47248037 -82.29560743 318.17072484 -86.98786488 322.88481565 C-89.38148704 325.28887125 -91.78198639 327.68476722 -94.19463158 330.0698185 C-96.81126647 332.65837109 -99.40541972 335.26756508 -101.99505615 337.88308716 C-102.75943646 338.62912394 -103.52381677 339.37516072 -104.31136012 340.14380467 C-108.85462011 344.79049471 -111.53002848 348.84929746 -111.75 355.5 C-110.22542459 361.21715779 -107.71454907 364.31519493 -102.75 367.5 C-98.97500442 368.72065725 -95.8021699 368.88839482 -92.0164299 367.49093819 C-87.55532768 364.77182924 -84.15928169 361.33641598 -80.48712158 357.64498901 C-79.26260808 356.43172886 -79.26260808 356.43172886 -78.01335692 355.1939584 C-75.75639057 352.95460451 -73.50623206 350.70866406 -71.25886941 348.4596796 C-68.83067885 346.0329365 -66.39394389 343.6147979 -63.95838928 341.19544983 C-58.63869704 335.90783454 -53.33014125 330.60913149 -48.02361012 325.30831289 C-44.70907427 321.99753112 -41.39201675 318.68928397 -38.07439423 315.38159561 C-28.88534569 306.21947824 -19.69851088 297.05515965 -10.52170181 287.88078117 C-9.93486102 287.29409596 -9.34802023 286.70741074 -8.74339639 286.10294718 C-7.5538049 284.91364675 -6.36421626 283.72434348 -5.17463043 282.53503738 C-4.58413618 281.94468598 -3.99364193 281.35433459 -3.38525391 280.74609375 C-2.7940392 280.15501871 -2.20282449 279.56394367 -1.59369418 278.95495726 C7.99054793 269.3738517 17.59141198 259.80959388 27.19978365 250.25269245 C37.06915608 240.43576747 46.9253834 230.60580892 56.76828694 220.76234353 C62.29315666 215.2377264 67.82338521 209.7187278 73.36794281 204.21386337 C78.08790593 199.52751963 82.79560743 194.82927516 87.48786488 190.11518435 C89.88148704 187.71112875 92.28198639 185.31523278 94.69463158 182.9301815 C97.31126647 180.34162891 99.90541972 177.73243492 102.49505615 175.11691284 C103.25943646 174.37087606 104.02381677 173.62483928 104.81136012 172.85619533 C109.35462011 168.20950529 112.03002848 164.15070254 112.25 157.5 C110.72542459 151.78284221 108.21454907 148.68480507 103.25 145.5 C94.50045967 142.67080732 89.22473386 147.19234302 83.2763865 153.0537349 Z M17.25 301.65625 C8.11392224 312.52503216 4.77934562 325.99264095 5.40625 339.98828125 C7.20527168 354.43234953 13.8449266 367.37634642 25 376.8125 C38.36184664 386.82360664 51.90681828 389.94470115 68.25 388.5 C81.59549241 386.02496663 93.83922013 378.75533022 102.19140625 368 C111.23272876 354.56494625 115.14821906 340.41030182 112.1875 324.3125 C108.35873018 309.08326756 99.46645799 297.00714537 86.25 288.5 C61.86796343 275.03796512 35.69708187 281.76798986 17.25 301.65625 Z " fill="#2462EB" transform="translate(255.75,-0.5)"/>
<path d="M0 0 C5.92928293 3.62627819 11.03913339 8.37488657 13.12109375 15.14453125 C14.67230616 23.20259924 14.22120181 30.06373605 10.10546875 37.24609375 C5.61980408 43.61687319 0.15980777 46.85747065 -7.4375 48.4375 C-14.17116111 49.36806353 -20.71583066 47.85511985 -26.421875 44.1484375 C-32.37069952 39.39446235 -35.85833199 33.61691681 -36.7109375 25.9921875 C-37.02444436 17.7204297 -35.1680777 11.49901605 -29.5 5.328125 C-21.50228678 -2.00311212 -10.31671011 -4.7133205 0 0 Z " fill="#2462EB" transform="translate(326.4375,311.5625)"/>
<path d="M0 0 C5.94882452 4.75397515 9.43645699 10.53152069 10.2890625 18.15625 C10.60256936 26.4280078 8.7462027 32.64942145 3.078125 38.8203125 C-3.77593712 45.10320278 -9.30482954 46.18339551 -18.5390625 46.01953125 C-25.81060183 45.36822557 -30.62033201 41.89131383 -35.5078125 36.61328125 C-39.91862471 30.93056816 -40.59984768 24.812214 -40.39453125 17.7421875 C-39.40579204 10.43493393 -35.77657388 4.36865703 -29.93359375 -0.10546875 C-20.47884509 -5.84652856 -9.36866705 -6.08594513 0 0 Z " fill="#2462EB" transform="translate(211.984375,156.2890625)"/>
</svg>
